<?xml version="1.0" encoding="UTF-8" standalone="no"?>
<svg width="514px" height="164px" viewBox="0 0 514 164" version="1.1" xmlns="http://www.w3.org/2000/svg" xmlns:xlink="http://www.w3.org/1999/xlink">
    <!-- Generator: Sketch 40.3 (33839) - http://www.bohemiancoding.com/sketch -->
    <title>Artboard</title>
    <desc>Created with Sketch.</desc>
    <defs></defs>
    <g id="Page-1" stroke="none" stroke-width="1" fill="none" fill-rule="evenodd">
        <g id="Artboard" fill="#FFFFFF">
            <g id="Horizontal-Logo-Pale-Blue-Text-White-BG">
                <path d="M76.46,163.43 C75.4946839,163.430766 74.5333406,163.306396 73.6,163.06 L22.38,149.33 C18.5359986,148.296593 15.5334067,145.294001 14.5,141.45 L0.78,90.24 C-0.246489414,86.396382 0.85075547,82.2969532 3.66,79.48 L41.15,42 C43.9669532,39.1907555 48.066382,38.0935106 51.91,39.12 L55.91,40.2 C56.9111752,40.3394161 57.7418265,41.044398 58.0421611,42.009586 C58.3424957,42.9747739 58.0585037,44.026596 57.3131951,44.7094602 C56.5678864,45.3923244 55.4952915,45.5834298 54.56,45.2 L50.56,44.12 C48.5200511,43.5919478 46.3526166,44.172714 44.85,45.65 L7.36,83.18 C5.8682053,84.674285 5.28521715,86.8500121 5.83,88.89 L19.55,140.1 C20.0981964,142.139066 21.6909339,143.731804 23.73,144.28 L74.94,158 C76.9799876,158.549056 79.157852,157.965496 80.65,156.47 L121.65,115.47 C122.310941,114.809059 123.274284,114.550932 124.177147,114.792853 C125.08001,115.034774 125.785226,115.73999 126.027147,116.642853 C126.269068,117.545716 126.010941,118.509059 125.35,119.17 L84.35,160.17 C82.2529089,162.254767 79.4170312,163.426499 76.46,163.43 L76.46,163.43 Z" id="Shape"></path>
                <path d="M79,44.65 C78.5132816,44.1674165 78.2394958,43.5104062 78.2394958,42.825 C78.2394958,42.1395938 78.5132816,41.4825835 79,41 L79,41 C80.0121829,39.9652023 81.6702977,39.9428558 82.71,40.95 L82.71,40.95 C83.7253998,41.9782361 83.7253998,43.6317639 82.71,44.66 L82.71,44.66 C82.2387849,45.1697367 81.5741404,45.4566598 80.88,45.45 L80.88,45.45 C80.1667366,45.4698224 79.4802712,45.1777094 79,44.65 L79,44.65 Z M93.58,29.76 C92.5856846,28.7231979 92.5856846,27.0868021 93.58,26.05 L93.58,26.05 C94.5921829,25.0152023 96.2502977,24.9928558 97.29,26 L97.29,26 C98.3108402,27.0259966 98.3108402,28.6840034 97.29,29.71 L97.29,29.71 C96.7921483,30.2098911 96.1155119,30.4906232 95.41,30.49 L95.41,30.49 C94.7479726,30.4609329 94.1175177,30.1988337 93.63,29.75 L93.58,29.76 Z" id="Shape"></path>
                <path d="M29.55,97.77 C28.4966941,97.7736515 27.5444286,97.1438153 27.1355857,96.1730866 C26.7267428,95.202358 26.9414644,94.0810205 27.68,93.33 L46,74.66 C47.0106811,73.6299889 48.6649889,73.6143189 49.695,74.625 C50.7250111,75.6356811 50.7406811,77.2899889 49.73,78.32 L31.42,97 C30.9267679,97.4994724 30.2519235,97.7773495 29.55,97.77 L29.55,97.77 Z M58.82,67.91 C57.7666941,67.9136515 56.8144286,67.2838153 56.4055857,66.3130866 C55.9967428,65.342358 56.2114644,64.2210205 56.95,63.47 L67.69,52.47 C68.7006811,51.4399889 70.3549889,51.4243189 71.385,52.435 C72.4150111,53.4456811 72.4306811,55.0999889 71.42,56.13 L60.68,67.13 C60.1879099,67.6250617 59.5180208,67.9023813 58.82,67.9 L58.82,67.91 Z" id="Shape"></path>
                <path d="M119.55,46.74 C118.868256,46.7440288 118.211789,46.4821597 117.72,46.01 C117.219683,45.5224927 116.937505,44.8535561 116.937505,44.155 C116.937505,43.4564439 117.219683,42.7875073 117.72,42.3 L136.17,23.8 C137.206802,22.8056846 138.843198,22.8056846 139.88,23.8 C140.367465,24.306085 140.646018,24.9774698 140.66,25.68 C140.645432,26.3677 140.366019,27.0232462 139.88,27.51 L121.38,46 C120.889803,46.4758139 120.233147,46.741347 119.55,46.74 L119.55,46.74 Z" id="Shape"></path>
                <path d="M147.78,16.11 C147.279924,15.6326062 146.996997,14.9713612 146.996997,14.28 C146.996997,13.5886388 147.279924,12.9273938 147.78,12.45 L147.78,12.45 C148.257394,11.9499245 148.918639,11.6669974 149.61,11.6669974 C150.301361,11.6669974 150.962606,11.9499245 151.44,12.45 L151.44,12.45 C151.940076,12.9273938 152.223003,13.5886388 152.223003,14.28 C152.223003,14.9713612 151.940076,15.6326062 151.44,16.11 L151.44,16.11 C150.968785,16.6197367 150.30414,16.9066598 149.61,16.9 L149.61,16.9 C148.91586,16.9066598 148.251215,16.6197367 147.78,16.11 L147.78,16.11 Z M158.86,5 C158.359683,4.51249272 158.077505,3.84355615 158.077505,3.145 C158.077505,2.44644385 158.359683,1.77750728 158.86,1.29 L158.86,1.29 C159.896802,0.295684568 161.533198,0.295684568 162.57,1.29 L162.57,1.29 C163.559206,2.32885078 163.559206,3.96114922 162.57,5 L162.57,5 C162.071523,5.49895685 161.395292,5.77952055 160.69,5.78 L160.69,5.78 C159.997391,5.78923508 159.332982,5.5060446 158.86,5 L158.86,5 Z" id="Shape"></path>
                <path d="M37.78,128.53 C36.721583,128.533621 35.7657732,127.897675 35.3602443,126.920022 C34.9547155,125.942369 35.1797705,124.816603 35.93,124.07 L43.32,116.68 C43.9809413,116.019059 44.9442843,115.760932 45.847147,116.002853 C46.7500097,116.244774 47.4552257,116.94999 47.697147,117.852853 C47.9390683,118.755716 47.6809413,119.719059 47.02,120.38 L39.63,127.77 C39.1387107,128.25893 38.4731179,128.532363 37.78,128.53 L37.78,128.53 Z M56.26,110 C55.201583,110.003621 54.2457732,109.367675 53.8402443,108.390022 C53.4347155,107.412369 53.6597705,106.286603 54.41,105.54 L72.89,87.06 C73.5509413,86.3990586 74.5142844,86.1409316 75.4171471,86.3828529 C76.3200098,86.6247742 77.0252258,87.3299902 77.2671471,88.2328529 C77.5090684,89.1357156 77.2509414,90.0990587 76.59,90.76 L58.1,109.28 C57.6047201,109.751853 56.9439881,110.010401 56.26,110 L56.26,110 Z M89.52,76.73 C88.461583,76.7336208 87.5057732,76.0976753 87.1002443,75.120022 C86.6947155,74.1423687 86.9197705,73.0166025 87.67,72.27 L106.15,53.79 C107.171727,52.7682732 108.828273,52.7682732 109.85,53.79 C110.871727,54.8117268 110.871727,56.4682732 109.85,57.49 L91.37,76 C90.8820015,76.4962688 90.2160005,76.7770692 89.52,76.78 L89.52,76.73 Z" id="Shape"></path>
                <path d="M113.7,89.44 C112.705685,88.4031979 112.705685,86.7668021 113.7,85.73 L113.7,85.73 C114.738851,84.7407936 116.371149,84.7407936 117.41,85.73 L117.41,85.73 C118.404315,86.7668021 118.404315,88.4031979 117.41,89.44 L117.41,89.44 C116.928534,89.9350623 116.270491,90.2191353 115.58,90.23 L115.58,90.23 C114.872818,90.2290955 114.195563,89.9445045 113.7,89.44 L113.7,89.44 Z" id="Shape"></path>
                <polygon id="Shape" points="167.6 82.92 172.26 82.92 172.26 96.84 189.1 96.84 189.1 82.92 193.8 82.92 193.8 116.23 189.1 116.23 189.1 101 172.26 101 172.26 116.24 167.6 116.24"></polygon>
                <path d="M224.9,116.22 L219.72,116.22 L234.16,82.91 L238.39,82.91 L252.69,116.22 L247.42,116.22 L244.05,108 L228.24,108 L224.9,116.22 Z M229.9,103.94 L242.37,103.94 L236.16,88.33 L229.9,103.94 Z" id="Shape"></path>
                <path d="M305.39,111 C304.031329,112.819632 302.277236,114.30702 300.26,115.35 C297.911707,116.518771 295.312076,117.09227 292.69,117.02 C290.294945,117.038952 287.918549,116.597621 285.69,115.72 C283.612573,114.904285 281.723887,113.672385 280.14,112.1 C278.56798,110.51183 277.330265,108.624654 276.5,106.55 C274.727361,101.97918 274.727361,96.9108196 276.5,92.34 C277.343334,90.2675492 278.61041,88.394183 280.22,86.84 C281.840008,85.2964912 283.750242,84.0898482 285.84,83.29 C288.089391,82.427682 290.481097,81.9968356 292.89,82.02 C294.044341,82.0246613 295.195825,82.1351235 296.33,82.35 C297.473829,82.571387 298.592707,82.9063805 299.67,83.35 C300.701675,83.7708924 301.678748,84.3148299 302.58,84.97 C303.44225,85.5981117 304.204249,86.3533668 304.84,87.21 L301.17,90.03 C300.26442,88.8263868 299.076003,87.8646621 297.71,87.23 C296.21049,86.4941905 294.560267,86.1175837 292.89,86.13 C291.087504,86.1031991 289.300358,86.4647209 287.65,87.19 C286.128334,87.861436 284.765351,88.8461912 283.65,90.08 C282.539794,91.3253057 281.677679,92.7712155 281.11,94.34 C280.509765,95.9901687 280.208387,97.7340945 280.22,99.49 C280.204872,101.283619 280.499185,103.066413 281.09,104.76 C281.630884,106.33034 282.477134,107.778142 283.58,109.02 C284.691912,110.247672 286.056526,111.21996 287.58,111.87 C289.223728,112.565291 290.995632,112.906042 292.78,112.87 C294.554427,112.895611 296.310557,112.508783 297.91,111.74 C299.444032,110.992615 300.757086,109.858771 301.72,108.45 L305.39,111 Z" id="Shape"></path>
                <polygon id="Shape" points="335.5 97.59 335.6 97.59 350.46 82.91 356.9 82.91 340.72 98.15 357.89 116.21 351.21 116.21 335.6 99 335.5 99 335.5 116.22 330.84 116.22 330.84 82.92 335.5 82.92 335.5 97.6"></polygon>
                <path d="M395.25,117.07 C393.279067,117.126092 391.318824,116.761317 389.5,116 C387.971089,115.318484 386.60684,114.315762 385.5,113.06 C384.432754,111.831852 383.626415,110.399494 383.13,108.85 C382.610984,107.261681 382.3477,105.600967 382.35,103.93 L382.35,82.93 L387,82.93 L387,103.63 C387.00062,104.763052 387.141696,105.891658 387.42,106.99 C387.685411,108.070324 388.157426,109.089061 388.81,109.99 C389.476798,110.887875 390.347367,111.614492 391.35,112.11 C393.851502,113.174292 396.678498,113.174292 399.18,112.11 C400.191166,111.619118 401.069252,110.891953 401.74,109.99 C402.394562,109.090228 402.866765,108.071086 403.13,106.99 C403.414046,105.892536 403.55852,104.763625 403.56,103.63 L403.56,82.93 L408.22,82.93 L408.22,103.93 C408.2223,105.600967 407.959016,107.261681 407.44,108.85 C406.915348,110.383952 406.085315,111.79569 405,113 C403.89552,114.258339 402.530666,115.261507 401,115.94 C399.185776,116.722174 397.225298,117.107451 395.25,117.07 L395.25,117.07 Z" id="Shape"></path>
                <polygon id="Shape" points="449.34 116.22 444.68 116.22 444.68 87 434 87 434 82.91 460 82.91 460 87 449.34 87 449.34 116.21"></polygon>
                <path d="M484.2,82.92 L495.63,82.92 C497.797401,82.9244107 499.952867,83.2409948 502.03,83.86 C504.129847,84.4835016 506.091545,85.501684 507.81,86.86 C509.569342,88.2426487 511.00033,89.9980857 512,92 C513.124328,94.3613466 513.672663,96.9556568 513.6,99.57 C513.667266,102.138865 513.118647,104.686514 512,107 C510.994248,109.009279 509.564732,110.776556 507.81,112.18 C506.086353,113.544392 504.127358,114.581507 502.03,115.24 C499.960671,115.899984 497.802026,116.237272 495.63,116.24 L484.2,116.24 L484.2,82.92 L484.2,82.92 Z M488.86,112.13 L494.69,112.13 C496.580241,112.147283 498.460949,111.860281 500.26,111.28 C501.880349,110.762491 503.382456,109.929875 504.68,108.83 C505.935404,107.734172 506.923882,106.366036 507.57,104.83 C508.270081,103.145627 508.610685,101.333614 508.57,99.51 C508.619055,97.6403344 508.278503,95.7809186 507.57,94.05 C506.921806,92.5351298 505.932821,91.1902468 504.68,90.12 C503.380788,89.0342344 501.878178,88.2183377 500.26,87.72 C498.458119,87.1539413 496.578634,86.8738743 494.69,86.89 L488.86,86.89 L488.86,112.06 L488.86,112.13 Z" id="Shape"></path>
                <path d="M68.6,137.17 C67.541583,137.173621 66.5857732,136.537675 66.1802443,135.560022 C65.7747155,134.582369 65.9997705,133.456603 66.75,132.71 L74.14,125.32 C75.1617268,124.298273 76.8182732,124.298273 77.84,125.32 C78.8617268,126.341727 78.8617268,127.998273 77.84,129.02 L70.45,136.41 C69.9587107,136.89893 69.2931179,137.172363 68.6,137.17 L68.6,137.17 Z M87.08,118.69 C86.021583,118.693621 85.0657732,118.057675 84.6602443,117.080022 C84.2547155,116.102369 84.4797705,114.976603 85.23,114.23 L103.71,95.75 C104.370941,95.0890586 105.334284,94.8309316 106.237147,95.0728529 C107.14001,95.3147742 107.845226,96.0199902 108.087147,96.9228529 C108.329068,97.8257156 108.070941,98.7890587 107.41,99.45 L88.93,117.93 C88.4387107,118.41893 87.7731179,118.692363 87.08,118.69 L87.08,118.69 Z" id="Shape"></path>
            </g>
        </g>
    </g>
</svg>