<?xml version="1.0" encoding="utf-8"?>
<!-- Generator: Adobe Illustrator 22.0.1, SVG Export Plug-In . SVG Version: 6.00 Build 0)  -->
<svg version="1.1" id="Layer_1" xmlns="http://www.w3.org/2000/svg" xmlns:xlink="http://www.w3.org/1999/xlink" x="0px" y="0px"
	 viewBox="0 0 514 164" style="enable-background:new 0 0 514 164;" xml:space="preserve">
<style type="text/css">
	.st0{fill:#EF626C;}
</style>
<title>Artboard</title>
<desc>Created with Sketch.</desc>
<g id="Page-1">
	<g id="Artboard">
		<g id="Horizontal-Logo-Pale-Blue-Text-White-BG">
			<polygon id="Shape_7_" class="st0" points="167.6,82.9 172.3,82.9 172.3,96.8 189.1,96.8 189.1,82.9 193.8,82.9 193.8,116.2 
				189.1,116.2 189.1,101 172.3,101 172.3,116.2 167.6,116.2 			"/>
			<path id="Shape_8_" class="st0" d="M224.9,116.2h-5.2l14.4-33.3h4.2l14.3,33.3h-5.3l-3.4-8.2h-15.8L224.9,116.2z M229.9,103.9
				h12.5l-6.2-15.6L229.9,103.9z"/>
			<path id="Shape_9_" class="st0" d="M305.4,111c-1.4,1.8-3.1,3.3-5.1,4.3c-2.3,1.2-4.9,1.7-7.6,1.7c-2.4,0-4.8-0.4-7-1.3
				c-2.1-0.8-4-2-5.5-3.6c-1.6-1.6-2.8-3.5-3.6-5.5c-1.8-4.6-1.8-9.6,0-14.2c0.8-2.1,2.1-3.9,3.7-5.5c1.6-1.5,3.5-2.8,5.6-3.5
				c2.2-0.9,4.6-1.3,7.1-1.3c1.2,0,2.3,0.1,3.4,0.3c1.1,0.2,2.3,0.6,3.3,1c1,0.4,2,1,2.9,1.6c0.9,0.6,1.6,1.4,2.3,2.2l-3.7,2.8
				c-0.9-1.2-2.1-2.2-3.5-2.8c-1.5-0.7-3.1-1.1-4.8-1.1c-1.8,0-3.6,0.3-5.2,1.1c-1.5,0.7-2.9,1.7-4,2.9c-1.1,1.2-2,2.7-2.5,4.3
				c-0.6,1.7-0.9,3.4-0.9,5.2c0,1.8,0.3,3.6,0.9,5.3c0.5,1.6,1.4,3,2.5,4.3c1.1,1.2,2.5,2.2,4,2.9c1.6,0.7,3.4,1,5.2,1
				c1.8,0,3.5-0.4,5.1-1.1c1.5-0.7,2.8-1.9,3.8-3.3L305.4,111z"/>
			<polygon id="Shape_10_" class="st0" points="335.5,97.6 335.6,97.6 350.5,82.9 356.9,82.9 340.7,98.2 357.9,116.2 351.2,116.2 
				335.6,99 335.5,99 335.5,116.2 330.8,116.2 330.8,82.9 335.5,82.9 335.5,97.6 			"/>
			<path id="Shape_11_" class="st0" d="M395.3,117.1c-2,0.1-3.9-0.3-5.8-1.1c-1.5-0.7-2.9-1.7-4-2.9c-1.1-1.2-1.9-2.7-2.4-4.2
				c-0.5-1.6-0.8-3.2-0.8-4.9v-21h4.6v20.7c0,1.1,0.1,2.3,0.4,3.4c0.3,1.1,0.7,2.1,1.4,3c0.7,0.9,1.5,1.6,2.5,2.1
				c2.5,1.1,5.3,1.1,7.8,0c1-0.5,1.9-1.2,2.6-2.1c0.7-0.9,1.1-1.9,1.4-3c0.3-1.1,0.4-2.2,0.4-3.4V82.9h4.7v21c0,1.7-0.3,3.3-0.8,4.9
				c-0.5,1.5-1.4,2.9-2.4,4.2c-1.1,1.3-2.5,2.3-4,2.9C399.2,116.7,397.2,117.1,395.3,117.1L395.3,117.1z"/>
			<polygon id="Shape_12_" class="st0" points="449.3,116.2 444.7,116.2 444.7,87 434,87 434,82.9 460,82.9 460,87 449.3,87 
				449.3,116.2 			"/>
			<path id="Shape_13_" class="st0" d="M484.2,82.9h11.4c2.2,0,4.3,0.3,6.4,0.9c2.1,0.6,4.1,1.6,5.8,3c1.8,1.4,3.2,3.1,4.2,5.1
				c1.1,2.4,1.7,5,1.6,7.6c0.1,2.6-0.5,5.1-1.6,7.4c-1,2-2.4,3.8-4.2,5.2c-1.7,1.4-3.7,2.4-5.8,3.1c-2.1,0.7-4.2,1-6.4,1h-11.4V82.9
				L484.2,82.9z M488.9,112.1h5.8c1.9,0,3.8-0.3,5.6-0.8c1.6-0.5,3.1-1.4,4.4-2.4c1.3-1.1,2.2-2.5,2.9-4c0.7-1.7,1-3.5,1-5.3
				c0-1.9-0.3-3.7-1-5.5c-0.6-1.5-1.6-2.9-2.9-3.9c-1.3-1.1-2.8-1.9-4.4-2.4c-1.8-0.6-3.7-0.8-5.6-0.8h-5.8V112.1L488.9,112.1z"/>
		</g>
	</g>
</g>
<g>
	<path class="st0" d="M54.5,50.7c1.2,0,2.4,0.3,3.6,0.6c0.8,0.2,1.6,0.4,2.5,0.7c1.4,0.4,2,1.6,1.7,2.9c-0.3,1.2-1.5,1.9-2.9,1.6
		c-1-0.2-2-0.5-2.9-0.8c-2.3-0.7-4.3-0.2-6,1.5C39.6,68.1,28.8,78.9,18,89.7c-1.7,1.7-2.2,3.5-1.5,5.9c4,14.7,7.9,29.3,11.8,44
		c0.7,2.5,2.1,4,4.6,4.6c14.7,3.9,29.4,7.8,44,11.8c2.4,0.7,4.3,0.1,6.1-1.6c11.7-11.7,23.4-23.4,35.1-35.1c0.3-0.3,0.5-0.5,0.8-0.8
		c1-0.8,2.4-0.7,3.2,0.1c0.8,0.8,0.9,2.2,0.1,3.1c-0.2,0.3-0.4,0.5-0.7,0.7C109.6,134.2,97.8,146,86,157.8
		c-2.9,2.9-6.3,3.8-10.2,2.7c-14.9-4-29.8-8-44.7-12c-3.7-1-6.2-3.5-7.2-7.2c-4-14.9-8-29.9-12-44.9c-1-3.8-0.1-7.1,2.7-9.9
		c10.9-10.9,21.9-21.9,32.8-32.8C49.3,51.8,51.7,50.8,54.5,50.7z"/>
	<path class="st0" d="M38.8,125.3c-1.9-0.1-2.9-2-2-3.5c0.2-0.3,0.5-0.6,0.8-0.9c8.6-8.6,17.2-17.1,25.8-25.7c0.5-0.5,0.9-0.9,1.6-1
		c1-0.1,1.9,0.3,2.4,1.1c0.5,0.8,0.5,1.7-0.1,2.5c-0.2,0.3-0.5,0.6-0.7,0.8c-6.9,6.9-13.7,13.7-20.6,20.6c-1.7,1.7-3.5,3.5-5.3,5.2
		C40.2,124.9,39.6,125.4,38.8,125.3z"/>
	<path class="st0" d="M90.8,68.6c2,0,3.1,1.9,2.2,3.5c-0.2,0.4-0.6,0.7-0.9,1C87,78.3,81.8,83.4,76.7,88.6c-0.3,0.3-0.6,0.6-1,0.9
		c-0.9,0.7-2.1,0.6-2.9-0.1c-0.9-0.7-1.1-2-0.5-3c0.2-0.3,0.4-0.5,0.6-0.7c5.3-5.3,10.6-10.6,16-16C89.5,69.1,90.1,68.6,90.8,68.6z"
		/>
	<path class="st0" d="M48.6,89c-0.8-0.1-1.5-0.4-1.9-1.1c-0.5-0.8-0.5-1.6,0-2.4c0.2-0.3,0.5-0.6,0.8-0.9
		c5.1-5.2,10.3-10.3,15.4-15.5c0.8-0.8,1.5-1.3,2.7-1c1.5,0.5,2.2,2.1,1.3,3.5c-0.2,0.3-0.5,0.6-0.8,0.9
		C61,77.6,55.8,82.8,50.7,87.9C50.1,88.5,49.5,89,48.6,89z"/>
	<path class="st0" d="M96.7,40.8c0,0.7-0.2,1.2-0.6,1.7c-0.2,0.3-0.5,0.5-0.8,0.8c-5,5-10,10-15,15c-0.3,0.3-0.6,0.6-0.9,0.8
		c-1,0.7-2.3,0.6-3.1-0.2c-0.8-0.8-0.9-2.1-0.2-3c0.2-0.3,0.5-0.5,0.7-0.8C82,50,87.1,44.9,92.2,39.8c0.3-0.3,0.6-0.6,0.9-0.8
		c0.8-0.5,1.6-0.6,2.4-0.1C96.2,39.3,96.6,40,96.7,40.8z"/>
	<path class="st0" d="M74,116.6c-1.2,0-2-0.4-2.4-1.3c-0.4-0.9-0.3-1.8,0.4-2.6c1-1.1,2.1-2.2,3.1-3.2c1.9-1.9,3.8-3.8,5.7-5.6
		c1.4-1.4,2.8-2.9,4.2-4.4c0.3-0.3,0.6-0.6,0.9-0.8c0.9-0.7,2.2-0.6,3,0.2c0.8,0.8,0.9,2,0.3,3c-0.2,0.3-0.4,0.5-0.6,0.7
		c-4.3,4.4-8.7,8.8-13.1,13.2C75,116.3,74.5,116.6,74,116.6z"/>
	<path class="st0" d="M90.7,127.6c0.1,0.7-0.3,1.3-0.9,1.9c-2.5,2.5-5,5.1-7.5,7.6c-1.5,1.5-3,3.1-4.5,4.6c-0.5,0.5-1,0.8-1.7,0.9
		c-0.9,0.1-1.7-0.3-2.2-1.1c-0.5-0.8-0.5-1.7,0-2.5c0.2-0.2,0.4-0.4,0.5-0.6c3.9-4,7.8-8,11.7-12c0.3-0.3,0.5-0.5,0.8-0.7
		c0.8-0.5,1.6-0.5,2.4-0.1C90.3,126,90.7,126.7,90.7,127.6z"/>
	<path class="st0" d="M66.3,124c0,0.8-0.2,1.3-0.6,1.8c-0.8,1-1.8,2-2.7,2.9c-2.5,2.6-5,5.1-7.6,7.7c-0.1,0.1-0.3,0.3-0.4,0.4
		c-0.9,0.8-2.2,0.8-3.1,0c-0.9-0.8-1-2.2-0.2-3.2c0.5-0.6,1.1-1.1,1.6-1.7c2.7-2.8,5.4-5.6,8.2-8.5c0.4-0.4,0.8-0.8,1.2-1.2
		c0.7-0.6,1.6-0.6,2.4-0.2C65.9,122.5,66.3,123.2,66.3,124z"/>
	<path class="st0" d="M109.3,55c0,0.6-0.3,1.2-0.7,1.6c-2.4,2.4-4.8,4.8-7.2,7.2c-0.9,0.9-2.3,0.8-3.2,0c-0.9-0.9-1-2.3-0.1-3.3
		c0.7-0.8,1.5-1.5,2.3-2.3c1.5-1.5,3.1-3.1,4.6-4.6c0.6-0.6,1.2-1,2-0.9C108.3,52.7,109.3,53.7,109.3,55z"/>
	<path class="st0" d="M94.5,119.1c0-0.6,0.2-1.2,0.7-1.7c2.3-2.3,4.6-4.6,6.9-6.8c0.5-0.5,1-0.9,1.8-0.9c0.9,0,1.7,0.4,2.1,1.2
		c0.5,0.8,0.4,1.6-0.1,2.4c-0.1,0.2-0.2,0.3-0.4,0.5c-2.4,2.4-4.7,4.7-7.1,7.1c-0.7,0.7-1.6,0.9-2.6,0.4
		C94.9,120.9,94.5,120.2,94.5,119.1z"/>
	<path class="st0" d="M103.5,33.4c-1-0.1-1.7-0.5-2.1-1.4c-0.3-0.8-0.3-1.7,0.4-2.4c2.2-2.4,4.6-4.8,7-7.1c1-1,2.4-0.9,3.3,0
		c0.9,0.9,1,2.3,0,3.3c-2.3,2.4-4.6,4.6-6.9,7C104.6,33.2,104.1,33.4,103.5,33.4z"/>
	<path class="st0" d="M97.6,92.8c-1.9,0-3-1.9-2.1-3.4c0.1-0.1,0.2-0.3,0.3-0.4c2.2-2.2,4.4-4.5,6.7-6.7c0.6-0.6,1.3-0.8,2.1-0.6
		c1.6,0.4,2.3,2.2,1.4,3.5c-0.2,0.3-0.4,0.5-0.6,0.7c-1.9,1.9-3.9,3.9-5.8,5.8C98.9,92.4,98.3,92.8,97.6,92.8z"/>
	<path class="st0" d="M41.1,96.7c0,0.5-0.3,1-0.7,1.4c-2.1,2.1-4.3,4.3-6.4,6.4c-1,1-2.4,1-3.4,0c-0.9-0.9-0.9-2.3,0.1-3.4
		c2.1-2.2,4.3-4.3,6.4-6.4c0.8-0.8,1.8-0.9,2.7-0.5C40.7,94.8,41.1,95.6,41.1,96.7z"/>
	<path class="st0" d="M129.4,6.8c-1.3,0-2.3-1-2.3-2.3c0-1.3,1-2.3,2.3-2.4c1.4,0,2.4,1,2.4,2.4C131.7,5.8,130.7,6.8,129.4,6.8z"/>
	<path class="st0" d="M124.3,61.3c0-1.4,1-2.4,2.3-2.4c1.3,0,2.3,1,2.3,2.3c0,1.2-1,2.3-2.3,2.4C125.4,63.5,124.4,62.6,124.3,61.3z"
		/>
	<path class="st0" d="M116.3,47.8c-1.3,0-2.2-1-2.2-2.4c0-1.3,1-2.3,2.3-2.3c1.3,0,2.4,1.1,2.3,2.4
		C118.7,46.9,117.6,47.8,116.3,47.8z"/>
	<path class="st0" d="M121.9,14.3c0,1.2-1.1,2.4-2.3,2.4c-1.2,0-2.3-1-2.3-2.3c0-1.3,0.9-2.3,2.3-2.3C120.8,12,121.9,13,121.9,14.3z
		"/>
	<path class="st0" d="M112.1,100.8c1.3,0,2.3,1,2.3,2.3c0,1.3-1.1,2.4-2.4,2.4c-1.2,0-2.3-1.1-2.3-2.4
		C109.8,101.9,110.9,100.8,112.1,100.8z"/>
	<path class="st0" d="M113.7,72.1c1.3,0,2.3,1,2.3,2.3c0,1.3-1,2.3-2.3,2.3c-1.3,0-2.4-1.1-2.4-2.4
		C111.4,73.1,112.5,72.1,113.7,72.1z"/>
</g>
</svg>
