<svg width="501" height="153" viewBox="0 0 501 153" fill="none" xmlns="http://www.w3.org/2000/svg">
<path d="M62.0378 66.6884H49.6141V4.7198H62.0378V29.525H86.8409V4.7198H99.2591V66.6884H86.8409V41.9276H62.0378V66.6884ZM153.759 66.6884H150.902L146.313 60.3348C145.172 61.3632 143.972 62.3232 142.717 63.2097C141.471 64.0789 140.155 64.844 138.783 65.4975C137.403 66.1326 135.967 66.6388 134.494 67.0097C133.053 67.3823 131.571 67.5685 130.083 67.5637C126.933 67.5787 123.807 67.0154 120.861 65.9019C118.055 64.8419 115.493 63.2251 113.331 61.1491C111.134 58.9598 109.408 56.3452 108.259 53.466C106.969 50.1767 106.338 46.6669 106.4 43.1352C106.358 39.7471 106.99 36.3844 108.259 33.2419C109.422 30.3502 111.144 27.7152 113.325 25.4868C115.479 23.3432 118.039 21.6485 120.855 20.5014C123.776 19.2848 126.912 18.6669 130.077 18.6845C131.574 18.6827 133.065 18.8689 134.516 19.2384C135.993 19.6121 137.428 20.1336 138.8 20.795C140.181 21.4519 141.499 22.2324 142.739 23.127C143.991 24.0043 145.178 24.9707 146.291 26.0186L150.879 20.5346H153.759V66.6884ZM141.852 43.1352C141.854 41.5325 141.531 39.9459 140.903 38.471C140.324 36.9853 139.472 35.6212 138.389 34.4495C137.333 33.2737 136.054 32.3175 134.627 31.6355C133.221 30.9174 131.662 30.547 130.083 30.5553C128.515 30.5468 126.96 30.8266 125.494 31.3807C124.096 31.9139 122.827 32.7371 121.771 33.7958C120.684 34.9392 119.843 36.2928 119.301 37.7731C118.668 39.4868 118.359 41.3032 118.391 43.1296C118.362 44.972 118.671 46.8042 119.301 48.536C119.851 49.9981 120.69 51.334 121.771 52.4634C122.825 53.5299 124.094 54.3606 125.494 54.9007C126.96 55.4529 128.516 55.7308 130.083 55.7205C131.657 55.7305 133.213 55.3759 134.627 54.6847C136.042 53.9852 137.317 53.0334 138.389 51.8762C139.459 50.6971 140.31 49.3372 140.903 47.8602C141.53 46.3636 141.852 44.7574 141.852 43.1352ZM203.321 29.6136L194.659 38.2827C194.251 37.113 193.653 36.0182 192.889 35.0422C192.169 34.0938 191.306 33.2624 190.331 32.5772C189.409 31.9183 188.386 31.4132 187.302 31.0815C186.21 30.7367 185.073 30.5611 183.928 30.5608C182.344 30.554 180.777 30.8944 179.339 31.5579C177.916 32.2249 176.647 33.1815 175.616 34.3664C174.54 35.614 173.703 37.0486 173.147 38.5984C172.525 40.3459 172.219 42.1894 172.242 44.0436C172.231 45.6016 172.538 47.1455 173.147 48.5803C173.734 49.9604 174.571 51.2204 175.616 52.2972C176.704 53.3926 178.002 54.259 179.431 54.8451C180.861 55.4312 182.394 55.7251 183.939 55.7095C185.066 55.714 186.187 55.5554 187.268 55.2386C188.321 54.9267 189.327 54.4759 190.259 53.8981C191.197 53.3047 192.042 52.5768 192.767 51.7378C193.512 50.8821 194.126 49.9207 194.587 48.885L203.243 57.5707C202.152 59.1197 200.874 60.5282 199.437 61.764C198.025 62.9969 196.469 64.0552 194.804 64.9159C193.148 65.7837 191.387 66.4371 189.566 66.8602C187.726 67.3232 185.836 67.5558 183.939 67.5526C180.774 67.5727 177.637 66.9547 174.717 65.7357C171.914 64.5338 169.361 62.8206 167.187 60.6838C165.04 58.5335 163.321 55.9959 162.121 53.2057C160.871 50.3134 160.234 47.1938 160.251 44.0436C160.226 40.6426 160.857 37.2686 162.11 34.106C163.286 31.1451 165.004 28.4287 167.176 26.0961C169.31 23.8121 171.867 21.9629 174.706 20.651C177.598 19.3247 180.746 18.646 183.928 18.6623C185.842 18.6619 187.748 18.9095 189.599 19.3991C193.335 20.4116 196.765 22.3252 199.587 24.9716C201.044 26.3355 202.302 27.8983 203.321 29.6136ZM221.022 66.6884H209.12V1.99998H221.022V42.7917L238.656 20.4959H252.25L236.88 39.7672L252.25 66.6884H238.656L229.223 49.8765L220.999 60.7669L221.022 66.6884ZM307.117 41.9276C307.137 45.2524 306.475 48.546 305.169 51.6048C302.649 57.5475 297.893 62.2654 291.924 64.7441C288.875 66.0501 285.587 66.7121 282.269 66.6884C278.939 66.7092 275.639 66.0474 272.575 64.7441C266.628 62.2631 261.899 57.5423 259.414 51.6048C258.108 48.546 257.445 45.2524 257.466 41.9276V4.7198H269.851V41.9276C269.841 43.5741 270.163 45.2057 270.8 46.7246C271.444 48.1902 272.354 49.5237 273.485 50.6576C274.619 51.7884 275.955 52.6961 277.425 53.3331C278.96 53.9704 280.607 54.2944 282.269 54.2859C283.919 54.2975 285.554 53.9734 287.074 53.3331C288.561 52.7033 289.914 51.7951 291.058 50.6576C292.185 49.5292 293.082 48.1936 293.7 46.7246C294.365 45.2131 294.706 43.5788 294.698 41.9276V4.7198H307.122L307.117 41.9276ZM343.955 66.6884H331.57V17.1224H312.915V4.7198H362.566V17.1224H343.955V66.6884ZM418.864 35.7069C418.857 41.2039 417.392 46.6012 414.619 51.35C413.262 53.6249 411.636 55.7284 409.775 57.615C407.898 59.4894 405.786 61.1147 403.494 62.4508C401.16 63.8188 398.659 64.8801 396.053 65.6083C393.372 66.3447 390.604 66.7174 387.824 66.7161H369.147V4.7198H387.84C390.622 4.70504 393.391 5.07793 396.069 5.82767C401.272 7.23005 406.008 9.98878 409.791 13.8209C411.668 15.696 413.296 17.8033 414.635 20.0915C416.009 22.3988 417.058 24.8833 417.754 27.4754C418.512 30.1534 418.891 32.9241 418.88 35.7069H418.864ZM406.44 35.7069C406.441 33.2729 405.959 30.8629 405.023 28.6155C404.087 26.3681 402.715 24.3278 400.985 22.6119C399.291 20.8974 397.276 19.5328 395.054 18.5959C392.778 17.6101 390.321 17.1083 387.84 17.1224H381.653V54.2859H387.84C390.316 54.3004 392.77 53.8162 395.054 52.8622C397.267 51.927 399.281 50.5769 400.985 48.885C402.686 47.1882 404.039 45.1769 404.969 42.9634C405.959 40.6723 406.466 38.2021 406.457 35.7069H406.44ZM441.07 37.4739C441.058 39.4447 440.282 41.3344 438.906 42.7474C438.236 43.4265 437.448 43.9783 436.581 44.376C435.675 44.7485 434.703 44.9368 433.723 44.9299C432.73 44.9394 431.746 44.7511 430.827 44.376C429.938 43.9759 429.125 43.4249 428.424 42.7474C427.718 42.0657 427.161 41.245 426.788 40.3373C426.416 39.4296 426.236 38.4546 426.26 37.4739C426.257 36.5104 426.446 35.5558 426.815 34.6655C427.205 33.797 427.75 33.0067 428.424 32.3334C429.104 31.65 429.913 31.1077 430.805 30.7381C431.715 30.3291 432.703 30.1213 433.701 30.1288C435.658 30.1576 437.526 30.9534 438.9 32.3445C439.566 33.0129 440.094 33.8052 440.454 34.6766C440.863 35.5532 441.078 36.5071 441.087 37.4739H441.07ZM441.07 62.2791C441.058 64.2499 440.282 66.1396 438.906 67.5526C438.233 68.2168 437.438 68.7453 436.564 69.1091C435.666 69.5134 434.692 69.7194 433.707 69.7129C432.709 69.7222 431.721 69.5162 430.81 69.1091C429.444 68.5713 428.276 67.6282 427.463 66.4069C426.65 65.1856 426.233 63.7449 426.266 62.2791C426.259 61.3009 426.448 60.3312 426.821 59.4264C427.211 58.5662 427.755 57.7836 428.424 57.1165C429.115 56.4557 429.922 55.928 430.805 55.5599C431.715 55.1528 432.703 54.9469 433.701 54.9561C434.686 54.9497 435.661 55.1556 436.559 55.5599C437.431 55.918 438.223 56.4451 438.89 57.1106C439.556 57.7762 440.084 58.567 440.443 59.4374C440.859 60.3277 441.079 61.2968 441.087 62.2791H441.07Z" fill="#F7C45B" stroke="black" stroke-width="3" stroke-miterlimit="10"/>
<path d="M153.354 66.3395H150.541L146.019 60.08C144.897 61.0877 143.715 62.0256 142.479 62.8885C141.248 63.7465 139.949 64.5024 138.594 65.1485C137.233 65.7681 135.82 66.2667 134.372 66.6386C132.951 67.0058 131.489 67.192 130.022 67.1925C126.92 67.2108 123.842 66.6626 120.938 65.575C118.175 64.5269 115.652 62.933 113.519 60.8888C111.357 58.7273 109.658 56.149 108.526 53.3109C107.257 50.0706 106.635 46.6138 106.694 43.1352C106.655 39.7967 107.277 36.4834 108.526 33.3859C109.671 30.5299 111.367 27.9268 113.519 25.725C115.64 23.6034 118.162 21.9239 120.938 20.7839C123.815 19.5869 126.905 18.9803 130.022 19.0002C131.504 19.0001 132.98 19.1862 134.416 19.5542C135.874 19.9305 137.291 20.4519 138.644 21.1107C140.005 21.761 141.304 22.5302 142.529 23.4096C143.76 24.2771 144.928 25.2304 146.024 26.2623L150.547 20.8559H153.36L153.354 66.3395Z" fill="#E05263" stroke="black" stroke-width="3" stroke-miterlimit="10"/>
<path d="M122.237 38.3159C122.229 38.8456 122.065 39.3611 121.764 39.7978C121.464 40.2345 121.041 40.5728 120.549 40.7702C120.056 40.9676 119.517 41.0153 118.997 40.9073C118.478 40.7993 118.002 40.5404 117.629 40.1632C117.257 39.786 117.004 39.3072 116.904 38.7872C116.803 38.2671 116.858 37.7289 117.063 37.2403C117.268 36.7516 117.613 36.3343 118.055 36.0408C118.496 35.7473 119.015 35.5906 119.546 35.5906C119.902 35.5927 120.254 35.665 120.582 35.8032C120.91 35.9414 121.207 36.1429 121.457 36.396C121.707 36.6492 121.905 36.949 122.039 37.2785C122.172 37.6079 122.24 37.9605 122.237 38.3159Z" fill="white" stroke="black"/>
<path d="M118.551 40.9642C119.43 40.929 120.109 40.0474 120.067 38.995C120.024 37.9426 119.277 37.118 118.398 37.1531C117.518 37.1882 116.839 38.0698 116.882 39.1222C116.924 40.1746 117.671 40.9993 118.551 40.9642Z" fill="black"/>
<path d="M110.079 55.2497C113.048 55.9089 116.965 56.2025 120.411 54.2305C122.631 52.9675 123.829 51.2392 124.295 51.5494C124.883 51.9649 123.596 55.6264 120.966 58.1634C119.256 59.7915 117.125 60.91 114.812 61.3928" fill="white"/>
<path d="M110.079 55.2497C111.315 55.4195 112.562 55.488 113.808 55.4547C115.04 55.4999 116.272 55.3769 117.47 55.0891C118.655 54.7977 119.78 54.3069 120.8 53.6378C121.314 53.2994 121.807 52.9294 122.275 52.5299L122.986 51.9151C123.235 51.6865 123.508 51.4859 123.801 51.3168L123.957 51.2559C124.03 51.2471 124.105 51.2471 124.179 51.2559C124.263 51.2677 124.343 51.3002 124.412 51.3504C124.481 51.4007 124.536 51.4672 124.573 51.5439C124.652 51.7347 124.682 51.9422 124.661 52.1477C124.625 52.4809 124.554 52.8095 124.451 53.1282C124.252 53.7401 123.999 54.3332 123.696 54.9008C123.102 56.0367 122.356 57.086 121.476 58.0194C120.592 58.9535 119.563 59.7408 118.43 60.3515C117.271 60.8847 116.039 61.2413 114.774 61.4095C115.967 61.0472 117.108 60.5275 118.164 59.864C119.243 59.2821 120.224 58.5344 121.071 57.6483C121.928 56.7448 122.658 55.7292 123.241 54.6293C123.531 54.0988 123.77 53.5425 123.957 52.9675C124.053 52.6916 124.117 52.4053 124.145 52.1145C124.158 52.0084 124.148 51.901 124.118 51.7987C124.118 51.7987 124.118 51.7987 124.157 51.7987H124.095C123.849 51.9506 123.617 52.1249 123.402 52.3194L122.686 52.9564C122.2 53.3716 121.688 53.7563 121.155 54.1086C120.075 54.811 118.883 55.326 117.631 55.632C116.38 55.932 115.094 56.0588 113.808 56.0086C112.542 55.8864 111.292 55.632 110.079 55.2497Z" fill="black"/>
<path d="M153.354 66.3395H150.541L146.019 60.08C144.897 61.0877 143.715 62.0256 142.479 62.8885C141.248 63.7465 139.949 64.5024 138.594 65.1485C137.233 65.7681 135.82 66.2667 134.372 66.6386C132.951 67.0058 131.489 67.192 130.022 67.1925C126.92 67.2108 123.842 66.6626 120.938 65.575C118.175 64.5269 115.652 62.933 113.519 60.8888C111.357 58.7273 109.658 56.149 108.526 53.3109C107.257 50.0706 106.635 46.6138 106.694 43.1352C106.655 39.7967 107.277 36.4834 108.526 33.3859C109.671 30.5299 111.367 27.9268 113.519 25.725C115.64 23.6034 118.162 21.9239 120.938 20.7839C123.815 19.5869 126.905 18.9803 130.022 19.0002C131.504 19.0001 132.98 19.1862 134.416 19.5542C135.874 19.9305 137.291 20.4519 138.644 21.1107C140.005 21.761 141.304 22.5302 142.529 23.4096C143.76 24.2771 144.928 25.2304 146.024 26.2623L150.547 20.8559H153.36L153.354 66.3395Z" stroke="black" stroke-width="3" stroke-miterlimit="10"/>
<path d="M33.0344 149.784H20.655V100.218H2V87.821H51.6616V100.218H33.0344V149.784ZM68.7907 149.784H56.9718V85.0957H68.7907V105.536C70.0976 104.525 71.5798 103.762 73.1632 103.287C74.6479 102.83 76.1929 102.599 77.7465 102.6C80.4615 102.598 83.1498 103.135 85.6545 104.181C88.1591 105.228 90.4299 106.761 92.3342 108.693C94.2344 110.586 95.7428 112.833 96.7733 115.307C97.884 117.841 98.451 120.579 98.4379 123.345V149.79H86.4914V123.339H86.5801C86.5872 122.166 86.351 121.005 85.8865 119.927C85.4453 118.861 84.7986 117.892 83.9833 117.074C83.1753 116.268 82.2204 115.623 81.1701 115.174C80.0895 114.708 78.9235 114.473 77.7465 114.482C76.5444 114.473 75.353 114.708 74.2452 115.174C73.1761 115.613 72.2048 116.258 71.3876 117.074C70.5703 117.89 69.9234 118.86 69.4843 119.927C69.0172 121.004 68.7809 122.166 68.7907 123.339V149.784ZM125.277 138.462C125.728 138.603 126.191 138.705 126.659 138.766C127.125 138.766 127.586 138.811 128.046 138.811C129.173 138.813 130.295 138.652 131.375 138.334C132.426 138.024 133.431 137.573 134.361 136.994C135.299 136.402 136.145 135.674 136.869 134.833C137.616 133.979 138.229 133.017 138.689 131.981L147.345 140.666C146.256 142.217 144.977 143.625 143.538 144.86C142.128 146.094 140.572 147.152 138.905 148.012C137.25 148.88 135.489 149.534 133.667 149.956C131.828 150.419 129.938 150.652 128.041 150.648C124.932 150.67 121.849 150.074 118.973 148.895C116.097 147.716 113.485 145.977 111.289 143.779C109.118 141.566 107.398 138.953 106.223 136.085C104.963 132.956 104.335 129.609 104.375 126.236C104.333 122.805 104.964 119.399 106.234 116.21C107.351 113.349 109.042 110.746 111.203 108.561C113.364 106.375 115.95 104.654 118.802 103.503C121.73 102.314 124.863 101.712 128.024 101.73C129.936 101.729 131.84 101.961 133.695 102.423C137.364 103.34 140.761 105.117 143.605 107.608C145.044 108.843 146.324 110.252 147.417 111.801L125.277 138.462ZM131.337 114.133C130.8 113.935 130.241 113.804 129.672 113.745C129.119 113.688 128.563 113.66 128.007 113.662C126.433 113.653 124.872 113.96 123.419 114.565C122.016 115.134 120.748 115.988 119.695 117.074C118.622 118.225 117.785 119.574 117.232 121.046C116.6 122.702 116.291 124.464 116.322 126.236C116.322 126.668 116.322 127.156 116.366 127.704C116.41 128.253 116.494 128.812 116.582 129.366C116.671 129.92 116.827 130.446 116.971 130.967C117.1 131.447 117.286 131.91 117.526 132.346L131.337 114.133ZM226.953 87.821L206.567 149.784H194.143L173.84 87.821H187.951L200.33 129.172L212.754 87.821H226.953ZM245.348 149.784H232.924V87.821H245.348V149.784ZM269.329 149.784H256.906V87.821H269.329V149.784ZM302.095 106.417C302.082 103.941 302.583 101.489 303.565 99.2155C305.478 94.7706 309.028 91.229 313.481 89.3222C315.757 88.3383 318.214 87.8384 320.695 87.8543H349.188V100.251H320.711C319.879 100.245 319.054 100.407 318.286 100.728C317.542 101.042 316.865 101.497 316.294 102.068C315.739 102.626 315.298 103.286 314.996 104.013C314.675 104.779 314.513 105.602 314.519 106.433C314.477 107.662 314.816 108.873 315.491 109.901C316.165 110.93 317.142 111.725 318.286 112.178C319.053 112.501 319.879 112.663 320.711 112.654H333.129C336.202 112.648 339.227 113.403 341.936 114.851C344.644 116.299 346.95 118.395 348.648 120.951C350.347 123.507 351.384 126.443 351.667 129.497C351.949 132.551 351.469 135.627 350.27 138.451C349.343 140.652 347.995 142.652 346.302 144.339C344.598 146.031 342.584 147.381 340.371 148.316C338.094 149.3 335.638 149.8 333.157 149.784H305.557V137.382H333.129C333.939 137.388 334.742 137.234 335.493 136.93C336.243 136.626 336.926 136.177 337.502 135.609C338.373 134.729 338.965 133.613 339.203 132.399C339.442 131.185 339.317 129.928 338.845 128.784C338.188 127.324 337.017 126.155 335.554 125.5C334.786 125.179 333.962 125.017 333.129 125.023H320.711C318.231 125.039 315.774 124.539 313.498 123.555C309.021 121.681 305.459 118.129 303.577 113.662C302.593 111.373 302.089 108.907 302.095 106.417ZM377.109 138.478C377.562 138.62 378.026 138.722 378.496 138.783C378.957 138.783 379.417 138.827 379.878 138.827C381.005 138.829 382.126 138.669 383.207 138.351C384.259 138.041 385.263 137.59 386.192 137.01C387.133 136.419 387.98 135.691 388.706 134.85C389.449 133.994 390.061 133.033 390.52 131.997L399.177 140.683C398.087 142.233 396.809 143.642 395.37 144.876C393.959 146.11 392.403 147.169 390.737 148.028C389.081 148.897 387.321 149.55 385.499 149.972C383.659 150.436 381.769 150.669 379.872 150.665C376.763 150.686 373.681 150.089 370.805 148.91C367.93 147.731 365.317 145.992 363.121 143.796C360.95 141.583 359.231 138.97 358.06 136.102C356.792 132.975 356.158 129.627 356.196 126.253C356.152 122.821 356.786 119.414 358.06 116.227C359.178 113.362 360.872 110.756 363.039 108.57C365.205 106.384 367.798 104.666 370.656 103.52C373.582 102.331 376.713 101.729 379.872 101.747C385.609 101.76 391.146 103.848 395.459 107.624C396.896 108.86 398.174 110.268 399.265 111.817L377.109 138.478ZM383.168 114.15C382.632 113.951 382.073 113.821 381.504 113.762C380.951 113.704 380.395 113.677 379.839 113.679C378.264 113.67 376.704 113.977 375.25 114.582C373.85 115.151 372.583 116.005 371.532 117.091C370.456 118.24 369.617 119.59 369.063 121.063C368.434 122.72 368.126 124.481 368.153 126.253C368.153 126.685 368.153 127.173 368.198 127.721C368.242 128.269 368.325 128.829 368.414 129.383C368.503 129.937 368.658 130.463 368.802 130.984C368.932 131.464 369.118 131.927 369.357 132.363L383.168 114.15ZM449.787 149.784H446.929L442.341 143.431C441.2 144.457 439.999 145.415 438.745 146.3C437.496 147.17 436.179 147.937 434.805 148.593C433.425 149.223 431.992 149.729 430.522 150.105C429.081 150.475 427.598 150.661 426.11 150.659C422.961 150.672 419.835 150.109 416.888 148.998C414.083 147.934 411.522 146.316 409.359 144.239C407.163 142.048 405.439 139.431 404.293 136.551C403.003 133.263 402.372 129.755 402.434 126.225C402.391 122.835 403.023 119.471 404.293 116.326C405.455 113.435 407.177 110.8 409.359 108.571C411.51 106.418 414.07 104.714 416.888 103.558C419.809 102.342 422.945 101.724 426.11 101.741C427.607 101.74 429.099 101.926 430.549 102.295C432.025 102.672 433.46 103.193 434.833 103.852C436.214 104.509 437.533 105.289 438.773 106.184C440.026 107.061 441.213 108.03 442.324 109.081L446.913 103.592H449.77L449.787 149.784ZM437.857 126.236C437.86 124.632 437.537 123.043 436.908 121.567C436.33 120.082 435.478 118.72 434.395 117.551C433.345 116.369 432.07 115.408 430.644 114.726C429.237 114.008 427.679 113.637 426.099 113.645C424.532 113.635 422.977 113.913 421.51 114.465C420.111 114.999 418.842 115.824 417.787 116.886C416.699 118.026 415.859 119.378 415.318 120.858C414.684 122.573 414.376 124.392 414.408 126.22C414.379 128.06 414.687 129.891 415.318 131.621C415.868 133.084 416.708 134.421 417.787 135.554C418.843 136.612 420.112 137.435 421.51 137.969C422.976 138.523 424.532 138.803 426.099 138.794C427.673 138.807 429.229 138.457 430.644 137.769C432.059 137.07 433.334 136.118 434.406 134.961C435.476 133.782 436.327 132.422 436.919 130.945C437.541 129.453 437.859 127.852 437.857 126.236ZM484.262 149.784H457.278V138.03H484.289C485.068 138.025 485.813 137.715 486.364 137.165C486.915 136.615 487.226 135.871 487.23 135.094C487.277 134.761 487.219 134.422 487.064 134.125C486.909 133.827 486.664 133.584 486.365 133.432C485.708 133.157 485.001 133.024 484.289 133.044H471.988C470.011 133.066 468.051 132.676 466.234 131.898C464.489 131.151 462.902 130.082 461.556 128.746C460.223 127.383 459.153 125.787 458.399 124.037C456.897 120.353 456.897 116.228 458.399 112.543C459.145 110.801 460.217 109.216 461.556 107.873C462.898 106.542 464.487 105.485 466.234 104.76C468.05 103.979 470.01 103.583 471.988 103.597H495.925V115.352H471.988C471.209 115.356 470.464 115.667 469.913 116.216C469.362 116.766 469.051 117.51 469.047 118.287C469.041 118.687 469.114 119.083 469.263 119.454C469.411 119.825 469.632 120.163 469.912 120.448C470.181 120.725 470.504 120.945 470.861 121.094C471.217 121.243 471.601 121.317 471.988 121.312H484.284C486.237 121.301 488.176 121.654 489.999 122.353C491.725 122.976 493.313 123.93 494.671 125.162C496.009 126.386 497.083 127.869 497.828 129.521C498.621 131.273 499.02 133.177 498.999 135.099C499.014 137.075 498.616 139.031 497.828 140.844C497.066 142.577 495.996 144.159 494.671 145.513C493.328 146.85 491.742 147.919 489.999 148.665C488.188 149.416 486.245 149.796 484.284 149.784H484.262Z" fill="#F7C45B" stroke="black" stroke-width="3" stroke-miterlimit="10"/>
<path d="M449.437 149.479H446.619L442.102 143.22C440.98 144.226 439.797 145.164 438.562 146.028C437.33 146.885 436.031 147.641 434.678 148.289C433.317 148.909 431.904 149.408 430.455 149.779C429.034 150.146 427.573 150.332 426.105 150.333C423.005 150.35 419.929 149.802 417.027 148.715C414.261 147.668 411.736 146.074 409.603 144.029C407.438 141.869 405.739 139.29 404.609 136.451C403.34 133.211 402.718 129.754 402.778 126.275C402.738 122.937 403.361 119.623 404.609 116.526C405.752 113.669 407.449 111.065 409.603 108.865C411.724 106.742 414.248 105.062 417.027 103.924C419.902 102.727 422.99 102.121 426.105 102.14C427.587 102.139 429.064 102.326 430.499 102.694C431.955 103.062 433.369 103.574 434.722 104.223C436.083 104.872 437.383 105.641 438.606 106.522C439.84 107.388 441.01 108.341 442.107 109.375L446.624 103.968H449.443L449.437 149.479Z" fill="#E05263" stroke="black" stroke-width="3" stroke-miterlimit="10"/>
<path d="M418.32 121.456C418.313 121.987 418.15 122.504 417.849 122.942C417.549 123.381 417.126 123.721 416.632 123.919C416.139 124.118 415.598 124.167 415.077 124.059C414.556 123.951 414.079 123.692 413.705 123.315C413.331 122.937 413.078 122.457 412.976 121.936C412.875 121.414 412.93 120.875 413.135 120.385C413.34 119.895 413.686 119.476 414.129 119.182C414.571 118.888 415.091 118.731 415.623 118.731C415.98 118.732 416.333 118.804 416.661 118.942C416.99 119.08 417.288 119.281 417.539 119.534C417.789 119.787 417.987 120.087 418.121 120.417C418.255 120.747 418.323 121.1 418.32 121.456Z" fill="white" stroke="black"/>
<path d="M414.673 123.62C415.551 123.581 416.226 122.698 416.18 121.646C416.133 120.595 415.384 119.774 414.505 119.812C413.626 119.851 412.951 120.735 412.998 121.786C413.044 122.837 413.794 123.658 414.673 123.62Z" fill="black"/>
<path d="M406.157 138.39C409.126 139.049 413.049 139.342 416.489 137.37C418.708 136.108 419.907 134.379 420.373 134.689C420.961 135.105 419.668 138.766 417.044 141.303C415.333 142.93 413.202 144.048 410.89 144.533" fill="white"/>
<path d="M406.157 138.39C407.396 138.561 408.647 138.632 409.897 138.6C411.127 138.646 412.357 138.523 413.553 138.235C414.738 137.943 415.863 137.452 416.883 136.783C417.396 136.444 417.889 136.074 418.359 135.675L419.069 135.061C419.318 134.832 419.592 134.631 419.885 134.462L420.04 134.401C420.112 134.393 420.185 134.393 420.256 134.401C420.342 134.413 420.423 134.445 420.492 134.495C420.562 134.546 420.618 134.612 420.656 134.689C420.736 134.88 420.765 135.088 420.739 135.293C420.708 135.627 420.637 135.956 420.528 136.274C420.331 136.885 420.081 137.479 419.779 138.046C419.185 139.182 418.439 140.231 417.56 141.165C416.685 142.088 415.67 142.867 414.552 143.475C413.395 144.007 412.164 144.364 410.901 144.533C412.095 144.169 413.235 143.65 414.291 142.987C415.37 142.407 416.35 141.659 417.193 140.772C418.037 139.874 418.753 138.866 419.324 137.775C419.609 137.242 419.849 136.686 420.04 136.113C420.132 135.836 420.194 135.55 420.223 135.26C420.244 135.156 420.244 135.048 420.223 134.944C420.223 134.944 420.223 134.972 420.262 134.944H420.201C419.953 135.095 419.721 135.269 419.507 135.465L418.792 136.08C418.306 136.496 417.795 136.881 417.26 137.232C416.181 137.936 414.989 138.451 413.737 138.755C412.491 139.056 411.21 139.185 409.93 139.137C408.65 139.022 407.385 138.771 406.157 138.39Z" fill="black"/>
<path d="M449.437 149.479H446.619L442.102 143.22C440.98 144.226 439.797 145.164 438.562 146.028C437.33 146.885 436.031 147.641 434.678 148.289C433.317 148.909 431.904 149.408 430.455 149.779C429.034 150.146 427.573 150.332 426.105 150.333C423.005 150.35 419.929 149.802 417.027 148.715C414.261 147.668 411.736 146.074 409.603 144.029C407.438 141.869 405.739 139.29 404.609 136.451C403.34 133.211 402.718 129.754 402.778 126.275C402.738 122.937 403.361 119.623 404.609 116.526C405.752 113.669 407.449 111.065 409.603 108.865C411.724 106.742 414.248 105.062 417.027 103.924C419.902 102.727 422.99 102.121 426.105 102.14C427.587 102.139 429.064 102.326 430.499 102.694C431.955 103.062 433.369 103.574 434.722 104.223C436.083 104.872 437.383 105.641 438.606 106.522C439.84 107.388 441.01 108.341 442.107 109.375L446.624 103.968H449.443L449.437 149.479Z" stroke="black" stroke-width="3" stroke-miterlimit="10"/>
</svg>
