<svg width="835" height="1088" viewBox="0 0 835 1088" fill="none" xmlns="http://www.w3.org/2000/svg">
<path d="M322 384.519L272.5 367.519L23 628.019L110.5 968.519L462 1065.52L713 811.019" stroke="#444444" stroke-width="40" stroke-linecap="round"/>
<circle cx="354.371" cy="489.471" r="20" fill="#444444"/>
<circle cx="421.09" cy="769.734" r="20" fill="#444444"/>
<circle cx="481.482" cy="882.912" r="20" fill="#444444"/>
<circle cx="546.539" cy="817.859" r="20" fill="#444444"/>
<circle cx="611.588" cy="752.803" r="20" fill="#444444"/>
<circle cx="676.645" cy="687.751" r="20" fill="#444444"/>
<circle cx="397.506" cy="446.337" r="20" fill="#444444"/>
<circle cx="501.953" cy="513.129" r="20" fill="#444444"/>
<circle cx="609.889" cy="580.937" r="20" fill="#444444"/>
<circle cx="653.729" cy="537.096" r="20" fill="#444444"/>
<circle cx="604.457" cy="239.384" r="20" fill="#444444"/>
<circle cx="647.592" cy="196.251" r="20" fill="#444444"/>
<line x1="814.242" y1="28.2843" x2="684.135" y2="158.392" stroke="#444444" stroke-width="40" stroke-linecap="round"/>
<line x1="785.25" y1="231.224" x2="546.955" y2="469.519" stroke="#444444" stroke-width="40" stroke-linecap="round"/>
<line x1="455.031" y1="561.442" x2="216.736" y2="799.737" stroke="#444444" stroke-width="40" stroke-linecap="round"/>
<line x1="564.633" y1="277.893" x2="434.525" y2="408.001" stroke="#444444" stroke-width="40" stroke-linecap="round"/>
<line x1="801.514" y1="388.908" x2="692.619" y2="497.803" stroke="#444444" stroke-width="40" stroke-linecap="round"/>
<line x1="570.289" y1="620.133" x2="461.395" y2="729.027" stroke="#444444" stroke-width="40" stroke-linecap="round"/>
<line x1="380.078" y1="810.344" x2="271.184" y2="919.239" stroke="#444444" stroke-width="40" stroke-linecap="round"/>
<line x1="315.023" y1="527.502" x2="184.916" y2="657.61" stroke="#444444" stroke-width="40" stroke-linecap="round"/>
</svg>
