<svg width="5602" height="2780" viewBox="0 0 5602 2780" fill="none" xmlns="http://www.w3.org/2000/svg">
<path d="M1525.54 509.637L1552.32 439.369L1579.1 509.637H1525.54ZM1580.12 399.537H1524.52L1446.64 589.915H1494.88L1512.66 543.546H1591.98L1609.76 589.915H1658L1580.12 399.537ZM1187.65 556.823C1156.17 556.823 1130.82 528.43 1130.82 493.5C1130.82 458.57 1156.17 430.177 1187.65 430.177C1218.93 430.177 1244.48 458.57 1244.48 493.5C1244.48 528.43 1218.93 556.823 1187.65 556.823ZM1187.65 393C1132.05 393 1086.88 437.939 1086.88 493.5C1086.88 549.061 1132.05 594 1187.65 594C1243.25 594 1288.22 549.061 1288.22 493.5C1288.22 437.939 1243.25 393 1187.65 393ZM790.275 556.823C759.001 556.823 733.449 528.43 733.449 493.5C733.449 458.57 758.796 430.177 790.275 430.177C821.755 430.177 847.102 458.57 847.102 493.5C847.306 528.43 821.755 556.823 790.275 556.823ZM790.275 393C734.676 393 689.705 437.939 689.705 493.5C689.705 549.061 734.676 594 790.275 594C845.875 594 890.846 549.061 890.846 493.5C891.05 437.939 845.875 393 790.275 393ZM1039.25 399.537L989.985 476.546L940.518 399.537H892.276L968.726 519.034V590.119H1011.24V519.034L1087.69 399.537H1039.25ZM1456.86 399.537H1293.94V436.101H1354.25V589.915H1396.76V436.101H1456.86V399.537ZM518 435.896H578.301V589.71H620.819V435.896H680.916V399.537H518V435.896Z" fill="white"/>
<path d="M1753.37 590H1795.33V515.756H1826C1866.08 515.756 1896.48 502.037 1896.48 457.383C1896.48 412.191 1863.66 399.548 1824.12 399.548H1753.37V590ZM1795.33 435.056H1816.85C1832.99 435.056 1852.9 437.746 1852.9 457.383C1852.9 475.137 1838.1 480.248 1823.31 480.248H1795.33V435.056ZM1922.81 590H1964.77V513.873H1985.48L2025.3 590H2075.6L2027.18 509.569C2054.08 504.727 2068.34 484.014 2068.34 457.383C2068.34 412.998 2035.52 399.548 1996.51 399.548H1922.81V590ZM1964.77 435.056H1992.21C2007.54 435.056 2024.76 438.015 2024.76 457.114C2024.76 477.827 2004.85 478.365 1989.52 478.365H1964.77V435.056ZM2098.85 590H2233.08V551.264H2140.81V512.528H2223.4V473.792H2140.81V438.284H2228.24V399.548H2098.85V590ZM2389.61 414.612C2373.47 400.355 2352.75 394.706 2331.23 394.706C2293.84 394.706 2258.6 415.957 2258.6 456.576C2258.6 520.06 2347.91 501.23 2347.91 536.2C2347.91 549.65 2332.58 556.106 2318.86 556.106C2304.87 556.106 2290.88 549.381 2282.28 538.083L2252.42 570.901C2270.44 587.579 2291.96 594.842 2316.44 594.842C2355.71 594.842 2389.88 574.667 2389.88 532.165C2389.88 465.453 2302.18 487.78 2302.18 453.079C2302.18 438.822 2318.59 433.442 2330.43 433.442C2340.65 433.442 2354.1 437.477 2360.82 446.085L2389.61 414.612ZM2422.75 590H2556.98V551.264H2464.72V512.528H2547.3V473.792H2464.72V438.284H2552.14V399.548H2422.75V590ZM2590.58 590H2632.54V454.424H2633.08L2716.2 590H2771.08V399.548H2729.11V531.896H2728.57L2647.61 399.548H2590.58V590ZM2846.78 590H2888.75V436.67H2943.08V399.548H2792.44V436.67H2846.78V590ZM3087.33 414.612C3071.19 400.355 3050.47 394.706 3028.95 394.706C2991.56 394.706 2956.32 415.957 2956.32 456.576C2956.32 520.06 3045.63 501.23 3045.63 536.2C3045.63 549.65 3030.3 556.106 3016.58 556.106C3002.59 556.106 2988.6 549.381 2980 538.083L2950.14 570.901C2968.16 587.579 2989.68 594.842 3014.16 594.842C3053.43 594.842 3087.6 574.667 3087.6 532.165C3087.6 465.453 2999.9 487.78 2999.9 453.079C2999.9 438.822 3016.31 433.442 3028.15 433.442C3038.37 433.442 3051.82 437.477 3058.54 446.085L3087.33 414.612Z" fill="white"/>
<g filter="url(#filter0_d_892_141)">
<path d="M391.55 746.375V1353.88H497.75V1100.07H808.25V1353.88H915.35V746.375H808.25V993.875H497.75V746.375H391.55ZM1279.06 865.175C1285.36 850.775 1295.26 844.475 1309.66 844.475C1324.06 844.475 1333.96 850.775 1339.36 865.175L1523.86 1353.88H1641.76L1436.56 813.875C1414.96 757.175 1373.56 735.575 1310.56 735.575C1246.66 735.575 1205.26 757.175 1182.76 813.875L969.455 1353.88H1086.46L1279.06 865.175ZM1912.76 746.375C1736.36 746.375 1638.26 846.275 1638.26 1050.57C1638.26 1253.97 1735.46 1353.88 1912.76 1353.88H2147.66V1247.67H1912.76C1794.86 1247.67 1744.46 1189.17 1744.46 1050.57C1744.46 911.075 1795.76 852.575 1912.76 852.575H2147.66V746.375H1912.76ZM2238.24 746.375V1353.88H2344.44V1100.07H2402.94C2517.24 1100.07 2538.84 1109.07 2572.14 1173.87L2664.84 1353.88H2783.64L2685.54 1163.07C2649.54 1092.87 2621.64 1061.37 2564.94 1046.07C2614.44 1024.47 2643.24 989.375 2670.24 935.375L2765.64 746.375H2651.34L2558.64 928.175C2524.44 994.775 2507.34 1003.77 2402.94 1003.77H2344.44V746.375H2238.24ZM2817.37 746.375V1160.37C2817.37 1288.17 2883.97 1353.88 3013.57 1353.88H3141.37C3270.97 1353.88 3338.47 1288.17 3338.47 1160.37V746.375H3234.07V1152.27C3234.07 1212.57 3202.57 1247.67 3134.17 1247.67H3026.17C2955.97 1247.67 2925.37 1212.57 2925.37 1152.27V746.375H2817.37ZM3397.35 746.375V852.575H3574.65V1353.88H3681.75V852.575H3859.05V746.375H3397.35ZM3973.61 746.375C3939.41 746.375 3923.21 762.575 3923.21 795.875V1304.37C3923.21 1337.67 3939.41 1353.88 3973.61 1353.88H4187.81C4366.01 1353.88 4461.41 1254.87 4461.41 1050.57C4461.41 845.375 4365.11 746.375 4187.81 746.375H3973.61ZM4029.41 863.375C4029.41 855.275 4033.01 852.575 4041.11 852.575H4187.81C4305.71 852.575 4355.21 911.075 4355.21 1049.67C4355.21 1189.17 4305.71 1247.67 4187.81 1247.67H4041.11C4033.01 1247.67 4029.41 1244.97 4029.41 1236.87V863.375ZM4754.72 746.375V1353.88H4860.92V746.375H4754.72ZM4940.35 746.375L5186.95 1037.07L4915.15 1353.88H5046.55L5253.55 1112.67L5455.15 1353.88H5584.75L5322.85 1045.17L5582.95 746.375H5451.55L5256.25 970.475L5069.95 746.375H4940.35Z" fill="url(#paint0_linear_892_141)"/>
</g>
<path d="M5323.54 1832.35C5323.54 1709.38 5426.03 1678.63 5477.27 1678.63C5350.56 1678.63 5323.54 1575.37 5323.54 1524.91C5323.54 1649.13 5221.06 1679.15 5169.82 1678.63C5283.17 1679.78 5323.54 1780.34 5323.54 1832.35Z" fill="white" stroke="white" stroke-linejoin="round"/>
<path d="M193.08 667.167C193.08 567.9 275.803 543.084 317.164 543.084C214.889 543.084 193.08 459.735 193.08 419C193.08 519.27 110.358 543.502 68.9966 543.084C160.493 544.008 193.08 625.18 193.08 667.167Z" fill="white"/>
<path d="M3788.97 299.308C4326.41 213.194 5704.42 11.4089 5384.76 681.866C5795.92 242.41 5232.33 -47.0741 3788.97 299.308Z" fill="white" stroke="white"/>
<path d="M3972.35 205.469L4005.34 332.015C3848.77 408.713 3621.14 424.258 3443.83 461.748C3373.34 469.49 3306.47 462.588 3262.1 464.131C3298.97 440.295 3354.38 405.845 3421.85 377.437C3598.18 317.995 3815.11 229.864 3972.35 205.469Z" fill="white"/>
<rect x="3953.6" y="333.648" width="110.126" height="64.2402" transform="rotate(-104.612 3953.6 333.648)" fill="white"/>
<rect x="3989.78" y="308.711" width="80.9046" height="64.2402" transform="rotate(-104.612 3989.78 308.711)" fill="white"/>
<path d="M3878.17 460.445L3780.88 362.291L3909.64 329.165L4090.6 476.469L3878.17 460.445Z" fill="white"/>
<path d="M3795.07 173.171L3767.36 310.482L3894.85 266.815L3966.04 41.2788L3795.07 173.171Z" fill="white"/>
<path d="M335.266 1834.91C-66.2953 2222.86 -727.05 3381.48 2663.61 2382.8C1531.61 2628.07 -581.422 3130.93 335.266 1834.91Z" fill="white" stroke="white"/>
<path d="M2615.5 2561.74C2615.5 2424.04 2730.24 2389.62 2787.62 2389.62C2645.75 2389.62 2615.5 2274 2615.5 2217.5C2615.5 2356.58 2500.75 2390.2 2443.37 2389.62C2570.29 2390.9 2615.5 2503.5 2615.5 2561.74Z" fill="white" stroke="white" stroke-linejoin="round"/>
<path d="M3796.95 2106.3C3759.42 2106.3 3727.81 2099.36 3702.11 2085.48C3676.93 2071.09 3658.68 2051.3 3647.37 2026.11C3636.58 2000.41 3633.75 1970.6 3638.89 1936.68L3676.67 1697.67C3682.32 1663.74 3694.66 1634.19 3713.68 1609C3732.7 1583.3 3757.11 1563.51 3786.92 1549.63C3817.25 1535.24 3851.17 1528.05 3888.69 1528.05C3926.73 1528.05 3958.34 1535.24 3983.53 1549.63C4009.23 1563.51 4027.47 1583.3 4038.27 1609C4049.58 1634.19 4052.4 1663.74 4046.75 1697.67L4008.97 1936.68C4003.83 1970.6 3991.49 2000.41 3971.96 2026.11C3952.94 2051.3 3928.53 2071.09 3898.72 2085.48C3868.91 2099.36 3834.98 2106.3 3796.95 2106.3ZM3813.14 2006.07C3836.27 2006.07 3854.51 2000.15 3867.88 1988.33C3881.24 1976 3889.72 1958.78 3893.32 1936.68L3931.1 1697.67C3935.21 1675.05 3932.38 1657.83 3922.62 1646.01C3913.37 1634.19 3896.92 1628.28 3873.27 1628.28C3849.63 1628.28 3831.13 1634.19 3817.76 1646.01C3804.91 1657.83 3796.43 1675.05 3792.32 1697.67L3754.54 1936.68C3750.94 1958.78 3754.03 1976 3763.79 1988.33C3773.56 2000.15 3790.01 2006.07 3813.14 2006.07ZM4259.24 2106.3C4202.19 2106.3 4159.53 2090.88 4131.26 2060.04C4103.5 2029.2 4093.74 1987.05 4101.96 1933.59L4165.18 1535.76H4280.83L4217.61 1932.82C4214.01 1956.46 4217.1 1974.71 4226.86 1987.56C4237.14 1999.9 4253.33 2006.07 4275.44 2006.07C4297.02 2006.07 4315.01 1999.9 4329.41 1987.56C4343.8 1974.71 4352.79 1956.46 4356.39 1932.82L4419.61 1535.76H4535.26L4472.04 1933.59C4466.39 1969.06 4454.05 1999.9 4435.03 2026.11C4416.01 2051.81 4391.34 2071.6 4361.02 2085.48C4331.2 2099.36 4297.28 2106.3 4259.24 2106.3ZM4665.26 2098.59L4736.96 1643.7H4594.33L4612.06 1535.76H5012.98L4995.25 1643.7H4852.61L4780.91 2098.59H4665.26Z" fill="url(#paint1_linear_892_141)"/>
<path d="M4280.54 1535.73L4232.52 1474.76L4196.51 1625.09L4259.51 1668.59L4280.54 1535.73Z" fill="url(#paint2_linear_892_141)"/>
<path d="M4535 1535.73L4486.97 1474.76L4450.96 1625.09L4513.96 1668.59L4535 1535.73Z" fill="url(#paint3_linear_892_141)"/>
<path d="M3588.08 1905.8C3588.08 2029.3 3690.46 2095.33 3760.13 2103.84L3635.51 1949.59L3588.08 1905.8Z" fill="url(#paint4_linear_892_141)"/>
<path d="M4050.8 1905.8C4050.8 2029.3 4153.18 2095.33 4222.85 2103.84L4098.23 1949.59L4050.8 1905.8Z" fill="url(#paint5_linear_892_141)"/>
<path d="M4049.15 1670.41C4049.15 1546.07 3946.07 1481.46 3896.01 1475.59L4001.39 1625.1L4049.15 1670.41Z" fill="url(#paint6_linear_892_141)"/>
<path d="M3748.95 2045.3C3711.42 2045.3 3679.81 2038.36 3654.11 2024.48C3628.93 2010.09 3610.68 1990.3 3599.37 1965.11C3588.58 1939.41 3585.75 1909.6 3590.89 1875.68L3628.67 1636.67C3634.32 1602.74 3646.66 1573.19 3665.68 1548C3684.7 1522.3 3709.11 1502.51 3738.92 1488.63C3769.25 1474.24 3803.17 1467.05 3840.69 1467.05C3878.73 1467.05 3910.34 1474.24 3935.53 1488.63C3961.23 1502.51 3979.47 1522.3 3990.27 1548C4001.58 1573.19 4004.4 1602.74 3998.75 1636.67L3960.97 1875.68C3955.83 1909.6 3943.49 1939.41 3923.96 1965.11C3904.94 1990.3 3880.53 2010.09 3850.72 2024.48C3820.91 2038.36 3786.98 2045.3 3748.95 2045.3ZM3765.14 1945.07C3788.27 1945.07 3806.51 1939.15 3819.88 1927.33C3833.24 1915 3841.72 1897.78 3845.32 1875.68L3883.1 1636.67C3887.21 1614.05 3884.38 1596.83 3874.62 1585.01C3865.37 1573.19 3848.92 1567.28 3825.27 1567.28C3801.63 1567.28 3783.13 1573.19 3769.76 1585.01C3756.91 1596.83 3748.43 1614.05 3744.32 1636.67L3706.54 1875.68C3702.94 1897.78 3706.03 1915 3715.79 1927.33C3725.56 1939.15 3742.01 1945.07 3765.14 1945.07ZM4211.24 2045.3C4154.19 2045.3 4111.53 2029.88 4083.26 1999.04C4055.5 1968.2 4045.74 1926.05 4053.96 1872.59L4117.18 1474.76H4232.83L4169.61 1871.82C4166.01 1895.46 4169.1 1913.71 4178.86 1926.56C4189.14 1938.9 4205.33 1945.07 4227.44 1945.07C4249.02 1945.07 4267.01 1938.9 4281.41 1926.56C4295.8 1913.71 4304.79 1895.46 4308.39 1871.82L4371.61 1474.76H4487.26L4424.04 1872.59C4418.39 1908.06 4406.05 1938.9 4387.03 1965.11C4368.01 1990.81 4343.34 2010.6 4313.02 2024.48C4283.2 2038.36 4249.28 2045.3 4211.24 2045.3ZM4617.26 2037.59L4688.96 1582.7H4546.33L4564.06 1474.76H4964.98L4947.25 1582.7H4804.61L4732.91 2037.59H4617.26Z" fill="url(#paint7_linear_892_141)"/>
<path d="M4852.17 1643.69L4804.17 1582.7L4874.47 1582.7L4919.66 1643.69H4852.17Z" fill="url(#paint8_linear_892_141)"/>
<path d="M4594.14 1643.69L4546.14 1582.7L4616.44 1582.7L4661.62 1643.69H4594.14Z" fill="url(#paint9_linear_892_141)"/>
<path d="M4664.94 2098.58L4616.93 2037.59L4732.54 2037.59L4780.53 2098.58H4664.94Z" fill="url(#paint10_linear_892_141)"/>
<path d="M5013.01 1535.59L4964.51 1474.59L4947.01 1582.59L4995.01 1643.59L5013.01 1535.59Z" fill="url(#paint11_linear_892_141)"/>
<path d="M901.74 2106.3C842.63 2106.3 797.655 2091.65 766.815 2062.35C735.975 2033.05 724.667 1993.73 732.891 1944.39H848.541C845.457 1963.4 850.34 1978.57 863.19 1989.87C876.04 2000.67 895.058 2006.07 920.244 2006.07C944.402 2006.07 964.191 2000.67 979.611 1989.87C995.031 1979.08 1004.28 1964.17 1007.37 1945.16C1009.94 1927.68 1007.11 1912.77 998.886 1900.44C991.176 1888.1 978.583 1879.88 961.107 1875.77L906.366 1862.66C860.106 1851.35 825.925 1830.53 803.823 1800.21C781.721 1769.88 774.011 1733.39 780.693 1690.73C785.833 1657.83 797.912 1629.3 816.93 1605.15C835.948 1580.47 860.363 1561.46 890.175 1548.09C919.987 1534.73 953.911 1528.05 991.947 1528.05C1049.52 1528.05 1092.95 1542.44 1122.25 1571.22C1151.54 1599.49 1162.34 1637.78 1154.63 1686.1H1038.98C1041.55 1668.11 1037.44 1653.98 1026.64 1643.7C1015.85 1633.42 998.629 1628.28 974.985 1628.28C952.883 1628.28 934.893 1633.42 921.015 1643.7C907.651 1653.46 899.684 1667.6 897.114 1686.1C894.03 1703.58 896.086 1718.48 903.282 1730.82C910.478 1742.64 922.3 1750.61 938.748 1754.72L996.573 1768.6C1043.86 1779.91 1078.56 1800.47 1100.66 1830.28C1122.76 1859.58 1130.47 1896.07 1123.79 1939.76C1118.13 1973.68 1105.28 2003.24 1085.24 2028.42C1065.19 2053.1 1039.49 2072.37 1008.14 2086.25C977.298 2099.61 941.832 2106.3 901.74 2106.3ZM1185.17 2098.59L1274.6 1535.76H1466.58C1506.16 1535.76 1539.31 1543.21 1566.04 1558.11C1593.28 1573.02 1612.82 1593.84 1624.64 1620.57C1636.97 1647.29 1640.31 1678.65 1634.66 1714.63C1629.01 1750.09 1615.9 1781.45 1595.34 1808.69C1574.78 1835.42 1548.57 1856.23 1516.7 1871.14C1484.83 1886.05 1449.11 1893.5 1409.53 1893.5H1333.2L1300.82 2098.59H1185.17ZM1350.16 1789.41H1426.49C1451.16 1789.41 1471.72 1782.73 1488.17 1769.37C1505.13 1755.49 1515.41 1737.24 1519.01 1714.63C1522.61 1692.01 1517.98 1674.02 1505.13 1660.66C1492.8 1646.78 1474.29 1639.84 1449.62 1639.84H1373.29L1350.16 1789.41ZM1615.85 2098.59L1843.3 1535.76H1989.79L2039.9 2098.59H1925.03L1918.09 1971.37H1783.93L1736.9 2098.59H1615.85ZM1817.86 1878.85H1912.69L1907.29 1743.15C1906.78 1723.62 1905.75 1704.35 1904.21 1685.33C1903.18 1665.8 1902.41 1650.63 1901.9 1639.84C1898.3 1650.63 1893.41 1665.54 1887.25 1684.56C1881.59 1703.58 1875.17 1722.85 1867.97 1742.38L1817.86 1878.85ZM2291.72 2106.3C2254.2 2106.3 2222.33 2099.36 2196.12 2085.48C2169.9 2071.09 2151.14 2051.3 2139.83 2026.11C2128.53 2000.41 2125.44 1970.6 2130.58 1936.68L2168.36 1697.67C2174.01 1663.23 2186.61 1633.42 2206.14 1608.23C2225.67 1583.04 2250.6 1563.51 2280.93 1549.63C2311.77 1535.24 2345.95 1528.05 2383.47 1528.05C2421.51 1528.05 2453.37 1535.24 2479.07 1549.63C2504.77 1563.51 2523.53 1583.04 2535.36 1608.23C2547.18 1633.42 2550.26 1663.23 2544.61 1697.67H2428.96C2433.07 1675.05 2429.73 1657.83 2418.94 1646.01C2408.14 1634.19 2391.18 1628.28 2368.05 1628.28C2344.92 1628.28 2326.16 1634.19 2311.77 1646.01C2297.37 1657.83 2288.12 1675.05 2284.01 1697.67L2246.23 1936.68C2242.63 1958.78 2246.23 1976 2257.03 1988.33C2267.82 2000.15 2284.78 2006.07 2307.91 2006.07C2331.04 2006.07 2349.8 2000.15 2364.19 1988.33C2378.59 1976 2387.58 1958.78 2391.18 1936.68H2506.83C2501.69 1970.6 2489.1 2000.41 2469.05 2026.11C2449.52 2051.3 2424.59 2071.09 2394.26 2085.48C2363.94 2099.36 2329.76 2106.3 2291.72 2106.3ZM2582.86 2098.59L2672.29 1535.76H3019.24L3003.05 1634.44H2769.44L2749.39 1760.89H2956.02L2940.6 1859.58H2733.97L2711.61 1999.9H2945.23L2929.81 2098.59H2582.86ZM3032.05 2098.59L3121.49 1535.76H3304.21C3343.28 1535.76 3376.17 1543.21 3402.9 1558.11C3429.63 1573.02 3448.9 1594.09 3460.73 1621.34C3472.55 1648.06 3475.63 1679.68 3469.98 1716.17L3437.6 1917.4C3431.94 1953.38 3418.83 1984.99 3398.27 2012.23C3377.71 2039.48 3351.76 2060.81 3320.4 2076.23C3289.05 2091.13 3253.84 2098.59 3214.78 2098.59H3032.05ZM3164.66 1990.65H3231.74C3255.38 1990.65 3275.43 1983.96 3291.88 1970.6C3308.32 1957.24 3318.35 1939.5 3321.95 1917.4L3354.33 1716.17C3357.41 1694.58 3352.79 1677.11 3340.45 1663.74C3328.11 1650.38 3310.12 1643.7 3286.48 1643.7H3219.4L3164.66 1990.65Z" fill="url(#paint12_linear_892_141)"/>
<path d="M1989.91 1535.59L1941.41 1475.09L1956.91 1675.03L2004.41 1699.09L1989.91 1535.59Z" fill="url(#paint13_linear_892_141)"/>
<path d="M1051.33 1924L1025.91 1741.59L1099.86 1828.83L1051.33 1924Z" fill="#7F1A11"/>
<path d="M890.906 2106.09C753.406 2106.09 700.406 1987.09 689.406 1956.59L876.406 2015.09L890.906 2106.09Z" fill="url(#paint14_linear_892_141)"/>
<path d="M1154.66 1686.09L1103.41 1621.59C1115.87 1557 1082.36 1515.12 1059.78 1498.31C1058.51 1497.4 1057.21 1496.49 1055.91 1495.59C1057.15 1496.4 1058.45 1497.31 1059.78 1498.31C1154.6 1565.8 1165.51 1647.6 1154.66 1686.09Z" fill="url(#paint15_linear_892_141)"/>
<path d="M832.906 1829.59C800.506 1807.59 768.24 1760.92 756.906 1740.59L772.406 1739.09L832.906 1829.59Z" fill="#781810"/>
<path d="M1636.91 1694.59C1646.91 1571.09 1531.07 1494.92 1474.41 1480.59L1546.41 1656.59L1636.91 1694.59Z" fill="url(#paint16_linear_892_141)"/>
<path d="M2506.91 1937.09L2457.91 1876.09L2331.41 1987.09L2406.41 2078.59C2476.01 2044.19 2502.41 1969.92 2506.91 1937.09Z" fill="url(#paint17_linear_892_141)"/>
<path d="M3472.41 1676.59C3472.41 1553.09 3367.74 1488.92 3316.91 1483.09L3423.91 1631.59L3472.41 1676.59Z" fill="url(#paint18_linear_892_141)"/>
<path d="M2082.91 1904.59C2082.91 2028.09 2187.57 2092.25 2238.41 2098.09L2291.41 2104.59L2344.91 2098.09L2319.91 2035.59L2082.91 1904.59Z" fill="url(#paint19_linear_892_141)"/>
<path d="M2546.91 1665.59C2546.91 1542.09 2423.24 1475.42 2372.41 1469.59L2498.41 1620.59L2546.91 1665.59Z" fill="url(#paint20_linear_892_141)"/>
<path d="M853.74 2045.3C794.63 2045.3 749.655 2030.65 718.815 2001.35C687.975 1972.05 676.667 1932.73 684.891 1883.39H800.541C797.457 1902.4 802.34 1917.57 815.19 1928.87C828.04 1939.67 847.058 1945.07 872.244 1945.07C896.402 1945.07 916.191 1939.67 931.611 1928.87C947.031 1918.08 956.283 1903.17 959.367 1884.16C961.937 1866.68 959.11 1851.77 950.886 1839.44C943.176 1827.1 930.583 1818.88 913.107 1814.77L858.366 1801.66C812.106 1790.35 777.925 1769.53 755.823 1739.21C733.721 1708.88 726.011 1672.39 732.693 1629.73C737.833 1596.83 749.912 1568.3 768.93 1544.15C787.948 1519.47 812.363 1500.46 842.175 1487.09C871.987 1473.73 905.911 1467.05 943.947 1467.05C1001.52 1467.05 1044.95 1481.44 1074.25 1510.22C1103.54 1538.49 1114.34 1576.78 1106.63 1625.1H990.978C993.548 1607.11 989.436 1592.98 978.642 1582.7C967.848 1572.42 950.629 1567.28 926.985 1567.28C904.883 1567.28 886.893 1572.42 873.015 1582.7C859.651 1592.46 851.684 1606.6 849.114 1625.1C846.03 1642.58 848.086 1657.48 855.282 1669.82C862.478 1681.64 874.3 1689.61 890.748 1693.72L948.573 1707.6C995.861 1718.91 1030.56 1739.47 1052.66 1769.28C1074.76 1798.58 1082.47 1835.07 1075.79 1878.76C1070.13 1912.68 1057.28 1942.24 1037.24 1967.42C1017.19 1992.1 991.492 2011.37 960.138 2025.25C929.298 2038.61 893.832 2045.3 853.74 2045.3ZM1137.17 2037.59L1226.6 1474.76H1418.58C1458.16 1474.76 1491.31 1482.21 1518.04 1497.11C1545.28 1512.02 1564.82 1532.84 1576.64 1559.57C1588.97 1586.29 1592.31 1617.65 1586.66 1653.63C1581.01 1689.09 1567.9 1720.45 1547.34 1747.69C1526.78 1774.42 1500.57 1795.23 1468.7 1810.14C1436.83 1825.05 1401.11 1832.5 1361.53 1832.5H1285.2L1252.82 2037.59H1137.17ZM1302.16 1728.41H1378.49C1403.16 1728.41 1423.72 1721.73 1440.17 1708.37C1457.13 1694.49 1467.41 1676.24 1471.01 1653.63C1474.61 1631.01 1469.98 1613.02 1457.13 1599.66C1444.8 1585.78 1426.29 1578.84 1401.62 1578.84H1325.29L1302.16 1728.41ZM1567.85 2037.59L1795.3 1474.76H1941.79L1991.9 2037.59H1877.03L1870.09 1910.37H1735.93L1688.9 2037.59H1567.85ZM1769.86 1817.85H1864.69L1859.29 1682.15C1858.78 1662.62 1857.75 1643.35 1856.21 1624.33C1855.18 1604.8 1854.41 1589.63 1853.9 1578.84C1850.3 1589.63 1845.41 1604.54 1839.25 1623.56C1833.59 1642.58 1827.17 1661.85 1819.97 1681.38L1769.86 1817.85ZM2243.72 2045.3C2206.2 2045.3 2174.33 2038.36 2148.12 2024.48C2121.9 2010.09 2103.14 1990.3 2091.83 1965.11C2080.53 1939.41 2077.44 1909.6 2082.58 1875.68L2120.36 1636.67C2126.01 1602.23 2138.61 1572.42 2158.14 1547.23C2177.67 1522.04 2202.6 1502.51 2232.93 1488.63C2263.77 1474.24 2297.95 1467.05 2335.47 1467.05C2373.51 1467.05 2405.37 1474.24 2431.07 1488.63C2456.77 1502.51 2475.53 1522.04 2487.36 1547.23C2499.18 1572.42 2502.26 1602.23 2496.61 1636.67H2380.96C2385.07 1614.05 2381.73 1596.83 2370.94 1585.01C2360.14 1573.19 2343.18 1567.28 2320.05 1567.28C2296.92 1567.28 2278.16 1573.19 2263.77 1585.01C2249.37 1596.83 2240.12 1614.05 2236.01 1636.67L2198.23 1875.68C2194.63 1897.78 2198.23 1915 2209.03 1927.33C2219.82 1939.15 2236.78 1945.07 2259.91 1945.07C2283.04 1945.07 2301.8 1939.15 2316.19 1927.33C2330.59 1915 2339.58 1897.78 2343.18 1875.68H2458.83C2453.69 1909.6 2441.1 1939.41 2421.05 1965.11C2401.52 1990.3 2376.59 2010.09 2346.26 2024.48C2315.94 2038.36 2281.76 2045.3 2243.72 2045.3ZM2534.86 2037.59L2624.29 1474.76H2971.24L2955.05 1573.44H2721.44L2701.39 1699.89H2908.02L2892.6 1798.58H2685.97L2663.61 1938.9H2897.23L2881.81 2037.59H2534.86ZM2984.05 2037.59L3073.49 1474.76H3256.21C3295.28 1474.76 3328.17 1482.21 3354.9 1497.11C3381.63 1512.02 3400.9 1533.09 3412.73 1560.34C3424.55 1587.06 3427.63 1618.68 3421.98 1655.17L3389.6 1856.4C3383.94 1892.38 3370.83 1923.99 3350.27 1951.23C3329.71 1978.48 3303.76 1999.81 3272.4 2015.23C3241.05 2030.13 3205.84 2037.59 3166.78 2037.59H2984.05ZM3116.66 1929.65H3183.74C3207.38 1929.65 3227.43 1922.96 3243.88 1909.6C3260.32 1896.24 3270.35 1878.5 3273.95 1856.4L3306.33 1655.17C3309.41 1633.58 3304.79 1616.11 3292.45 1602.74C3280.11 1589.38 3262.12 1582.7 3238.48 1582.7H3171.4L3116.66 1929.65Z" fill="url(#paint21_linear_892_141)"/>
<path d="M1038.41 1686.09L990.906 1625.09H1106.41L1153.91 1686.09H1038.41Z" fill="url(#paint22_linear_892_141)"/>
<path d="M1185.17 2098.59L1137.17 2037.59H1252.98L1300.91 2098.59H1185.17Z" fill="url(#paint23_linear_892_141)"/>
<path d="M1333.41 1893.59L1284.91 1832.09H1377.41L1420.41 1893.59H1333.41Z" fill="url(#paint24_linear_892_141)"/>
<path d="M1783.59 1970.59L1735.91 1910.59H1827.75L1870.91 1970.59H1783.59Z" fill="url(#paint25_linear_892_141)"/>
<path d="M1615.91 2098.59L1567.91 2037.59H1688.91L1736.91 2098.59H1615.91Z" fill="url(#paint26_linear_892_141)"/>
<path d="M1924.91 2098.59L1876.91 2037.59H1991.91L2039.41 2098.59H1924.91Z" fill="url(#paint27_linear_892_141)"/>
<path d="M2428.91 1697.59L2380.91 1636.59H2496.41L2544.41 1697.59H2428.91Z" fill="url(#paint28_linear_892_141)"/>
<path d="M2582.41 2098.59L2534.91 2037.59H2648.91L2686.41 2098.09L2582.41 2098.59Z" fill="url(#paint29_linear_892_141)"/>
<path d="M2733.41 1859.59L2685.91 1798.59H2799.91L2837.41 1859.09L2733.41 1859.59Z" fill="url(#paint30_linear_892_141)"/>
<path d="M2769.41 1634.59L2721.91 1573.59H2835.91L2873.41 1634.09L2769.41 1634.59Z" fill="url(#paint31_linear_892_141)"/>
<path d="M3219.4 1643.69L3171.4 1582.7L3241.69 1582.7L3286.88 1643.69H3219.4Z" fill="url(#paint32_linear_892_141)"/>
<path d="M3032.05 2098.57L2984.09 2037.59H3100.71L3139.14 2098.57H3032.05Z" fill="url(#paint33_linear_892_141)"/>
<path d="M2881.81 2037.58L2897.21 1938.89L2945.23 1999.89L2929.8 2098.59L2881.81 2037.58Z" fill="url(#paint34_linear_892_141)"/>
<path d="M2892.6 1798.56L2908.02 1699.89L2956.1 1760.86L2940.6 1859.59L2892.6 1798.56Z" fill="url(#paint35_linear_892_141)"/>
<path d="M2955 1573.39L2971.23 1474.76L3019.43 1535.99L3003.04 1634.45L2955 1573.39Z" fill="url(#paint36_linear_892_141)"/>
<defs>
<filter id="filter0_d_892_141" x="387.547" y="735.574" width="5201.2" height="672.301" filterUnits="userSpaceOnUse" color-interpolation-filters="sRGB">
<feFlood flood-opacity="0" result="BackgroundImageFix"/>
<feColorMatrix in="SourceAlpha" type="matrix" values="0 0 0 0 0 0 0 0 0 0 0 0 0 0 0 0 0 0 127 0" result="hardAlpha"/>
<feOffset dy="50"/>
<feGaussianBlur stdDeviation="2"/>
<feComposite in2="hardAlpha" operator="out"/>
<feColorMatrix type="matrix" values="0 0 0 0 0 0 0 0 0 0 0 0 0 0 0 0 0 0 0.25 0"/>
<feBlend mode="normal" in2="BackgroundImageFix" result="effect1_dropShadow_892_141"/>
<feBlend mode="normal" in="SourceGraphic" in2="effect1_dropShadow_892_141" result="shape"/>
</filter>
<linearGradient id="paint0_linear_892_141" x1="2959.92" y1="755.414" x2="2959.92" y2="2341.41" gradientUnits="userSpaceOnUse">
<stop stop-color="#F22310"/>
<stop offset="0.642915" stop-color="#320703"/>
</linearGradient>
<linearGradient id="paint1_linear_892_141" x1="4294.51" y1="1311.59" x2="4294.51" y2="2329.59" gradientUnits="userSpaceOnUse">
<stop stop-color="#2D0401"/>
<stop offset="1" stop-color="#C62D1F"/>
</linearGradient>
<linearGradient id="paint2_linear_892_141" x1="4280.01" y1="1366.93" x2="4238.26" y2="1653.81" gradientUnits="userSpaceOnUse">
<stop stop-color="#02BFE7"/>
<stop offset="1" stop-color="#60120B"/>
</linearGradient>
<linearGradient id="paint3_linear_892_141" x1="4534.46" y1="1366.93" x2="4492.71" y2="1653.81" gradientUnits="userSpaceOnUse">
<stop stop-color="#02BFE7"/>
<stop offset="1" stop-color="#60120B"/>
</linearGradient>
<linearGradient id="paint4_linear_892_141" x1="3539.56" y1="2041.23" x2="3815.68" y2="2070.2" gradientUnits="userSpaceOnUse">
<stop stop-color="#C62D1F"/>
<stop offset="0.474761" stop-color="#9C2217"/>
</linearGradient>
<linearGradient id="paint5_linear_892_141" x1="4002.28" y1="2041.23" x2="4278.4" y2="2070.2" gradientUnits="userSpaceOnUse">
<stop stop-color="#C62D1F"/>
<stop offset="0.474761" stop-color="#9C2217"/>
</linearGradient>
<linearGradient id="paint6_linear_892_141" x1="3972.58" y1="1475.59" x2="4023.51" y2="1697.17" gradientUnits="userSpaceOnUse">
<stop stop-color="#02BFE7"/>
<stop offset="0.572917" stop-color="#60120B"/>
</linearGradient>
<linearGradient id="paint7_linear_892_141" x1="4246.51" y1="1250.59" x2="4246.51" y2="2268.59" gradientUnits="userSpaceOnUse">
<stop offset="0.473958" stop-color="#02BFE7"/>
<stop offset="1" stop-color="#046B99"/>
</linearGradient>
<linearGradient id="paint8_linear_892_141" x1="4661.65" y1="1653.62" x2="5029.4" y2="1560.74" gradientUnits="userSpaceOnUse">
<stop offset="0.197917" stop-color="#C62D1F"/>
<stop offset="0.59531" stop-color="#5A100A"/>
<stop offset="0.619792" stop-color="#5A100A"/>
</linearGradient>
<linearGradient id="paint9_linear_892_141" x1="4403.62" y1="1653.62" x2="4771.37" y2="1560.74" gradientUnits="userSpaceOnUse">
<stop offset="0.197917" stop-color="#C62D1F"/>
<stop offset="0.59531" stop-color="#5A100A"/>
<stop offset="0.619792" stop-color="#5A100A"/>
</linearGradient>
<linearGradient id="paint10_linear_892_141" x1="4603.7" y1="2098.58" x2="4804.6" y2="2056.29" gradientUnits="userSpaceOnUse">
<stop stop-color="#C62D1F"/>
<stop offset="1" stop-color="#99231B"/>
</linearGradient>
<linearGradient id="paint11_linear_892_141" x1="5013.01" y1="1410.92" x2="4975.67" y2="1685.13" gradientUnits="userSpaceOnUse">
<stop stop-color="#02BFE7"/>
<stop offset="0.767413" stop-color="#61120C"/>
</linearGradient>
<linearGradient id="paint12_linear_892_141" x1="2092.91" y1="1311.59" x2="2092.91" y2="2329.59" gradientUnits="userSpaceOnUse">
<stop stop-color="#2D0401"/>
<stop offset="1" stop-color="#C62D1F"/>
</linearGradient>
<linearGradient id="paint13_linear_892_141" x1="1954.91" y1="1475.09" x2="1987.05" y2="1699.57" gradientUnits="userSpaceOnUse">
<stop stop-color="#046B99"/>
<stop offset="1" stop-color="#6E150E"/>
</linearGradient>
<linearGradient id="paint14_linear_892_141" x1="770.906" y1="2084.59" x2="863.406" y2="2068.09" gradientUnits="userSpaceOnUse">
<stop stop-color="#C62D20"/>
<stop offset="1" stop-color="#A02318"/>
</linearGradient>
<linearGradient id="paint15_linear_892_141" x1="1055.91" y1="1499.09" x2="1182.41" y2="1726.59" gradientUnits="userSpaceOnUse">
<stop stop-color="#046B99"/>
<stop offset="1" stop-color="#99231B"/>
</linearGradient>
<linearGradient id="paint16_linear_892_141" x1="1575.41" y1="1453.59" x2="1602.91" y2="1665.09" gradientUnits="userSpaceOnUse">
<stop stop-color="#046B99"/>
<stop offset="1" stop-color="#66130D"/>
</linearGradient>
<linearGradient id="paint17_linear_892_141" x1="2490.91" y1="1876.59" x2="2419.16" y2="2078.59" gradientUnits="userSpaceOnUse">
<stop stop-color="#861C13"/>
<stop offset="0.609375" stop-color="#9A2117"/>
</linearGradient>
<linearGradient id="paint18_linear_892_141" x1="3469.31" y1="1503.77" x2="3444.47" y2="1629.71" gradientUnits="userSpaceOnUse">
<stop stop-color="#02BFE7"/>
<stop offset="1" stop-color="#61120C"/>
</linearGradient>
<linearGradient id="paint19_linear_892_141" x1="2127.91" y1="2020.09" x2="2164.41" y2="1998.59" gradientUnits="userSpaceOnUse">
<stop stop-color="#C62D1F"/>
<stop offset="1" stop-color="#A22318"/>
</linearGradient>
<linearGradient id="paint20_linear_892_141" x1="2459.91" y1="1358.59" x2="2451.91" y2="1754.09" gradientUnits="userSpaceOnUse">
<stop offset="0.0500997" stop-color="#02BFE7"/>
<stop offset="0.680488" stop-color="#60120B"/>
</linearGradient>
<linearGradient id="paint21_linear_892_141" x1="2044.91" y1="1250.59" x2="2044.91" y2="2268.59" gradientUnits="userSpaceOnUse">
<stop offset="0.473958" stop-color="#02BFE7"/>
<stop offset="1" stop-color="#046B99"/>
</linearGradient>
<linearGradient id="paint22_linear_892_141" x1="1023.71" y1="1594.59" x2="1105.39" y2="1715.62" gradientUnits="userSpaceOnUse">
<stop stop-color="#C62D1F"/>
<stop offset="1" stop-color="#60120B"/>
</linearGradient>
<linearGradient id="paint23_linear_892_141" x1="1109.41" y1="2015.09" x2="1309.88" y2="2098.64" gradientUnits="userSpaceOnUse">
<stop offset="0.360141" stop-color="#C62D1F"/>
<stop offset="1" stop-color="#99231B"/>
</linearGradient>
<linearGradient id="paint24_linear_892_141" x1="1366.41" y1="1845.09" x2="1301.91" y2="1907.09" gradientUnits="userSpaceOnUse">
<stop stop-color="#7D1A11" stop-opacity="0.08"/>
<stop offset="1" stop-color="#C62D1F"/>
</linearGradient>
<linearGradient id="paint25_linear_892_141" x1="1816.71" y1="1923.27" x2="1753.73" y2="1985.54" gradientUnits="userSpaceOnUse">
<stop stop-color="#7D1A11" stop-opacity="0.08"/>
<stop offset="1" stop-color="#C62D1F"/>
</linearGradient>
<linearGradient id="paint26_linear_892_141" x1="1571.41" y1="2040.59" x2="1723.41" y2="2103.09" gradientUnits="userSpaceOnUse">
<stop stop-color="#C62D1F"/>
<stop offset="1" stop-color="#99231B"/>
</linearGradient>
<linearGradient id="paint27_linear_892_141" x1="1880.41" y1="2040.59" x2="2032.41" y2="2103.09" gradientUnits="userSpaceOnUse">
<stop stop-color="#C62D1F"/>
<stop offset="1" stop-color="#99231B"/>
</linearGradient>
<linearGradient id="paint28_linear_892_141" x1="2360.91" y1="1697.59" x2="2578.41" y2="1650.09" gradientUnits="userSpaceOnUse">
<stop stop-color="#C62D1F"/>
<stop offset="1" stop-color="#60120B"/>
</linearGradient>
<linearGradient id="paint29_linear_892_141" x1="2422.41" y1="2106.59" x2="2768.41" y2="2037.59" gradientUnits="userSpaceOnUse">
<stop offset="0.308489" stop-color="#C62D1F"/>
<stop offset="0.619792" stop-color="#9F2318"/>
</linearGradient>
<linearGradient id="paint30_linear_892_141" x1="2573.41" y1="1867.59" x2="2919.41" y2="1798.59" gradientUnits="userSpaceOnUse">
<stop offset="0.197917" stop-color="#C62D1F"/>
<stop offset="0.619792" stop-color="#7B1911"/>
</linearGradient>
<linearGradient id="paint31_linear_892_141" x1="2609.41" y1="1642.59" x2="2955.41" y2="1573.59" gradientUnits="userSpaceOnUse">
<stop offset="0.197917" stop-color="#C62D1F"/>
<stop offset="0.619792" stop-color="#5A100A"/>
</linearGradient>
<linearGradient id="paint32_linear_892_141" x1="3028.87" y1="1653.62" x2="3396.63" y2="1560.74" gradientUnits="userSpaceOnUse">
<stop offset="0.197917" stop-color="#C62D1F"/>
<stop offset="0.59531" stop-color="#5A100A"/>
<stop offset="0.619792" stop-color="#5A100A"/>
</linearGradient>
<linearGradient id="paint33_linear_892_141" x1="3039.05" y1="2067.84" x2="3088.68" y2="2067.84" gradientUnits="userSpaceOnUse">
<stop stop-color="#C62D1F"/>
<stop offset="1" stop-color="#A12318"/>
</linearGradient>
<linearGradient id="paint34_linear_892_141" x1="2887.02" y1="2235.62" x2="2930.45" y2="1946.53" gradientUnits="userSpaceOnUse">
<stop stop-color="#C62D1F"/>
<stop offset="1" stop-color="#99231B"/>
</linearGradient>
<linearGradient id="paint35_linear_892_141" x1="2950.47" y1="1663.53" x2="2903.96" y2="1888.29" gradientUnits="userSpaceOnUse">
<stop stop-color="#5A100A"/>
<stop offset="1" stop-color="#99231B"/>
</linearGradient>
<linearGradient id="paint36_linear_892_141" x1="3016.14" y1="1424.14" x2="2988.43" y2="1625.24" gradientUnits="userSpaceOnUse">
<stop stop-color="#02BFE7"/>
<stop offset="1" stop-color="#5C110B"/>
</linearGradient>
</defs>
</svg>
