<?xml version="1.0" encoding="utf-8"?>
<!-- Generator: Adobe Illustrator 25.3.1, SVG Export Plug-In . SVG Version: 6.00 Build 0)  -->
<svg version="1.1" id="Layer_1" xmlns="http://www.w3.org/2000/svg" xmlns:xlink="http://www.w3.org/1999/xlink" x="0px" y="0px"
	 viewBox="0 0 653.9 460.5" style="enable-background:new 0 0 653.9 460.5;" xml:space="preserve">
<style type="text/css">
	.st0{fill:#7B81FF;}
	.st1{fill:#FFFFFF;}
	.st2{stroke:#000000;stroke-width:8;}
</style>
<path d="M481.5,409.9c58.9-21.3,107.6-54.6,138.2-94.3s41.1-83.4,29.8-123.8l-54.9,11.4c9,32.4,0.6,67.3-23.8,99.1
	c-24.4,31.7-63.5,58.4-110.6,75.4L481.5,409.9z"/>
<path d="M214.7,29.1C153,46.1,98,76.1,59,114.1c-39,38-59.8,81.8-58.9,124l55.5-7.1c-0.7-33.8,15.9-68.8,47.1-99.2
	s75.2-54.4,124.6-67.9L214.7,29.1z"/>
<ellipse class="st0" cx="327.9" cy="230.3" rx="232" ry="230.3"/>
<ellipse class="st1" cx="329.1" cy="229.7" rx="173" ry="171.8"/>
<path d="M0,233.8c-0.4,29.1,9.5,56.7,28.8,80.5c19.3,23.8,47.5,43.1,82.3,56.4c34.8,13.3,75.3,20.2,118.2,20.2
	c42.9,0,86.9-7,128.6-20.4l-16.1-33.6c-33.3,10.7-68.6,16.3-102.8,16.3c-34.3,0-66.7-5.5-94.5-16.1c-27.9-10.6-50.4-26.1-65.9-45.1
	c-15.4-19-23.3-41.1-23-64.4L0,233.8z"/>
<path d="M653.6,232.2c1.9-29.1-6.5-57.1-24.5-81.9s-45.2-45.6-79.2-60.7C515.9,74.5,475.8,65.4,433,63.2
	c-42.8-2.2-87.1,2.4-129.5,13.6l14.3,34.4c33.8-8.9,69.3-12.6,103.6-10.9c34.2,1.8,66.3,9,93.5,21.1c27.3,12.1,49,28.7,63.4,48.5
	c14.4,19.8,21.1,42.3,19.6,65.5L653.6,232.2z"/>
<circle class="st2" cx="282" cy="103.9" r="14.5"/>
<circle class="st2" cx="379.2" cy="338.8" r="14.5"/>
<path d="M284,177.8c0-3.6,1.4-5.4,4.2-5.4c2.3,0,4.9,1.9,7.9,5.8s4.5,7.1,4.5,9.9s-0.6,6.6-1.7,11.5c-1.1,4.9-2.3,9.5-3.5,13.6
	c-1.1,4.1-2.8,9.9-5.1,17.5c-2.3,7.5-3.9,12.8-4.7,15.7c5.5-11.3,11.4-20.4,17.5-27.5c6.2-7.1,11.4-10.6,15.6-10.6
	c2.6,0,5.7,2.3,9.1,7c3.4,4.6,5.1,8.8,5.1,12.5c0,3.7-0.7,9-2,16.1c-1.4,7.1-3.8,13.9-7.2,20.5c-3.4,6.6-6.9,9.9-10.5,9.9
	c-2.8,0-4.2-2-4.2-6c0-2.9,0.9-7.6,2.6-14.2c2.5-9.8,3.7-15.8,3.7-17.9s-0.3-3.2-1-3.2c-4.9,0-12.2,8.2-21.8,24.7
	c-3.2,5.6-6,9.8-8.2,12.5c-2.1,2.7-4.2,4.1-6.1,4.1s-4.4-1.6-7.2-4.7c-2.7-3.2-4.1-5.6-4.1-7.3c0-1.8,0.3-4.4,1-7.8
	c0.8-3.4,1.9-8.3,3.3-14.6c1.5-6.3,4-17.7,7.4-34.3C282.3,189,284,179.7,284,177.8z M386.6,208.4c3.2,0,6.5,2.8,10.1,8.4
	c3.7,5.6,5.5,11.3,5.5,16.9c0,3.4-1.5,7.5-4.4,12.2s-6.6,9.1-11,13.3c-4.4,4.1-9.4,7.6-15.2,10.5c-5.7,2.9-11.2,4.4-16.4,4.4h-1.5
	c-5.4,22.4-9.2,33.5-11.4,33.5c-1.8,0-3.7-1.5-5.6-4.5c-2-3-3.1-5.5-3.1-7.4s1.2-8,3.7-18c7.3-29.9,11-52.4,11-67.6
	c0-2.6,1.2-3.8,3.7-3.8c2,0,4.7,1.2,7.8,3.5c3.2,2.3,5.1,5.3,5.9,9C373,211.8,380,208.4,386.6,208.4z M357.7,258.8
	c6.7-1.3,12.9-4.9,18.8-11c6-6.1,9-11.3,9-15.7s-1.2-6.7-3.7-6.7c-3.6,0-7.4,2-11.4,6.1c-1.6,1.7-3.4,4.2-5.4,7.6
	c-2,3.3-3.7,7.2-5.1,11.6L357.7,258.8z"/>
</svg>
