<svg width="5602" height="2780" viewBox="0 0 5602 2780" fill="none" xmlns="http://www.w3.org/2000/svg">
<g filter="url(#filter0_d_284_995)">
<path d="M498.268 746.461V993.961H808.768V746.461H915.868V1353.96H808.768V1100.16H498.268V1353.96H392.068V746.461H498.268ZM1086.97 1353.96H969.973L1183.27 813.961C1194.67 785.161 1210.57 765.061 1230.97 753.661C1251.97 741.661 1278.67 735.661 1311.07 735.661C1342.87 735.661 1368.97 741.661 1389.37 753.661C1410.37 765.061 1426.27 785.161 1437.07 813.961L1642.27 1353.96H1524.37L1339.87 865.261C1334.47 851.461 1324.57 844.561 1310.17 844.561C1295.77 844.561 1285.57 851.461 1279.57 865.261L1086.97 1353.96ZM2147.3 746.461V852.661H1912.4C1853.6 852.661 1810.7 868.261 1783.7 899.461C1757.3 930.061 1744.1 980.461 1744.1 1050.66C1744.1 1120.26 1757.3 1170.66 1783.7 1201.86C1810.1 1232.46 1853 1247.76 1912.4 1247.76H2147.3V1353.96H1912.4C1823.6 1353.96 1755.5 1329.06 1708.1 1279.26C1661.3 1228.86 1637.9 1152.66 1637.9 1050.66C1637.9 948.061 1661.3 871.861 1708.1 822.061C1755.5 771.661 1823.6 746.461 1912.4 746.461H2147.3ZM2344.08 746.461V1003.86H2402.58C2428.38 1003.86 2449.38 1003.26 2465.58 1002.06C2482.38 1000.26 2496.18 996.661 2506.98 991.261C2517.78 985.861 2526.78 978.361 2533.98 968.761C2541.78 958.561 2549.88 945.061 2558.28 928.261L2650.98 746.461H2765.28L2669.88 935.461C2656.08 962.461 2641.38 984.961 2625.78 1002.96C2610.18 1020.96 2589.78 1035.36 2564.58 1046.16C2578.98 1049.76 2591.58 1054.86 2602.38 1061.46C2613.18 1067.46 2623.08 1075.26 2632.08 1084.86C2641.68 1093.86 2650.68 1104.96 2659.08 1118.16C2667.48 1130.76 2676.18 1145.76 2685.18 1163.16L2783.28 1353.96H2664.48L2571.78 1173.96C2563.38 1157.76 2555.28 1144.86 2547.48 1135.26C2539.68 1125.66 2529.78 1118.16 2517.78 1112.76C2505.78 1107.36 2490.78 1104.06 2472.78 1102.86C2454.78 1101.06 2431.38 1100.16 2402.58 1100.16H2344.08V1353.96H2237.88V746.461H2344.08ZM2925.01 746.461V1152.36C2925.01 1182.96 2932.81 1206.66 2948.41 1223.46C2964.61 1239.66 2990.41 1247.76 3025.81 1247.76H3133.81C3168.01 1247.76 3193.21 1239.66 3209.41 1223.46C3225.61 1206.66 3233.71 1182.96 3233.71 1152.36V746.461H3338.11V1160.46C3338.11 1224.66 3321.61 1272.96 3288.61 1305.36C3255.61 1337.76 3206.41 1353.96 3141.01 1353.96H3013.21C2882.41 1353.96 2817.01 1289.46 2817.01 1160.46V746.461H2925.01ZM3858.68 746.461V852.661H3681.38V1353.96H3574.28V852.661H3396.98V746.461H3858.68ZM4187.44 746.461C4276.84 746.461 4344.64 771.361 4390.84 821.161C4437.64 870.961 4461.04 947.461 4461.04 1050.66C4461.04 1153.26 4437.64 1229.46 4390.84 1279.26C4344.64 1329.06 4276.84 1353.96 4187.44 1353.96H3973.24C3939.64 1353.96 3922.84 1337.46 3922.84 1304.46V795.961C3922.84 762.961 3939.64 746.461 3973.24 746.461H4187.44ZM4029.04 1236.96C4029.04 1244.16 4032.94 1247.76 4040.74 1247.76H4187.44C4246.24 1247.76 4288.84 1232.16 4315.24 1200.96C4341.64 1169.76 4354.84 1119.36 4354.84 1049.76C4354.84 980.161 4341.64 930.061 4315.24 899.461C4289.44 868.261 4246.84 852.661 4187.44 852.661H4040.74C4032.94 852.661 4029.04 856.261 4029.04 863.461V1236.96ZM4860.56 746.461V1353.96H4754.36V746.461H4860.56ZM5069.59 746.461L5255.89 970.561L5451.19 746.461H5582.59L5322.49 1045.26L5584.39 1353.96H5454.79L5253.19 1112.76L5046.19 1353.96H4914.79L5186.59 1037.16L4939.99 746.461H5069.59Z" fill="url(#paint0_linear_284_995)"/>
</g>
<path d="M5323.12 1832.44C5323.12 1709.46 5425.6 1678.72 5476.84 1678.72C5350.14 1678.72 5323.12 1575.46 5323.12 1525C5323.12 1649.22 5220.64 1679.24 5169.4 1678.72C5282.75 1679.86 5323.12 1780.42 5323.12 1832.44Z" fill="white" stroke="white" stroke-linejoin="round"/>
<path d="M1589.17 718.51C1589.17 626.356 1665.97 603.317 1704.37 603.317C1609.42 603.317 1589.17 525.941 1589.17 488.125C1589.17 581.21 1512.38 603.705 1473.98 603.317C1558.92 604.175 1589.17 679.53 1589.17 718.51Z" fill="white" stroke="white" stroke-linejoin="round"/>
<path d="M3788.55 299.394C4325.98 213.28 5704 11.4949 5384.33 681.952C5795.5 242.496 5231.9 -46.9882 3788.55 299.394Z" fill="white" stroke="white"/>
<path d="M3971.93 205.555L4004.92 332.101C3848.35 408.799 3620.72 424.344 3443.41 461.834C3372.92 469.576 3306.05 462.674 3261.68 464.217C3298.54 440.381 3353.96 405.931 3421.43 377.523C3597.76 318.081 3814.69 229.95 3971.93 205.555Z" fill="white"/>
<rect x="3953.18" y="333.734" width="110.126" height="64.2402" transform="rotate(-104.612 3953.18 333.734)" fill="white"/>
<rect x="3989.36" y="308.797" width="80.9046" height="64.2402" transform="rotate(-104.612 3989.36 308.797)" fill="white"/>
<path d="M3877.75 460.531L3780.46 362.377L3909.22 329.251L4090.18 476.555L3877.75 460.531Z" fill="white"/>
<path d="M3794.65 173.257L3766.93 310.568L3894.42 266.901L3965.62 41.3647L3794.65 173.257Z" fill="white"/>
<path d="M334.844 1835C-66.7172 2222.94 -727.471 3381.57 2663.19 2382.88C1531.19 2628.16 -581.844 3131.02 334.844 1835Z" fill="white" stroke="white"/>
<path d="M2615.07 2561.82C2615.07 2424.13 2729.82 2389.7 2787.2 2389.7C2645.33 2389.7 2615.07 2274.09 2615.07 2217.58C2615.07 2356.67 2500.33 2390.28 2442.95 2389.7C2569.87 2390.99 2615.07 2503.58 2615.07 2561.82Z" fill="white" stroke="white" stroke-linejoin="round"/>
<path d="M3796.52 2106.38C3759 2106.38 3727.39 2099.44 3701.69 2085.56C3676.5 2071.17 3658.26 2051.38 3646.95 2026.2C3636.16 2000.5 3633.33 1970.69 3638.47 1936.76L3676.25 1697.75C3681.9 1663.83 3694.24 1634.27 3713.26 1609.09C3732.27 1583.39 3756.69 1563.6 3786.5 1549.72C3816.83 1535.33 3850.75 1528.13 3888.27 1528.13C3926.31 1528.13 3957.92 1535.33 3983.11 1549.72C4008.81 1563.6 4027.05 1583.39 4037.85 1609.09C4049.15 1634.27 4051.98 1663.83 4046.33 1697.75L4008.55 1936.76C4003.41 1970.69 3991.07 2000.5 3971.54 2026.2C3952.52 2051.38 3928.11 2071.17 3898.3 2085.56C3868.48 2099.44 3834.56 2106.38 3796.52 2106.38ZM3812.71 2006.15C3835.84 2006.15 3854.09 2000.24 3867.46 1988.42C3880.82 1976.08 3889.3 1958.86 3892.9 1936.76L3930.68 1697.75C3934.79 1675.14 3931.96 1657.92 3922.2 1646.09C3912.94 1634.27 3896.5 1628.36 3872.85 1628.36C3849.21 1628.36 3830.7 1634.27 3817.34 1646.09C3804.49 1657.92 3796.01 1675.14 3791.9 1697.75L3754.12 1936.76C3750.52 1958.86 3753.6 1976.08 3763.37 1988.42C3773.14 2000.24 3789.58 2006.15 3812.71 2006.15ZM4258.82 2106.38C4201.77 2106.38 4159.11 2090.96 4130.84 2060.12C4103.08 2029.28 4093.31 1987.13 4101.54 1933.68L4164.76 1535.84H4280.41L4217.19 1932.91C4213.59 1956.55 4216.67 1974.8 4226.44 1987.65C4236.72 1999.98 4252.91 2006.15 4275.01 2006.15C4296.6 2006.15 4314.59 1999.98 4328.98 1987.65C4343.38 1974.8 4352.37 1956.55 4355.97 1932.91L4419.19 1535.84H4534.84L4471.62 1933.68C4465.96 1969.14 4453.63 1999.98 4434.61 2026.2C4415.59 2051.9 4390.92 2071.69 4360.59 2085.56C4330.78 2099.44 4296.86 2106.38 4258.82 2106.38ZM4664.84 2098.67L4736.54 1643.78H4593.91L4611.64 1535.84H5012.56L4994.83 1643.78H4852.19L4780.49 2098.67H4664.84Z" fill="url(#paint1_linear_284_995)"/>
<path d="M4280.12 1535.81L4232.1 1474.84L4196.09 1625.17L4259.09 1668.67L4280.12 1535.81Z" fill="url(#paint2_linear_284_995)"/>
<path d="M4534.57 1535.81L4486.55 1474.84L4450.54 1625.17L4513.54 1668.67L4534.57 1535.81Z" fill="url(#paint3_linear_284_995)"/>
<path d="M3587.66 1905.88C3587.66 2029.38 3690.04 2095.42 3759.71 2103.92L3635.09 1949.67L3587.66 1905.88Z" fill="url(#paint4_linear_284_995)"/>
<path d="M4050.38 1905.88C4050.38 2029.38 4152.76 2095.42 4222.43 2103.92L4097.81 1949.67L4050.38 1905.88Z" fill="url(#paint5_linear_284_995)"/>
<path d="M4048.73 1670.5C4048.73 1546.15 3945.65 1481.55 3895.59 1475.67L4000.97 1625.19L4048.73 1670.5Z" fill="url(#paint6_linear_284_995)"/>
<path d="M3748.52 2045.38C3711 2045.38 3679.39 2038.44 3653.69 2024.56C3628.5 2010.17 3610.26 1990.38 3598.95 1965.2C3588.16 1939.5 3585.33 1909.69 3590.47 1875.76L3628.25 1636.75C3633.9 1602.83 3646.24 1573.27 3665.26 1548.09C3684.27 1522.39 3708.69 1502.6 3738.5 1488.72C3768.83 1474.33 3802.75 1467.13 3840.27 1467.13C3878.31 1467.13 3909.92 1474.33 3935.11 1488.72C3960.81 1502.6 3979.05 1522.39 3989.85 1548.09C4001.15 1573.27 4003.98 1602.83 3998.33 1636.75L3960.55 1875.76C3955.41 1909.69 3943.07 1939.5 3923.54 1965.2C3904.52 1990.38 3880.11 2010.17 3850.3 2024.56C3820.48 2038.44 3786.56 2045.38 3748.52 2045.38ZM3764.71 1945.15C3787.84 1945.15 3806.09 1939.24 3819.46 1927.42C3832.82 1915.08 3841.3 1897.86 3844.9 1875.76L3882.68 1636.75C3886.79 1614.14 3883.96 1596.92 3874.2 1585.09C3864.94 1573.27 3848.5 1567.36 3824.85 1567.36C3801.21 1567.36 3782.7 1573.27 3769.34 1585.09C3756.49 1596.92 3748.01 1614.14 3743.9 1636.75L3706.12 1875.76C3702.52 1897.86 3705.6 1915.08 3715.37 1927.42C3725.14 1939.24 3741.58 1945.15 3764.71 1945.15ZM4210.82 2045.38C4153.77 2045.38 4111.11 2029.96 4082.84 1999.12C4055.08 1968.28 4045.31 1926.13 4053.54 1872.68L4116.76 1474.84H4232.41L4169.19 1871.91C4165.59 1895.55 4168.67 1913.8 4178.44 1926.65C4188.72 1938.98 4204.91 1945.15 4227.01 1945.15C4248.6 1945.15 4266.59 1938.98 4280.98 1926.65C4295.38 1913.8 4304.37 1895.55 4307.97 1871.91L4371.19 1474.84H4486.84L4423.62 1872.68C4417.96 1908.14 4405.63 1938.98 4386.61 1965.2C4367.59 1990.9 4342.92 2010.69 4312.59 2024.56C4282.78 2038.44 4248.86 2045.38 4210.82 2045.38ZM4616.84 2037.67L4688.54 1582.78H4545.91L4563.64 1474.84H4964.56L4946.83 1582.78H4804.19L4732.49 2037.67H4616.84Z" fill="url(#paint7_linear_284_995)"/>
<path d="M4851.75 1643.77L4803.75 1582.78L4874.04 1582.78L4919.23 1643.77H4851.75Z" fill="url(#paint8_linear_284_995)"/>
<path d="M4593.72 1643.77L4545.72 1582.78L4616.02 1582.78L4661.21 1643.77H4593.72Z" fill="url(#paint9_linear_284_995)"/>
<path d="M4664.53 2098.67L4616.51 2037.68L4732.12 2037.68L4780.11 2098.67H4664.53Z" fill="url(#paint10_linear_284_995)"/>
<path d="M5012.59 1535.67L4964.09 1474.67L4946.59 1582.67L4994.59 1643.67L5012.59 1535.67Z" fill="url(#paint11_linear_284_995)"/>
<path d="M901.318 2106.38C842.208 2106.38 797.233 2091.73 766.393 2062.43C735.553 2033.14 724.245 1993.82 732.469 1944.47H848.119C845.035 1963.49 849.918 1978.65 862.768 1989.96C875.618 2000.75 894.636 2006.15 919.822 2006.15C943.98 2006.15 963.769 2000.75 979.189 1989.96C994.609 1979.17 1003.86 1964.26 1006.95 1945.24C1009.52 1927.77 1006.69 1912.86 998.464 1900.52C990.754 1888.19 978.161 1879.96 960.685 1875.85L905.944 1862.75C859.684 1851.44 825.503 1830.62 803.401 1800.29C781.299 1769.97 773.589 1733.47 780.271 1690.81C785.411 1657.92 797.49 1629.39 816.508 1605.23C835.526 1580.56 859.941 1561.54 889.753 1548.18C919.565 1534.81 953.489 1528.13 991.525 1528.13C1049.09 1528.13 1092.53 1542.52 1121.82 1571.31C1151.12 1599.58 1161.92 1637.87 1154.21 1686.19H1038.56C1041.13 1668.2 1037.01 1654.06 1026.22 1643.78C1015.43 1633.5 998.207 1628.36 974.563 1628.36C952.461 1628.36 934.471 1633.5 920.593 1643.78C907.229 1653.55 899.262 1667.68 896.692 1686.19C893.608 1703.66 895.664 1718.57 902.86 1730.9C910.056 1742.73 921.878 1750.69 938.326 1754.81L996.151 1768.68C1043.44 1779.99 1078.13 1800.55 1100.24 1830.36C1122.34 1859.66 1130.05 1896.16 1123.37 1939.85C1117.71 1973.77 1104.86 2003.32 1084.82 2028.51C1064.77 2053.18 1039.07 2072.46 1007.72 2086.34C976.876 2099.7 941.41 2106.38 901.318 2106.38ZM1184.75 2098.67L1274.18 1535.84H1466.16C1505.74 1535.84 1538.89 1543.29 1565.62 1558.2C1592.86 1573.11 1612.39 1593.92 1624.22 1620.65C1636.55 1647.38 1639.89 1678.73 1634.24 1714.71C1628.58 1750.18 1615.48 1781.53 1594.92 1808.78C1574.36 1835.5 1548.14 1856.32 1516.28 1871.23C1484.41 1886.13 1448.68 1893.59 1409.11 1893.59H1332.78L1300.4 2098.67H1184.75ZM1349.74 1789.5H1426.07C1450.74 1789.5 1471.3 1782.82 1487.75 1769.45C1504.71 1755.58 1514.99 1737.33 1518.59 1714.71C1522.19 1692.1 1517.56 1674.11 1504.71 1660.74C1492.37 1646.87 1473.87 1639.93 1449.2 1639.93H1372.87L1349.74 1789.5ZM1615.43 2098.67L1842.88 1535.84H1989.37L2039.48 2098.67H1924.6L1917.67 1971.46H1783.51L1736.48 2098.67H1615.43ZM1817.44 1878.94H1912.27L1906.87 1743.24C1906.36 1723.71 1905.33 1704.43 1903.79 1685.42C1902.76 1665.88 1901.99 1650.72 1901.47 1639.93C1897.88 1650.72 1892.99 1665.63 1886.83 1684.64C1881.17 1703.66 1874.75 1722.94 1867.55 1742.47L1817.44 1878.94ZM2291.3 2106.38C2253.78 2106.38 2221.91 2099.44 2195.69 2085.56C2169.48 2071.17 2150.72 2051.38 2139.41 2026.2C2128.1 2000.5 2125.02 1970.69 2130.16 1936.76L2167.94 1697.75C2173.59 1663.31 2186.19 1633.5 2205.72 1608.32C2225.25 1583.13 2250.18 1563.6 2280.5 1549.72C2311.34 1535.33 2345.53 1528.13 2383.05 1528.13C2421.08 1528.13 2452.95 1535.33 2478.65 1549.72C2504.35 1563.6 2523.11 1583.13 2534.93 1608.32C2546.76 1633.5 2549.84 1663.31 2544.19 1697.75H2428.54C2432.65 1675.14 2429.31 1657.92 2418.51 1646.09C2407.72 1634.27 2390.76 1628.36 2367.63 1628.36C2344.5 1628.36 2325.74 1634.27 2311.34 1646.09C2296.95 1657.92 2287.7 1675.14 2283.59 1697.75L2245.81 1936.76C2242.21 1958.86 2245.81 1976.08 2256.6 1988.42C2267.4 2000.24 2284.36 2006.15 2307.49 2006.15C2330.62 2006.15 2349.38 2000.24 2363.77 1988.42C2378.16 1976.08 2387.16 1958.86 2390.76 1936.76H2506.41C2501.27 1970.69 2488.67 2000.5 2468.63 2026.2C2449.1 2051.38 2424.17 2071.17 2393.84 2085.56C2363.52 2099.44 2329.33 2106.38 2291.3 2106.38ZM2582.44 2098.67L2671.87 1535.84H3018.82L3002.63 1634.53H2769.02L2748.97 1760.97H2955.6L2940.18 1859.66H2733.55L2711.19 1999.98H2944.81L2929.39 2098.67H2582.44ZM3031.63 2098.67L3121.06 1535.84H3303.79C3342.85 1535.84 3375.75 1543.29 3402.48 1558.2C3429.21 1573.11 3448.48 1594.18 3460.3 1621.42C3472.13 1648.15 3475.21 1679.76 3469.56 1716.26L3437.17 1917.49C3431.52 1953.47 3418.41 1985.08 3397.85 2012.32C3377.29 2039.56 3351.34 2060.89 3319.98 2076.31C3288.63 2091.22 3253.42 2098.67 3214.35 2098.67H3031.63ZM3164.24 1990.73H3231.32C3254.96 1990.73 3275.01 1984.05 3291.45 1970.69C3307.9 1957.32 3317.93 1939.59 3321.52 1917.49L3353.91 1716.26C3356.99 1694.67 3352.36 1677.19 3340.03 1663.83C3327.69 1650.46 3309.7 1643.78 3286.06 1643.78H3218.98L3164.24 1990.73Z" fill="url(#paint12_linear_284_995)"/>
<path d="M1989.48 1535.67L1940.98 1475.17L1956.48 1675.12L2003.98 1699.17L1989.48 1535.67Z" fill="url(#paint13_linear_284_995)"/>
<path d="M1050.91 1924.08L1025.48 1741.67L1099.44 1828.92L1050.91 1924.08Z" fill="#7F1A11"/>
<path d="M890.484 2106.17C752.984 2106.17 699.984 1987.17 688.984 1956.67L875.984 2015.17L890.484 2106.17Z" fill="url(#paint14_linear_284_995)"/>
<path d="M1154.23 1686.17L1102.98 1621.67C1115.45 1557.09 1081.94 1515.21 1059.36 1498.39C1058.08 1497.48 1056.79 1496.58 1055.48 1495.67C1056.73 1496.49 1058.03 1497.4 1059.36 1498.39C1154.18 1565.88 1165.09 1647.69 1154.23 1686.17Z" fill="url(#paint15_linear_284_995)"/>
<path d="M832.484 1829.67C800.084 1807.67 767.818 1761.01 756.484 1740.67L771.984 1739.17L832.484 1829.67Z" fill="#781810"/>
<path d="M1636.48 1694.67C1646.48 1571.17 1530.65 1495.01 1473.98 1480.67L1545.98 1656.67L1636.48 1694.67Z" fill="url(#paint16_linear_284_995)"/>
<path d="M2506.48 1937.17L2457.48 1876.17L2330.98 1987.17L2405.98 2078.67C2475.58 2044.27 2501.98 1970.01 2506.48 1937.17Z" fill="url(#paint17_linear_284_995)"/>
<path d="M3471.98 1676.67C3471.98 1553.17 3367.32 1489.01 3316.48 1483.17L3423.48 1631.67L3471.98 1676.67Z" fill="url(#paint18_linear_284_995)"/>
<path d="M2082.48 1904.67C2082.48 2028.17 2187.15 2092.34 2237.98 2098.17L2290.98 2104.67L2344.48 2098.17L2319.48 2035.67L2082.48 1904.67Z" fill="url(#paint19_linear_284_995)"/>
<path d="M2546.48 1665.67C2546.48 1542.17 2422.82 1475.51 2371.98 1469.67L2497.98 1620.67L2546.48 1665.67Z" fill="url(#paint20_linear_284_995)"/>
<path d="M853.318 2045.38C794.208 2045.38 749.233 2030.73 718.393 2001.43C687.553 1972.14 676.245 1932.82 684.469 1883.47H800.119C797.035 1902.49 801.918 1917.65 814.768 1928.96C827.618 1939.75 846.636 1945.15 871.822 1945.15C895.98 1945.15 915.769 1939.75 931.189 1928.96C946.609 1918.17 955.861 1903.26 958.945 1884.24C961.515 1866.77 958.688 1851.86 950.464 1839.52C942.754 1827.19 930.161 1818.96 912.685 1814.85L857.944 1801.75C811.684 1790.44 777.503 1769.62 755.401 1739.29C733.299 1708.97 725.589 1672.47 732.271 1629.81C737.411 1596.92 749.49 1568.39 768.508 1544.23C787.526 1519.56 811.941 1500.54 841.753 1487.18C871.565 1473.81 905.489 1467.13 943.525 1467.13C1001.09 1467.13 1044.53 1481.52 1073.82 1510.31C1103.12 1538.58 1113.92 1576.87 1106.21 1625.19H990.556C993.126 1607.2 989.014 1593.06 978.22 1582.78C967.426 1572.5 950.207 1567.36 926.563 1567.36C904.461 1567.36 886.471 1572.5 872.593 1582.78C859.229 1592.55 851.262 1606.68 848.692 1625.19C845.608 1642.66 847.664 1657.57 854.86 1669.9C862.056 1681.73 873.878 1689.69 890.326 1693.81L948.151 1707.68C995.439 1718.99 1030.13 1739.55 1052.24 1769.36C1074.34 1798.66 1082.05 1835.16 1075.37 1878.85C1069.71 1912.77 1056.86 1942.32 1036.82 1967.51C1016.77 1992.18 991.07 2011.46 959.716 2025.34C928.876 2038.7 893.41 2045.38 853.318 2045.38ZM1136.75 2037.67L1226.18 1474.84H1418.16C1457.74 1474.84 1490.89 1482.29 1517.62 1497.2C1544.86 1512.11 1564.39 1532.92 1576.22 1559.65C1588.55 1586.38 1591.89 1617.73 1586.24 1653.71C1580.58 1689.18 1567.48 1720.53 1546.92 1747.78C1526.36 1774.5 1500.14 1795.32 1468.28 1810.23C1436.41 1825.13 1400.68 1832.59 1361.11 1832.59H1284.78L1252.4 2037.67H1136.75ZM1301.74 1728.5H1378.07C1402.74 1728.5 1423.3 1721.82 1439.75 1708.45C1456.71 1694.58 1466.99 1676.33 1470.59 1653.71C1474.19 1631.1 1469.56 1613.11 1456.71 1599.74C1444.37 1585.87 1425.87 1578.93 1401.2 1578.93H1324.87L1301.74 1728.5ZM1567.43 2037.67L1794.88 1474.84H1941.37L1991.48 2037.67H1876.6L1869.67 1910.46H1735.51L1688.48 2037.67H1567.43ZM1769.44 1817.94H1864.27L1858.87 1682.24C1858.36 1662.71 1857.33 1643.43 1855.79 1624.42C1854.76 1604.88 1853.99 1589.72 1853.47 1578.93C1849.88 1589.72 1844.99 1604.63 1838.83 1623.64C1833.17 1642.66 1826.75 1661.94 1819.55 1681.47L1769.44 1817.94ZM2243.3 2045.38C2205.78 2045.38 2173.91 2038.44 2147.69 2024.56C2121.48 2010.17 2102.72 1990.38 2091.41 1965.2C2080.1 1939.5 2077.02 1909.69 2082.16 1875.76L2119.94 1636.75C2125.59 1602.31 2138.19 1572.5 2157.72 1547.32C2177.25 1522.13 2202.18 1502.6 2232.5 1488.72C2263.34 1474.33 2297.53 1467.13 2335.05 1467.13C2373.08 1467.13 2404.95 1474.33 2430.65 1488.72C2456.35 1502.6 2475.11 1522.13 2486.93 1547.32C2498.76 1572.5 2501.84 1602.31 2496.19 1636.75H2380.54C2384.65 1614.14 2381.31 1596.92 2370.51 1585.09C2359.72 1573.27 2342.76 1567.36 2319.63 1567.36C2296.5 1567.36 2277.74 1573.27 2263.34 1585.09C2248.95 1596.92 2239.7 1614.14 2235.59 1636.75L2197.81 1875.76C2194.21 1897.86 2197.81 1915.08 2208.6 1927.42C2219.4 1939.24 2236.36 1945.15 2259.49 1945.15C2282.62 1945.15 2301.38 1939.24 2315.77 1927.42C2330.16 1915.08 2339.16 1897.86 2342.76 1875.76H2458.41C2453.27 1909.69 2440.67 1939.5 2420.63 1965.2C2401.1 1990.38 2376.17 2010.17 2345.84 2024.56C2315.52 2038.44 2281.33 2045.38 2243.3 2045.38ZM2534.44 2037.67L2623.87 1474.84H2970.82L2954.63 1573.53H2721.02L2700.97 1699.97H2907.6L2892.18 1798.66H2685.55L2663.19 1938.98H2896.81L2881.39 2037.67H2534.44ZM2983.63 2037.67L3073.06 1474.84H3255.79C3294.85 1474.84 3327.75 1482.29 3354.48 1497.2C3381.21 1512.11 3400.48 1533.18 3412.3 1560.42C3424.13 1587.15 3427.21 1618.76 3421.56 1655.26L3389.17 1856.49C3383.52 1892.47 3370.41 1924.08 3349.85 1951.32C3329.29 1978.56 3303.34 1999.89 3271.98 2015.31C3240.63 2030.22 3205.42 2037.67 3166.35 2037.67H2983.63ZM3116.24 1929.73H3183.32C3206.96 1929.73 3227.01 1923.05 3243.45 1909.69C3259.9 1896.32 3269.93 1878.59 3273.52 1856.49L3305.91 1655.26C3308.99 1633.67 3304.36 1616.19 3292.03 1602.83C3279.69 1589.46 3261.7 1582.78 3238.06 1582.78H3170.98L3116.24 1929.73Z" fill="url(#paint21_linear_284_995)"/>
<path d="M1037.98 1686.17L990.484 1625.17H1105.98L1153.48 1686.17H1037.98Z" fill="url(#paint22_linear_284_995)"/>
<path d="M1184.75 2098.67L1136.75 2037.67H1252.55L1300.48 2098.67H1184.75Z" fill="url(#paint23_linear_284_995)"/>
<path d="M1332.98 1893.67L1284.48 1832.17H1376.98L1419.98 1893.67H1332.98Z" fill="url(#paint24_linear_284_995)"/>
<path d="M1783.16 1970.67L1735.48 1910.67H1827.33L1870.49 1970.67H1783.16Z" fill="url(#paint25_linear_284_995)"/>
<path d="M1615.48 2098.67L1567.48 2037.67H1688.48L1736.48 2098.67H1615.48Z" fill="url(#paint26_linear_284_995)"/>
<path d="M1924.48 2098.67L1876.48 2037.67H1991.48L2038.98 2098.67H1924.48Z" fill="url(#paint27_linear_284_995)"/>
<path d="M2428.48 1697.67L2380.48 1636.67H2495.98L2543.98 1697.67H2428.48Z" fill="url(#paint28_linear_284_995)"/>
<path d="M2581.98 2098.67L2534.48 2037.67H2648.48L2685.98 2098.17L2581.98 2098.67Z" fill="url(#paint29_linear_284_995)"/>
<path d="M2732.98 1859.67L2685.48 1798.67H2799.48L2836.98 1859.17L2732.98 1859.67Z" fill="url(#paint30_linear_284_995)"/>
<path d="M2768.98 1634.67L2721.48 1573.67H2835.48L2872.98 1634.17L2768.98 1634.67Z" fill="url(#paint31_linear_284_995)"/>
<path d="M3218.98 1643.77L3170.98 1582.78L3241.28 1582.78L3286.46 1643.77H3218.98Z" fill="url(#paint32_linear_284_995)"/>
<path d="M3031.63 2098.65L2983.66 2037.67H3100.29L3138.71 2098.65H3031.63Z" fill="url(#paint33_linear_284_995)"/>
<path d="M2881.39 2037.67L2896.79 1938.98L2944.81 1999.98L2929.38 2098.67L2881.39 2037.67Z" fill="url(#paint34_linear_284_995)"/>
<path d="M2892.17 1798.65L2907.6 1699.97L2955.67 1760.95L2940.18 1859.67L2892.17 1798.65Z" fill="url(#paint35_linear_284_995)"/>
<path d="M2954.58 1573.47L2970.81 1474.85L3019.01 1536.08L3002.62 1634.53L2954.58 1573.47Z" fill="url(#paint36_linear_284_995)"/>
<defs>
<filter id="filter0_d_284_995" x="388.066" y="735.66" width="5200.32" height="672.301" filterUnits="userSpaceOnUse" color-interpolation-filters="sRGB">
<feFlood flood-opacity="0" result="BackgroundImageFix"/>
<feColorMatrix in="SourceAlpha" type="matrix" values="0 0 0 0 0 0 0 0 0 0 0 0 0 0 0 0 0 0 127 0" result="hardAlpha"/>
<feOffset dy="50"/>
<feGaussianBlur stdDeviation="2"/>
<feComposite in2="hardAlpha" operator="out"/>
<feColorMatrix type="matrix" values="0 0 0 0 0 0 0 0 0 0 0 0 0 0 0 0 0 0 0.25 0"/>
<feBlend mode="normal" in2="BackgroundImageFix" result="effect1_dropShadow_284_995"/>
<feBlend mode="normal" in="SourceGraphic" in2="effect1_dropShadow_284_995" result="shape"/>
</filter>
<linearGradient id="paint0_linear_284_995" x1="2960" y1="755.5" x2="2960" y2="2341.5" gradientUnits="userSpaceOnUse">
<stop stop-color="#F22310"/>
<stop offset="0.642915" stop-color="#320703"/>
</linearGradient>
<linearGradient id="paint1_linear_284_995" x1="4294.09" y1="1311.67" x2="4294.09" y2="2329.67" gradientUnits="userSpaceOnUse">
<stop stop-color="#2D0401"/>
<stop offset="1" stop-color="#C62D1F"/>
</linearGradient>
<linearGradient id="paint2_linear_284_995" x1="4279.59" y1="1367.01" x2="4237.84" y2="1653.9" gradientUnits="userSpaceOnUse">
<stop stop-color="#02BFE7"/>
<stop offset="1" stop-color="#60120B"/>
</linearGradient>
<linearGradient id="paint3_linear_284_995" x1="4534.04" y1="1367.01" x2="4492.29" y2="1653.9" gradientUnits="userSpaceOnUse">
<stop stop-color="#02BFE7"/>
<stop offset="1" stop-color="#60120B"/>
</linearGradient>
<linearGradient id="paint4_linear_284_995" x1="3539.14" y1="2041.32" x2="3815.26" y2="2070.29" gradientUnits="userSpaceOnUse">
<stop stop-color="#C62D1F"/>
<stop offset="0.474761" stop-color="#9C2217"/>
</linearGradient>
<linearGradient id="paint5_linear_284_995" x1="4001.86" y1="2041.32" x2="4277.98" y2="2070.29" gradientUnits="userSpaceOnUse">
<stop stop-color="#C62D1F"/>
<stop offset="0.474761" stop-color="#9C2217"/>
</linearGradient>
<linearGradient id="paint6_linear_284_995" x1="3972.16" y1="1475.67" x2="4023.09" y2="1697.25" gradientUnits="userSpaceOnUse">
<stop stop-color="#02BFE7"/>
<stop offset="0.572917" stop-color="#60120B"/>
</linearGradient>
<linearGradient id="paint7_linear_284_995" x1="4246.09" y1="1250.67" x2="4246.09" y2="2268.67" gradientUnits="userSpaceOnUse">
<stop offset="0.473958" stop-color="#02BFE7"/>
<stop offset="1" stop-color="#046B99"/>
</linearGradient>
<linearGradient id="paint8_linear_284_995" x1="4661.23" y1="1653.71" x2="5028.98" y2="1560.82" gradientUnits="userSpaceOnUse">
<stop offset="0.197917" stop-color="#C62D1F"/>
<stop offset="0.59531" stop-color="#5A100A"/>
<stop offset="0.619792" stop-color="#5A100A"/>
</linearGradient>
<linearGradient id="paint9_linear_284_995" x1="4403.2" y1="1653.71" x2="4770.95" y2="1560.82" gradientUnits="userSpaceOnUse">
<stop offset="0.197917" stop-color="#C62D1F"/>
<stop offset="0.59531" stop-color="#5A100A"/>
<stop offset="0.619792" stop-color="#5A100A"/>
</linearGradient>
<linearGradient id="paint10_linear_284_995" x1="4603.28" y1="2098.67" x2="4804.18" y2="2056.38" gradientUnits="userSpaceOnUse">
<stop stop-color="#C62D1F"/>
<stop offset="1" stop-color="#99231B"/>
</linearGradient>
<linearGradient id="paint11_linear_284_995" x1="5012.59" y1="1411.01" x2="4975.25" y2="1685.22" gradientUnits="userSpaceOnUse">
<stop stop-color="#02BFE7"/>
<stop offset="0.767413" stop-color="#61120C"/>
</linearGradient>
<linearGradient id="paint12_linear_284_995" x1="2092.48" y1="1311.67" x2="2092.48" y2="2329.67" gradientUnits="userSpaceOnUse">
<stop stop-color="#2D0401"/>
<stop offset="1" stop-color="#C62D1F"/>
</linearGradient>
<linearGradient id="paint13_linear_284_995" x1="1954.48" y1="1475.17" x2="1986.62" y2="1699.65" gradientUnits="userSpaceOnUse">
<stop stop-color="#046B99"/>
<stop offset="1" stop-color="#6E150E"/>
</linearGradient>
<linearGradient id="paint14_linear_284_995" x1="770.484" y1="2084.67" x2="862.984" y2="2068.17" gradientUnits="userSpaceOnUse">
<stop stop-color="#C62D20"/>
<stop offset="1" stop-color="#A02318"/>
</linearGradient>
<linearGradient id="paint15_linear_284_995" x1="1055.48" y1="1499.17" x2="1181.98" y2="1726.67" gradientUnits="userSpaceOnUse">
<stop stop-color="#046B99"/>
<stop offset="1" stop-color="#99231B"/>
</linearGradient>
<linearGradient id="paint16_linear_284_995" x1="1574.98" y1="1453.67" x2="1602.48" y2="1665.17" gradientUnits="userSpaceOnUse">
<stop stop-color="#046B99"/>
<stop offset="1" stop-color="#66130D"/>
</linearGradient>
<linearGradient id="paint17_linear_284_995" x1="2490.48" y1="1876.67" x2="2418.73" y2="2078.67" gradientUnits="userSpaceOnUse">
<stop stop-color="#861C13"/>
<stop offset="0.609375" stop-color="#9A2117"/>
</linearGradient>
<linearGradient id="paint18_linear_284_995" x1="3468.89" y1="1503.86" x2="3444.05" y2="1629.8" gradientUnits="userSpaceOnUse">
<stop stop-color="#02BFE7"/>
<stop offset="1" stop-color="#61120C"/>
</linearGradient>
<linearGradient id="paint19_linear_284_995" x1="2127.48" y1="2020.17" x2="2163.98" y2="1998.67" gradientUnits="userSpaceOnUse">
<stop stop-color="#C62D1F"/>
<stop offset="1" stop-color="#A22318"/>
</linearGradient>
<linearGradient id="paint20_linear_284_995" x1="2459.48" y1="1358.67" x2="2451.48" y2="1754.17" gradientUnits="userSpaceOnUse">
<stop offset="0.0500997" stop-color="#02BFE7"/>
<stop offset="0.680488" stop-color="#60120B"/>
</linearGradient>
<linearGradient id="paint21_linear_284_995" x1="2044.48" y1="1250.67" x2="2044.48" y2="2268.67" gradientUnits="userSpaceOnUse">
<stop offset="0.473958" stop-color="#02BFE7"/>
<stop offset="1" stop-color="#046B99"/>
</linearGradient>
<linearGradient id="paint22_linear_284_995" x1="1023.28" y1="1594.67" x2="1104.97" y2="1715.71" gradientUnits="userSpaceOnUse">
<stop stop-color="#C62D1F"/>
<stop offset="1" stop-color="#60120B"/>
</linearGradient>
<linearGradient id="paint23_linear_284_995" x1="1108.98" y1="2015.17" x2="1309.46" y2="2098.73" gradientUnits="userSpaceOnUse">
<stop offset="0.360141" stop-color="#C62D1F"/>
<stop offset="1" stop-color="#99231B"/>
</linearGradient>
<linearGradient id="paint24_linear_284_995" x1="1365.98" y1="1845.17" x2="1301.48" y2="1907.17" gradientUnits="userSpaceOnUse">
<stop stop-color="#7D1A11" stop-opacity="0.08"/>
<stop offset="1" stop-color="#C62D1F"/>
</linearGradient>
<linearGradient id="paint25_linear_284_995" x1="1816.29" y1="1923.35" x2="1753.31" y2="1985.63" gradientUnits="userSpaceOnUse">
<stop stop-color="#7D1A11" stop-opacity="0.08"/>
<stop offset="1" stop-color="#C62D1F"/>
</linearGradient>
<linearGradient id="paint26_linear_284_995" x1="1570.98" y1="2040.67" x2="1722.98" y2="2103.17" gradientUnits="userSpaceOnUse">
<stop stop-color="#C62D1F"/>
<stop offset="1" stop-color="#99231B"/>
</linearGradient>
<linearGradient id="paint27_linear_284_995" x1="1879.98" y1="2040.67" x2="2031.98" y2="2103.17" gradientUnits="userSpaceOnUse">
<stop stop-color="#C62D1F"/>
<stop offset="1" stop-color="#99231B"/>
</linearGradient>
<linearGradient id="paint28_linear_284_995" x1="2360.48" y1="1697.67" x2="2577.98" y2="1650.17" gradientUnits="userSpaceOnUse">
<stop stop-color="#C62D1F"/>
<stop offset="1" stop-color="#60120B"/>
</linearGradient>
<linearGradient id="paint29_linear_284_995" x1="2421.98" y1="2106.67" x2="2767.98" y2="2037.67" gradientUnits="userSpaceOnUse">
<stop offset="0.308489" stop-color="#C62D1F"/>
<stop offset="0.619792" stop-color="#9F2318"/>
</linearGradient>
<linearGradient id="paint30_linear_284_995" x1="2572.98" y1="1867.67" x2="2918.98" y2="1798.67" gradientUnits="userSpaceOnUse">
<stop offset="0.197917" stop-color="#C62D1F"/>
<stop offset="0.619792" stop-color="#7B1911"/>
</linearGradient>
<linearGradient id="paint31_linear_284_995" x1="2608.98" y1="1642.67" x2="2954.98" y2="1573.67" gradientUnits="userSpaceOnUse">
<stop offset="0.197917" stop-color="#C62D1F"/>
<stop offset="0.619792" stop-color="#5A100A"/>
</linearGradient>
<linearGradient id="paint32_linear_284_995" x1="3028.46" y1="1653.71" x2="3396.21" y2="1560.82" gradientUnits="userSpaceOnUse">
<stop offset="0.197917" stop-color="#C62D1F"/>
<stop offset="0.59531" stop-color="#5A100A"/>
<stop offset="0.619792" stop-color="#5A100A"/>
</linearGradient>
<linearGradient id="paint33_linear_284_995" x1="3038.63" y1="2067.92" x2="3088.26" y2="2067.92" gradientUnits="userSpaceOnUse">
<stop stop-color="#C62D1F"/>
<stop offset="1" stop-color="#A12318"/>
</linearGradient>
<linearGradient id="paint34_linear_284_995" x1="2886.6" y1="2235.71" x2="2930.03" y2="1946.61" gradientUnits="userSpaceOnUse">
<stop stop-color="#C62D1F"/>
<stop offset="1" stop-color="#99231B"/>
</linearGradient>
<linearGradient id="paint35_linear_284_995" x1="2950.05" y1="1663.61" x2="2903.54" y2="1888.38" gradientUnits="userSpaceOnUse">
<stop stop-color="#5A100A"/>
<stop offset="1" stop-color="#99231B"/>
</linearGradient>
<linearGradient id="paint36_linear_284_995" x1="3015.72" y1="1424.22" x2="2988.01" y2="1625.33" gradientUnits="userSpaceOnUse">
<stop stop-color="#02BFE7"/>
<stop offset="1" stop-color="#5C110B"/>
</linearGradient>
</defs>
</svg>
