<svg width="2019" height="391" viewBox="0 0 2019 391" fill="none" xmlns="http://www.w3.org/2000/svg">
<g filter="url(#filter0_d_13_103)">
<path d="M2179 319.857C2172.24 316.548 2166.68 317.607 2159.33 316.085C2154.57 315.092 2149.64 314.861 2145.16 312.776C2129.16 305.153 1805.12 305.226 1788.11 300.254C1786.76 299.851 1785.38 299.568 1783.98 299.41C1777.62 298.748 1771.3 297.871 1764.96 297.326C1760.28 296.928 1755.66 295.671 1750.86 296.598C1746.07 297.524 1741.35 297.871 1736.62 298.715C1731.89 299.559 1727.06 299.559 1722.55 301.395C1716.36 303.893 1710.15 306.275 1703.96 308.74C1702.26 309.345 1700.48 309.723 1698.68 309.865C1690.38 310.725 1682.18 311.205 1674.02 312.479C1672.51 312.934 1670.92 313.036 1669.37 312.776C1660.94 310.555 1652.38 308.859 1643.74 307.698C1629.73 305.523 1615.59 304.236 1601.42 303.843C1593.32 303.645 1586.73 300.038 1580.14 296.449C1574.45 293.322 1568.95 289.65 1562.93 287.367C1547.62 281.56 1532.3 275.506 1515.71 274.232C1510.84 273.851 1506.06 272.578 1501.13 273.09C1497.3 273.487 1493.46 273.851 1489.63 274.348C1487.82 274.579 1486.64 274.662 1487.04 272.164C1487.44 269.666 1487.37 266.688 1487.62 263.893C1487.74 262.586 1487.34 262.007 1485.96 262.238C1484.58 262.47 1483.84 261.891 1484.05 260.386C1484.22 259.178 1483.55 258.979 1482.49 259.013C1479.17 259.112 1475.7 259.112 1472.32 259.145C1471.54 259.145 1470.99 259.294 1470.38 258.185C1469.76 257.077 1467.72 257.259 1467.06 255.704C1467.06 255.605 1466.26 255.605 1466.19 255.704C1465 258.169 1462.74 257.077 1461.05 256.978C1458.54 256.845 1457.86 257.673 1458.28 259.972C1458.39 260.65 1458.94 261.775 1457.33 261.759C1456.27 261.759 1454.76 261.229 1454.21 262.04C1453.66 262.851 1453.94 264.29 1453.88 265.448C1453.88 265.911 1453.88 266.391 1453.88 266.854C1453.88 267.731 1453.99 268.227 1452.5 268.078C1451.01 267.929 1448.12 266.755 1447.32 269.947C1447.19 270.46 1446.33 270.146 1445.79 270.129C1442.01 269.997 1438.23 269.699 1434.46 269.732C1432.27 269.732 1431.87 268.889 1431.9 266.953C1431.9 262.09 1431.79 257.226 1431.8 252.362C1431.8 251.055 1431.49 250.51 1430.14 250.708C1429.49 250.708 1428.27 251.039 1428.25 250.394C1428.25 248.872 1426.84 247.946 1426.94 246.275C1426.99 242.962 1426.86 239.649 1426.56 236.349C1426.56 235.754 1426.71 234.926 1425.76 234.943C1424.43 234.943 1424.73 234.099 1424.75 233.289C1424.86 230.46 1424.98 227.631 1425.15 224.819C1425.15 223.793 1425.05 223.065 1423.8 223.28C1422.04 223.595 1421.81 222.668 1421.73 221.179C1421.35 213.983 1420.85 206.787 1420.37 199.674C1420.37 199.095 1420.55 198.185 1419.65 198.202C1418.76 198.218 1419.05 199.211 1419.1 199.707C1419.37 203.396 1418.41 207.002 1418.44 210.691C1418.47 214.38 1417.84 217.871 1417.64 221.477C1417.64 222.734 1417.06 223.214 1415.98 223.131C1413.74 222.883 1413.38 223.959 1413.58 225.927C1413.84 228.425 1413.79 230.89 1413.88 233.454C1413.88 234.05 1413.88 234.562 1413.03 234.496C1412.18 234.43 1412.35 233.984 1412.33 233.504V231.965C1412.33 217.755 1412.45 203.545 1412.33 189.335C1412.33 185.348 1413.35 181.063 1410.54 177.54C1410.41 177.391 1410.54 177.077 1410.54 176.845C1410.44 168.574 1410.21 160.302 1410.31 152.13C1410.34 149.559 1409.84 147.009 1408.85 144.636C1408.67 144.127 1408.35 143.678 1407.93 143.339C1407.5 143 1406.99 142.785 1406.46 142.717C1403.41 142.395 1400.33 142.395 1397.28 142.717C1390.84 142.932 1384.38 143.66 1377.98 142.155C1377.49 141.979 1376.96 141.932 1376.45 142.019C1375.94 142.106 1375.46 142.324 1375.05 142.651C1374.49 143.204 1373.8 143.61 1373.05 143.832C1372.29 144.055 1371.49 144.086 1370.72 143.925C1369.94 143.853 1369.15 144.009 1368.46 144.373C1367.76 144.737 1367.19 145.294 1366.8 145.976C1365.15 148.476 1364.28 151.404 1364.28 154.396C1364.02 160.832 1363.83 167.267 1363.78 173.702C1363.78 175.356 1363.17 175.704 1361.74 175.356C1358.99 174.971 1356.21 174.86 1353.44 175.025C1352.98 175.025 1352.05 174.794 1352.2 175.604C1352.58 177.639 1351.12 177.159 1350.19 177.06C1347.92 176.812 1346.67 177.358 1347.47 179.922C1347.47 180.154 1347.47 180.402 1347.47 180.633C1347.85 182.552 1347.47 183.628 1345.11 183.247C1343.93 183.148 1342.74 183.148 1341.56 183.247C1341.03 183.178 1340.5 183.23 1340 183.401C1339.5 183.572 1339.05 183.856 1338.67 184.231C1338.3 184.606 1338.02 185.062 1337.86 185.563C1337.69 186.064 1337.65 186.596 1337.72 187.118C1337.63 188.528 1337.63 189.943 1337.72 191.353C1338.04 193.768 1337.23 194.81 1334.74 194.314C1332.25 193.818 1331.42 194.777 1331.9 197.143C1331.92 197.374 1331.92 197.607 1331.9 197.838C1331.9 202.8 1331.9 202.801 1327.02 203.115C1325.61 203.115 1325.18 203.561 1325.21 205.001C1325.34 211.75 1325.36 218.516 1325.39 225.265C1325.39 230.228 1325.39 235.059 1325.39 240.154C1324.98 240.127 1324.59 240.016 1324.23 239.826C1323.86 239.637 1323.55 239.373 1323.29 239.054C1323.04 238.734 1322.86 238.365 1322.75 237.97C1322.65 237.576 1322.64 237.164 1322.7 236.763C1322.87 229.318 1322.82 221.874 1322.82 214.397C1322.82 213.669 1323.22 212.743 1322.32 212.246C1320.8 211.011 1318.95 210.246 1316.99 210.046C1310.45 210.046 1303.9 209.815 1297.36 209.831C1295.47 209.831 1294.84 209.401 1294.85 207.366C1294.97 197.325 1294.85 187.267 1294.85 177.225C1294.85 173.454 1294.85 173.52 1291.17 173.222C1284.18 172.66 1277.19 172.081 1270.2 171.419C1262.22 170.504 1254.16 170.415 1246.15 171.154C1244.88 171.287 1244.49 171.601 1244.49 172.941C1244.69 177.904 1244.68 182.999 1244.86 188.011C1244.86 189.302 1244.63 189.947 1243.28 189.897C1241.62 189.897 1241.29 190.575 1241.32 192.163C1241.47 201.262 1241.51 210.36 1241.54 219.475C1241.54 220.038 1241.97 220.815 1241.17 221.13C1241.03 221.203 1240.86 221.245 1240.7 221.253C1240.53 221.261 1240.36 221.235 1240.21 221.176C1240.05 221.117 1239.91 221.027 1239.79 220.911C1239.67 220.794 1239.58 220.655 1239.51 220.501C1239.12 219.542 1238.34 219.707 1237.72 219.906C1236.06 220.451 1235.53 219.906 1235.7 218.251C1235.86 216.597 1235.2 215.952 1233.66 215.77C1232.97 215.602 1232.3 215.381 1231.65 215.108C1230.43 214.849 1229.34 214.159 1228.59 213.165C1227.83 212.172 1227.46 210.941 1227.55 209.699C1227.37 203.892 1227.15 198.119 1226.97 192.279C1226.96 190.753 1226.57 189.252 1225.84 187.912C1225.14 189.113 1224.85 190.504 1225.01 191.882C1225.11 198.317 1225.11 204.752 1225.29 211.188C1225.29 212.842 1224.94 213.487 1223.12 213.487C1216.48 213.487 1209.84 213.719 1203.2 213.685C1201.11 213.685 1200.18 214.198 1200.51 216.415C1200.77 217.648 1200.77 218.921 1200.51 220.154C1199.98 221.891 1198.15 220.6 1197.06 221.179C1196.81 221.352 1196.55 221.507 1196.28 221.643C1195.8 221.791 1195.22 221.643 1195.13 221.146C1194.73 218.334 1192.64 219.029 1190.97 219.211C1189.29 219.393 1188.64 218.896 1188.63 217.011C1188.63 205.629 1188.38 194.248 1188.34 182.866C1188.34 180.848 1187.98 179.905 1185.7 180.137C1183.42 180.269 1181.13 180.269 1178.85 180.137C1178.28 180.137 1177.36 180.484 1177.29 179.558C1177.16 177.54 1175.78 177.904 1174.45 177.904C1172.56 177.788 1170.66 177.788 1168.77 177.904C1166.27 178.234 1165.8 177.225 1165.92 174.976C1166.1 171.22 1165.92 171.138 1162.35 170.79C1160.51 170.608 1159.89 169.897 1159.76 168.028C1159.53 164.57 1158.92 161.146 1158.45 157.705C1157.9 161.297 1157.6 164.923 1157.55 168.557C1157.55 169.682 1157.29 170.013 1156.09 169.914C1150.35 169.434 1144.61 169.152 1138.88 168.623C1131.21 167.713 1123.45 167.713 1115.78 168.623C1114.43 168.805 1113.88 169.169 1113.97 170.625C1114.1 172.809 1113.97 175.009 1113.97 177.242C1113.97 182.635 1113.97 182.552 1108.47 182.966C1106.68 183.098 1106.27 182.668 1106.28 180.881C1106.38 169.732 1106.28 158.582 1106.38 147.432C1106.38 145.48 1107.05 143.081 1106.15 141.675C1105.25 140.269 1102.58 140.782 1100.69 140.534C1099.49 140.368 1098.91 139.938 1098.95 138.598C1098.95 136.249 1098.85 133.884 1098.83 131.534C1098.76 130.869 1098.51 130.234 1098.11 129.696C1097.71 129.158 1097.18 128.736 1096.56 128.474C1095.56 127.878 1095.25 129.433 1094.55 129.93C1093.98 130.349 1093.54 130.924 1093.3 131.585C1093.05 132.245 1093 132.963 1093.15 133.652C1093.35 135.306 1093.42 137.093 1093.55 138.813C1093.55 139.326 1093.55 139.74 1092.84 139.723C1092.12 139.707 1092.06 139.508 1092.14 139.028C1092.44 137.374 1091.51 136.828 1089.98 136.927C1089.64 136.927 1089.32 136.696 1089.4 136.365C1090.18 133.387 1088.01 133.9 1086.43 133.95C1084.85 133.999 1083.78 133.503 1084.39 131.568C1084.81 130.261 1084.39 129.649 1082.9 129.797C1082.27 129.797 1081.63 129.797 1081 129.797C1079.49 129.897 1078.58 129.467 1078.86 127.713C1079.01 126.77 1078.86 125.91 1077.55 126.059C1076.24 126.208 1076.07 125.529 1076.11 124.404C1076.29 119.442 1076.27 114.347 1076.62 109.351C1076.77 107.051 1075.2 106.042 1074.07 104.619C1074.01 104.537 1073.94 104.47 1073.86 104.423C1073.77 104.376 1073.67 104.352 1073.58 104.352C1073.48 104.352 1073.38 104.376 1073.3 104.423C1073.21 104.47 1073.14 104.537 1073.09 104.619C1072.01 105.91 1070.51 106.803 1070.55 108.887C1070.55 113.751 1070.46 118.631 1070.43 123.495C1070.43 124.851 1070.81 126.456 1068.46 126.125C1067.76 126.026 1067.44 126.588 1067.59 127.2C1068.12 129.632 1066.65 129.764 1064.9 129.549C1063.58 129.367 1062.91 129.996 1062.95 131.204C1062.95 132.759 1062.17 133.023 1060.84 133.321C1059.51 133.619 1056.56 132.742 1057.29 136.067C1057.13 136.217 1056.92 136.309 1056.7 136.332C1055.36 136.183 1055.31 136.795 1055.66 137.837C1056.01 138.879 1055.29 139.111 1054.4 139.21C1053.5 139.31 1053.3 138.697 1053.32 137.92C1053.24 135.885 1053.27 133.847 1053.42 131.816C1053.72 129.5 1052.09 128.739 1050.61 128.044C1049.63 127.581 1047.48 130.459 1047.51 132.014L1047.61 135.786C1047.71 140.418 1047.71 140.517 1043.04 140.501C1041.1 140.501 1040.59 140.997 1040.57 142.965C1040.57 157.424 1040.29 171.866 1040.12 186.307C1040.12 187.283 1040.42 188.293 1038.68 188.226C1031.54 187.962 1024.65 189.881 1017.6 190.625C1016.19 190.774 1015.72 191.353 1015.74 192.891C1015.91 203.561 1015.92 214.231 1016.04 224.918C1016.04 226.341 1015.86 226.969 1014.2 226.969C1010.65 226.969 1007.09 226.969 1003.56 227.35C1001.27 227.565 1000.75 226.903 1000.77 224.62C1000.99 179.723 1001.05 134.81 1001.37 89.913C1001.37 87.0345 998.263 85.5291 999.193 82.6507C999.193 82.6507 998.845 82.3033 998.645 82.2702C997.118 81.9725 997.251 80.8475 997.268 79.7226C997.351 74.9418 997.384 70.1445 997.45 65.3636C997.45 64.3876 997.55 63.5438 996.139 63.3784C989.732 62.634 983.342 61.5918 976.918 61.0789C970.827 60.5827 964.935 62.5679 958.91 63.0973C957.117 63.2462 956.437 63.8912 956.52 65.8267C956.686 70.5414 956.52 75.2561 956.52 79.9542C956.52 81.6085 956.154 82.4025 954.461 82.1709C954.201 82.1024 953.929 82.0892 953.663 82.1319C953.397 82.1747 953.143 82.2724 952.918 82.4191C952.711 82.6771 952.561 82.9749 952.475 83.2937C952.389 83.6125 952.37 83.9455 952.42 84.2719C952.569 86.1081 951.772 155.008 950.577 252.379C948.358 256.873 944.905 260.648 940.619 263.264C929.465 269.881 917.481 265.282 915.921 264.637C915.851 264.642 915.782 264.633 915.716 264.61C915.651 264.587 915.59 264.551 915.539 264.505C915.257 264.257 915.406 263.694 915.373 263.297C915.348 262.983 915.348 262.668 915.373 262.354C915.439 242.966 915.522 223.578 915.622 204.19C915.656 202.789 915.306 201.405 914.61 200.187C907.97 188.127 901.182 176.117 894.792 163.908C892.717 159.922 890.227 157.291 885.63 156.828C884.119 156.646 883.439 156.828 882.675 158.102C874.929 171.634 867.145 185.138 859.322 198.615C858.816 199.495 858.563 200.496 858.591 201.51C858.741 215.638 858.824 229.765 858.94 243.892C858.94 249.798 858.94 249.848 853.197 249.881C851.72 249.881 850.824 250.245 850.392 251.701C850.176 252.379 850.093 253.57 849.247 253.52C847.371 253.405 848.085 254.645 847.902 255.505C847.72 256.366 848.467 257.342 847.288 257.408C845.413 257.524 843.338 258.07 841.695 257.176C839.338 255.903 838.89 257.176 838.74 258.831C838.641 259.922 838.292 260.022 837.313 260.005C834.557 260.005 831.802 260.005 829.014 260.171C827.703 260.171 826.806 260.171 826.723 258.516C826.64 256.862 825.893 255.952 823.769 255.886C817.594 255.721 811.486 256.564 805.328 256.498C803.353 256.498 802.739 257.11 802.922 259.062C803.171 261.957 803.121 264.869 803.27 267.764C803.27 268.822 802.839 269.104 801.909 269.186C800.98 269.269 800.88 268.624 801.046 268.012C801.461 266.523 800.515 266.506 799.503 266.473C793.046 266.291 786.573 266.142 780.116 265.861C778.556 265.861 778.158 266.258 778.141 267.764C778.141 274.381 777.975 281.114 777.842 287.78C777.842 288.426 778.224 289.534 777.344 289.633C774.539 289.931 771.502 290.626 768.962 289.633C767.511 288.958 765.933 288.597 764.331 288.574H758.655L733.874 284.803C733.974 280.253 734.007 275.688 734.024 271.138C734.267 229.848 734.488 188.557 734.688 147.267C734.629 146.651 734.732 146.031 734.989 145.468C735.245 144.905 735.645 144.418 736.148 144.057C739.916 141.427 741.808 137.44 743.717 133.52C746.538 127.63 745.045 121.725 743.318 116.133C741.571 111.109 738.181 106.815 733.692 103.941C730.943 101.986 727.759 100.725 724.413 100.269C719.632 99.4274 714.705 100.208 710.421 102.485C707.971 103.908 705.669 105.57 703.55 107.448C699.033 111.636 696.32 117.405 695.981 123.544C695.417 129.4 698.056 134.297 700.794 139.194C702.091 141.627 704.069 143.633 706.487 144.967C707.141 145.279 707.678 145.791 708.021 146.427C708.364 147.063 708.496 147.792 708.396 148.507C708.264 173.619 708.23 198.747 708.147 223.859C708.147 234.463 707.998 245.067 707.882 255.654C707.882 256.366 708.347 257.524 707.317 257.689C705.658 257.954 703.168 258.583 702.338 257.689C700.562 256.035 698.487 256.448 696.645 255.737C696.23 255.572 695.466 255.373 695.383 255.836C695.051 257.706 693.607 257.011 692.612 257.094C690.006 257.292 687.4 257.342 684.81 257.458C684.296 257.458 683.333 257.309 683.383 257.871C683.516 259.244 682.437 260.154 682.288 261.18C682.105 262.602 681.458 262.569 680.462 262.569C676.993 262.569 673.507 262.569 670.038 262.569C668.76 262.569 668.478 262.189 668.495 260.915C668.495 256.763 668.495 252.644 668.495 248.442C668.495 246.787 668.163 246.142 666.32 246.208C659.864 246.39 653.391 246.209 646.917 246.506C644.975 246.506 644.66 245.927 644.66 244.174C644.743 232.478 644.66 220.782 644.66 209.087C644.66 208.375 645.141 207.201 644.096 207.068C642.602 206.87 642.95 205.91 642.884 205.05C642.784 203.727 642.685 202.387 642.618 201.063C642.618 200.22 642.253 199.889 641.34 199.806C635.946 199.244 630.601 198.152 625.107 198.582C621.34 198.83 617.539 198.83 613.755 198.896C609.97 198.963 609.771 198.896 609.954 202.751C610.07 204.934 609.622 205.911 607.215 205.547C605.671 205.332 604.061 205.547 602.485 205.547C601.456 205.547 601.124 205.828 601.173 206.87C601.173 208.739 601.173 210.642 601.29 212.511C601.422 214.165 601.007 214.695 599.281 214.612C595.961 214.463 592.642 214.612 589.322 214.612C587.978 214.612 587.347 214.744 587.43 216.266C587.663 220.27 587.546 224.289 587.829 228.276C587.995 230.311 587.513 231.006 585.389 231.039C581.77 231.039 578.152 231.601 574.534 231.75C573.007 231.75 572.774 232.428 572.874 233.752C572.973 237.606 572.874 241.444 573.023 245.332C573.123 247.366 572.675 248.127 570.417 248.028C565.521 247.83 565.438 248.028 565.139 252.792C564.957 257.11 562.583 261.064 563.479 265.53C563.695 266.639 562.865 266.523 562.118 266.506C560.16 266.506 558.185 266.506 556.209 266.341C555.798 266.28 555.378 266.376 555.034 266.609C554.69 266.841 554.446 267.195 554.35 267.598C552.89 271.651 551.23 275.605 551.479 280.055C551.509 282.093 551.415 284.132 551.197 286.159C551.197 286.655 551.429 287.565 550.749 287.499C548.84 287.35 549.454 288.922 549.089 290.063C548.076 287.549 546.068 288.541 544.508 288.409C542.948 288.277 543.761 289.782 543.412 290.51C543.263 290.841 543.313 291.42 542.831 291.387C540.425 291.172 538.532 293.471 535.893 292.578C534.245 292.335 532.58 292.23 530.914 292.263C529.686 292.065 529.503 292.909 528.839 293.62C529.885 287.102 527.976 280.816 528.026 274.43C528.026 273.636 528.026 272.776 528.026 272.065C528.026 271.618 528.026 270.791 527.794 270.758C526.134 270.427 526.682 269.104 526.632 268.111C526.532 265.994 526.632 263.876 526.549 261.759C526.435 261.128 526.474 260.48 526.661 259.867C526.849 259.254 527.18 258.695 527.628 258.235C523.727 257.97 519.959 258.003 516.208 257.954C515.478 257.954 514.748 258.152 514.001 257.507C511.71 255.522 508.756 256.895 506.2 256.151C505.27 258.351 503.461 257.226 502.05 257.077C500.175 256.879 499.594 257.342 499.743 259.31C500.075 263.727 499.959 263.86 495.61 263.595C493.502 263.479 492.938 264.025 492.971 266.143C493.154 277.921 493.137 289.683 493.286 301.461C493.286 303.115 492.988 303.744 491.112 303.678C483.709 303.397 476.29 303.314 468.887 303.132C468.327 303.115 467.771 303.038 467.228 302.9C460.837 301.246 454.364 299.923 448.074 297.938C437.811 294.629 427.027 293.222 416.255 293.785C410.828 294.1 405.367 293.785 399.923 293.785C398.979 293.785 398.036 293.851 397.101 293.984C389.084 295.125 381.051 296.25 373.051 297.458C369.001 298.07 364.636 298.02 361.017 299.625C348.635 305.117 335.509 314.888 323.89 322.034C323.472 322.385 322.968 322.62 322.429 322.713C317.45 322.613 312.172 323.341 307.491 321.455C296.412 317.17 284.681 314.798 272.802 314.441C272.802 314.441 251.988 313.664 241.581 313.333C238.822 313.04 236.04 313.04 233.282 313.333C228.651 314.177 111.543 312.787 106.862 313.333C-242.801 309.147 -179.436 336.372 -184.448 339.746C371.584 342.84 1622.82 316.548 2178.8 319.642" fill="black"/>
<path d="M2179 319.857C2172.24 316.548 2166.68 317.607 2159.33 316.085C2154.57 315.092 2149.64 314.861 2145.16 312.776C2129.16 305.153 1805.12 305.226 1788.11 300.254C1786.76 299.851 1785.38 299.568 1783.98 299.41C1777.62 298.748 1771.3 297.871 1764.96 297.326C1760.28 296.928 1755.66 295.671 1750.86 296.598C1746.07 297.524 1741.35 297.871 1736.62 298.715C1731.89 299.559 1727.06 299.559 1722.55 301.395C1716.36 303.893 1710.15 306.275 1703.96 308.74C1702.26 309.345 1700.48 309.723 1698.68 309.865C1690.38 310.725 1682.18 311.205 1674.02 312.479C1672.51 312.934 1670.92 313.036 1669.37 312.776C1660.94 310.555 1652.38 308.859 1643.74 307.698C1629.73 305.523 1615.59 304.236 1601.42 303.843C1593.32 303.645 1586.73 300.038 1580.14 296.449C1574.45 293.322 1568.95 289.65 1562.93 287.367C1547.62 281.56 1532.3 275.506 1515.71 274.232C1510.84 273.851 1506.06 272.578 1501.13 273.09C1497.3 273.487 1493.46 273.851 1489.63 274.348C1487.82 274.579 1486.64 274.662 1487.04 272.164C1487.44 269.666 1487.37 266.688 1487.62 263.893C1487.74 262.586 1487.34 262.007 1485.96 262.238C1484.58 262.47 1483.84 261.891 1484.05 260.386C1484.22 259.178 1483.55 258.979 1482.49 259.013C1479.17 259.112 1475.7 259.112 1472.32 259.145C1471.54 259.145 1470.99 259.294 1470.38 258.185C1469.76 257.077 1467.72 257.259 1467.06 255.704C1467.06 255.605 1466.26 255.605 1466.19 255.704C1465 258.169 1462.74 257.077 1461.05 256.978C1458.54 256.845 1457.86 257.673 1458.28 259.972C1458.39 260.65 1458.94 261.775 1457.33 261.759C1456.27 261.759 1454.76 261.229 1454.21 262.04C1453.66 262.851 1453.94 264.29 1453.88 265.448C1453.88 265.911 1453.88 266.391 1453.88 266.854C1453.88 267.731 1453.99 268.227 1452.5 268.078C1451.01 267.929 1448.12 266.755 1447.32 269.947C1447.19 270.46 1446.33 270.146 1445.79 270.129C1442.01 269.997 1438.23 269.699 1434.46 269.732C1432.27 269.732 1431.87 268.889 1431.9 266.953C1431.9 262.09 1431.79 257.226 1431.8 252.362C1431.8 251.055 1431.49 250.51 1430.14 250.708C1429.49 250.708 1428.27 251.039 1428.25 250.394C1428.25 248.872 1426.84 247.946 1426.94 246.275C1426.99 242.962 1426.86 239.649 1426.56 236.349C1426.56 235.754 1426.71 234.926 1425.76 234.943C1424.43 234.943 1424.73 234.099 1424.75 233.289C1424.86 230.46 1424.98 227.631 1425.15 224.819C1425.15 223.793 1425.05 223.065 1423.8 223.28C1422.04 223.595 1421.81 222.668 1421.73 221.179C1421.35 213.983 1420.85 206.787 1420.37 199.674C1420.37 199.095 1420.55 198.185 1419.65 198.202C1418.76 198.218 1419.05 199.211 1419.1 199.707C1419.37 203.396 1418.41 207.002 1418.44 210.691C1418.47 214.38 1417.84 217.871 1417.64 221.477C1417.64 222.734 1417.06 223.214 1415.98 223.131C1413.74 222.883 1413.38 223.959 1413.58 225.927C1413.84 228.425 1413.79 230.89 1413.88 233.454C1413.88 234.05 1413.88 234.562 1413.03 234.496C1412.18 234.43 1412.35 233.984 1412.33 233.504V231.965C1412.33 217.755 1412.45 203.545 1412.33 189.335C1412.33 185.348 1413.35 181.063 1410.54 177.54C1410.41 177.391 1410.54 177.077 1410.54 176.845C1410.44 168.574 1410.21 160.302 1410.31 152.13C1410.34 149.559 1409.84 147.009 1408.85 144.636C1408.67 144.127 1408.35 143.678 1407.93 143.339C1407.5 143 1406.99 142.785 1406.46 142.717C1403.41 142.395 1400.33 142.395 1397.28 142.717C1390.84 142.932 1384.38 143.66 1377.98 142.155C1377.49 141.979 1376.96 141.932 1376.45 142.019C1375.94 142.106 1375.46 142.324 1375.05 142.651C1374.49 143.204 1373.8 143.61 1373.05 143.832C1372.29 144.055 1371.49 144.086 1370.72 143.925C1369.94 143.853 1369.15 144.009 1368.46 144.373C1367.76 144.737 1367.19 145.294 1366.8 145.976C1365.15 148.476 1364.28 151.404 1364.28 154.396C1364.02 160.832 1363.83 167.267 1363.78 173.702C1363.78 175.356 1363.17 175.704 1361.74 175.356C1358.99 174.971 1356.21 174.86 1353.44 175.025C1352.98 175.025 1352.05 174.794 1352.2 175.604C1352.58 177.639 1351.12 177.159 1350.19 177.06C1347.92 176.812 1346.67 177.358 1347.47 179.922C1347.47 180.154 1347.47 180.402 1347.47 180.633C1347.85 182.552 1347.47 183.628 1345.11 183.247C1343.93 183.148 1342.74 183.148 1341.56 183.247C1341.03 183.178 1340.5 183.23 1340 183.401C1339.5 183.572 1339.05 183.856 1338.67 184.231C1338.3 184.606 1338.02 185.062 1337.86 185.563C1337.69 186.064 1337.65 186.596 1337.72 187.118C1337.63 188.528 1337.63 189.943 1337.72 191.353C1338.04 193.768 1337.23 194.81 1334.74 194.314C1332.25 193.818 1331.42 194.777 1331.9 197.143C1331.92 197.374 1331.92 197.607 1331.9 197.838C1331.9 202.8 1331.9 202.801 1327.02 203.115C1325.61 203.115 1325.18 203.561 1325.21 205.001C1325.34 211.75 1325.36 218.516 1325.39 225.265C1325.39 230.228 1325.39 235.059 1325.39 240.154C1324.98 240.127 1324.59 240.016 1324.23 239.826C1323.86 239.637 1323.55 239.373 1323.29 239.054C1323.04 238.734 1322.86 238.365 1322.75 237.97C1322.65 237.576 1322.64 237.164 1322.7 236.763C1322.87 229.318 1322.82 221.874 1322.82 214.397C1322.82 213.669 1323.22 212.743 1322.32 212.246C1320.8 211.011 1318.95 210.246 1316.99 210.046C1310.45 210.046 1303.9 209.815 1297.36 209.831C1295.47 209.831 1294.84 209.401 1294.85 207.366C1294.97 197.325 1294.85 187.267 1294.85 177.225C1294.85 173.454 1294.85 173.52 1291.17 173.222C1284.18 172.66 1277.19 172.081 1270.2 171.419C1262.22 170.504 1254.16 170.415 1246.15 171.154C1244.88 171.287 1244.49 171.601 1244.49 172.941C1244.69 177.904 1244.68 182.999 1244.86 188.011C1244.86 189.302 1244.63 189.947 1243.28 189.897C1241.62 189.897 1241.29 190.575 1241.32 192.163C1241.47 201.262 1241.51 210.36 1241.54 219.475C1241.54 220.038 1241.97 220.815 1241.17 221.13C1241.03 221.203 1240.86 221.245 1240.7 221.253C1240.53 221.261 1240.36 221.235 1240.21 221.176C1240.05 221.117 1239.91 221.027 1239.79 220.911C1239.67 220.794 1239.58 220.655 1239.51 220.501C1239.12 219.542 1238.34 219.707 1237.72 219.906C1236.06 220.451 1235.53 219.906 1235.7 218.251C1235.86 216.597 1235.2 215.952 1233.66 215.77C1232.97 215.602 1232.3 215.381 1231.65 215.108C1230.43 214.849 1229.34 214.159 1228.59 213.165C1227.83 212.172 1227.46 210.941 1227.55 209.699C1227.37 203.892 1227.15 198.119 1226.97 192.279C1226.96 190.753 1226.57 189.252 1225.84 187.912C1225.14 189.113 1224.85 190.504 1225.01 191.882C1225.11 198.317 1225.11 204.752 1225.29 211.188C1225.29 212.842 1224.94 213.487 1223.12 213.487C1216.48 213.487 1209.84 213.719 1203.2 213.685C1201.11 213.685 1200.18 214.198 1200.51 216.415C1200.77 217.648 1200.77 218.921 1200.51 220.154C1199.98 221.891 1198.15 220.6 1197.06 221.179C1196.81 221.352 1196.55 221.507 1196.28 221.643C1195.8 221.791 1195.22 221.643 1195.13 221.146C1194.73 218.334 1192.64 219.029 1190.97 219.211C1189.29 219.393 1188.64 218.896 1188.63 217.011C1188.63 205.629 1188.38 194.248 1188.34 182.866C1188.34 180.848 1187.98 179.905 1185.7 180.137C1183.42 180.269 1181.13 180.269 1178.85 180.137C1178.28 180.137 1177.36 180.484 1177.29 179.558C1177.16 177.54 1175.78 177.904 1174.45 177.904C1172.56 177.788 1170.66 177.788 1168.77 177.904C1166.27 178.234 1165.8 177.225 1165.92 174.976C1166.1 171.22 1165.92 171.138 1162.35 170.79C1160.51 170.608 1159.89 169.897 1159.76 168.028C1159.53 164.57 1158.92 161.146 1158.45 157.705C1157.9 161.297 1157.6 164.923 1157.55 168.557C1157.55 169.682 1157.29 170.013 1156.09 169.914C1150.35 169.434 1144.61 169.152 1138.88 168.623C1131.21 167.713 1123.45 167.713 1115.78 168.623C1114.43 168.805 1113.88 169.169 1113.97 170.625C1114.1 172.809 1113.97 175.009 1113.97 177.242C1113.97 182.635 1113.97 182.552 1108.47 182.966C1106.68 183.098 1106.27 182.668 1106.28 180.881C1106.38 169.732 1106.28 158.582 1106.38 147.432C1106.38 145.48 1107.05 143.081 1106.15 141.675C1105.25 140.269 1102.58 140.782 1100.69 140.534C1099.49 140.368 1098.91 139.938 1098.95 138.598C1098.95 136.249 1098.85 133.884 1098.83 131.534C1098.76 130.869 1098.51 130.234 1098.11 129.696C1097.71 129.158 1097.18 128.736 1096.56 128.474C1095.56 127.878 1095.25 129.433 1094.55 129.93C1093.98 130.349 1093.54 130.924 1093.3 131.585C1093.05 132.245 1093 132.963 1093.15 133.652C1093.35 135.306 1093.42 137.093 1093.55 138.813C1093.55 139.326 1093.55 139.74 1092.84 139.723C1092.12 139.707 1092.06 139.508 1092.14 139.028C1092.44 137.374 1091.51 136.828 1089.98 136.927C1089.64 136.927 1089.32 136.696 1089.4 136.365C1090.18 133.387 1088.01 133.9 1086.43 133.95C1084.85 133.999 1083.78 133.503 1084.39 131.568C1084.81 130.261 1084.39 129.649 1082.9 129.797C1082.27 129.797 1081.63 129.797 1081 129.797C1079.49 129.897 1078.58 129.467 1078.86 127.713C1079.01 126.77 1078.86 125.91 1077.55 126.059C1076.24 126.208 1076.07 125.529 1076.11 124.404C1076.29 119.442 1076.27 114.347 1076.62 109.351C1076.77 107.051 1075.2 106.042 1074.07 104.619C1074.01 104.537 1073.94 104.47 1073.86 104.423C1073.77 104.376 1073.67 104.352 1073.58 104.352C1073.48 104.352 1073.38 104.376 1073.3 104.423C1073.21 104.47 1073.14 104.537 1073.09 104.619C1072.01 105.91 1070.51 106.803 1070.55 108.887C1070.55 113.751 1070.46 118.631 1070.43 123.495C1070.43 124.851 1070.81 126.456 1068.46 126.125C1067.76 126.026 1067.44 126.588 1067.59 127.2C1068.12 129.632 1066.65 129.764 1064.9 129.549C1063.58 129.367 1062.91 129.996 1062.95 131.204C1062.95 132.759 1062.17 133.023 1060.84 133.321C1059.51 133.619 1056.56 132.742 1057.29 136.067C1057.13 136.217 1056.92 136.309 1056.7 136.332C1055.36 136.183 1055.31 136.795 1055.66 137.837C1056.01 138.879 1055.29 139.111 1054.4 139.21C1053.5 139.31 1053.3 138.697 1053.32 137.92C1053.24 135.885 1053.27 133.847 1053.42 131.816C1053.72 129.5 1052.09 128.739 1050.61 128.044C1049.63 127.581 1047.48 130.459 1047.51 132.014L1047.61 135.786C1047.71 140.418 1047.71 140.517 1043.04 140.501C1041.1 140.501 1040.59 140.997 1040.57 142.965C1040.57 157.424 1040.29 171.866 1040.12 186.307C1040.12 187.283 1040.42 188.293 1038.68 188.226C1031.54 187.962 1024.65 189.881 1017.6 190.625C1016.19 190.774 1015.72 191.353 1015.74 192.891C1015.91 203.561 1015.92 214.231 1016.04 224.918C1016.04 226.341 1015.86 226.969 1014.2 226.969C1010.65 226.969 1007.09 226.969 1003.56 227.35C1001.27 227.565 1000.75 226.903 1000.77 224.62C1000.99 179.723 1001.05 134.81 1001.37 89.913C1001.37 87.0345 998.263 85.5291 999.193 82.6507C999.193 82.6507 998.845 82.3033 998.645 82.2702C997.118 81.9725 997.251 80.8475 997.268 79.7226C997.351 74.9418 997.384 70.1445 997.45 65.3636C997.45 64.3876 997.55 63.5438 996.139 63.3784C989.732 62.634 983.342 61.5918 976.918 61.0789C970.827 60.5827 964.935 62.5679 958.91 63.0973C957.117 63.2462 956.437 63.8912 956.52 65.8267C956.686 70.5414 956.52 75.2561 956.52 79.9542C956.52 81.6085 956.154 82.4025 954.461 82.1709C954.201 82.1024 953.929 82.0892 953.663 82.1319C953.397 82.1747 953.143 82.2724 952.918 82.4191C952.711 82.6771 952.561 82.9749 952.475 83.2937C952.389 83.6125 952.37 83.9455 952.42 84.2719C952.569 86.1081 951.772 155.008 950.577 252.379C948.358 256.873 944.905 260.648 940.619 263.264C929.465 269.881 917.481 265.282 915.921 264.637C915.851 264.642 915.782 264.633 915.716 264.61C915.651 264.587 915.59 264.551 915.539 264.505C915.257 264.257 915.406 263.694 915.373 263.297C915.348 262.983 915.348 262.668 915.373 262.354C915.439 242.966 915.522 223.578 915.622 204.19C915.656 202.789 915.306 201.405 914.61 200.187C907.97 188.127 901.182 176.117 894.792 163.908C892.717 159.922 890.227 157.291 885.63 156.828C884.119 156.646 883.439 156.828 882.675 158.102C874.929 171.634 867.145 185.138 859.322 198.615C858.816 199.495 858.563 200.496 858.591 201.51C858.741 215.638 858.824 229.765 858.94 243.892C858.94 249.798 858.94 249.848 853.197 249.881C851.72 249.881 850.824 250.245 850.392 251.701C850.176 252.379 850.093 253.57 849.247 253.52C847.371 253.405 848.085 254.645 847.902 255.505C847.72 256.366 848.467 257.342 847.288 257.408C845.413 257.524 843.338 258.07 841.695 257.176C839.338 255.903 838.89 257.176 838.74 258.831C838.641 259.922 838.292 260.022 837.313 260.005C834.557 260.005 831.802 260.005 829.014 260.171C827.703 260.171 826.806 260.171 826.723 258.516C826.64 256.862 825.893 255.952 823.769 255.886C817.594 255.721 811.486 256.564 805.328 256.498C803.353 256.498 802.739 257.11 802.922 259.062C803.171 261.957 803.121 264.869 803.27 267.764C803.27 268.822 802.839 269.104 801.909 269.186C800.98 269.269 800.88 268.624 801.046 268.012C801.461 266.523 800.515 266.506 799.503 266.473C793.046 266.291 786.573 266.142 780.116 265.861C778.556 265.861 778.158 266.258 778.141 267.764C778.141 274.381 777.975 281.114 777.842 287.78C777.842 288.426 778.224 289.534 777.344 289.633C774.539 289.931 771.502 290.626 768.962 289.633C767.511 288.958 765.933 288.597 764.331 288.574H758.655L733.874 284.803C733.974 280.253 734.007 275.688 734.024 271.138C734.267 229.848 734.488 188.557 734.688 147.267C734.629 146.651 734.732 146.031 734.989 145.468C735.245 144.905 735.645 144.418 736.148 144.057C739.916 141.427 741.808 137.44 743.717 133.52C746.538 127.63 745.045 121.725 743.318 116.133C741.571 111.109 738.181 106.815 733.692 103.941C730.943 101.986 727.759 100.725 724.413 100.269C719.632 99.4274 714.705 100.208 710.421 102.485C707.971 103.908 705.669 105.57 703.55 107.448C699.033 111.636 696.32 117.405 695.981 123.544C695.417 129.4 698.056 134.297 700.794 139.194C702.091 141.627 704.069 143.633 706.487 144.967C707.141 145.279 707.678 145.791 708.021 146.427C708.364 147.063 708.496 147.792 708.396 148.507C708.264 173.619 708.23 198.747 708.147 223.859C708.147 234.463 707.998 245.067 707.882 255.654C707.882 256.366 708.347 257.524 707.317 257.689C705.658 257.954 703.168 258.583 702.338 257.689C700.562 256.035 698.487 256.448 696.645 255.737C696.23 255.572 695.466 255.373 695.383 255.836C695.051 257.706 693.607 257.011 692.612 257.094C690.006 257.292 687.4 257.342 684.81 257.458C684.296 257.458 683.333 257.309 683.383 257.871C683.516 259.244 682.437 260.154 682.288 261.18C682.105 262.602 681.458 262.569 680.462 262.569C676.993 262.569 673.507 262.569 670.038 262.569C668.76 262.569 668.478 262.189 668.495 260.915C668.495 256.763 668.495 252.644 668.495 248.442C668.495 246.787 668.163 246.142 666.32 246.208C659.864 246.39 653.391 246.209 646.917 246.506C644.975 246.506 644.66 245.927 644.66 244.174C644.743 232.478 644.66 220.782 644.66 209.087C644.66 208.375 645.141 207.201 644.096 207.068C642.602 206.87 642.95 205.91 642.884 205.05C642.784 203.727 642.685 202.387 642.618 201.063C642.618 200.22 642.253 199.889 641.34 199.806C635.946 199.244 630.601 198.152 625.107 198.582C621.34 198.83 617.539 198.83 613.755 198.896C609.97 198.963 609.771 198.896 609.954 202.751C610.07 204.934 609.622 205.911 607.215 205.547C605.671 205.332 604.061 205.547 602.485 205.547C601.456 205.547 601.124 205.828 601.173 206.87C601.173 208.739 601.173 210.642 601.29 212.511C601.422 214.165 601.007 214.695 599.281 214.612C595.961 214.463 592.642 214.612 589.322 214.612C587.978 214.612 587.347 214.744 587.43 216.266C587.663 220.27 587.546 224.289 587.829 228.276C587.995 230.311 587.513 231.006 585.389 231.039C581.77 231.039 578.152 231.601 574.534 231.75C573.007 231.75 572.774 232.428 572.874 233.752C572.973 237.606 572.874 241.444 573.023 245.332C573.123 247.366 572.675 248.127 570.417 248.028C565.521 247.83 565.438 248.028 565.139 252.792C564.957 257.11 562.583 261.064 563.479 265.53C563.695 266.639 562.865 266.523 562.118 266.506C560.16 266.506 558.185 266.506 556.209 266.341C555.798 266.28 555.378 266.376 555.034 266.609C554.69 266.841 554.446 267.195 554.35 267.598C552.89 271.651 551.23 275.605 551.479 280.055C551.509 282.093 551.415 284.132 551.197 286.159C551.197 286.655 551.429 287.565 550.749 287.499C548.84 287.35 549.454 288.922 549.089 290.063C548.076 287.549 546.068 288.541 544.508 288.409C542.948 288.277 543.761 289.782 543.412 290.51C543.263 290.841 543.313 291.42 542.831 291.387C540.425 291.172 538.532 293.471 535.893 292.578C534.245 292.335 532.58 292.23 530.914 292.263C529.686 292.065 529.503 292.909 528.839 293.62C529.885 287.102 527.976 280.816 528.026 274.43C528.026 273.636 528.026 272.776 528.026 272.065C528.026 271.618 528.026 270.791 527.794 270.758C526.134 270.427 526.682 269.104 526.632 268.111C526.532 265.994 526.632 263.876 526.549 261.759C526.435 261.128 526.474 260.48 526.661 259.867C526.849 259.254 527.18 258.695 527.628 258.235C523.727 257.97 519.959 258.003 516.208 257.954C515.478 257.954 514.748 258.152 514.001 257.507C511.71 255.522 508.756 256.895 506.2 256.151C505.27 258.351 503.461 257.226 502.05 257.077C500.175 256.879 499.594 257.342 499.743 259.31C500.075 263.727 499.959 263.86 495.61 263.595C493.502 263.479 492.938 264.025 492.971 266.143C493.154 277.921 493.137 289.683 493.286 301.461C493.286 303.115 492.988 303.744 491.112 303.678C483.709 303.397 476.29 303.314 468.887 303.132C468.327 303.115 467.771 303.038 467.228 302.9C460.837 301.246 454.364 299.923 448.074 297.938C437.811 294.629 427.027 293.222 416.255 293.785C410.828 294.1 405.367 293.785 399.923 293.785C398.979 293.785 398.036 293.851 397.101 293.984C389.084 295.125 381.051 296.25 373.051 297.458C369.001 298.07 364.636 298.02 361.017 299.625C348.635 305.117 335.509 314.888 323.89 322.034C323.472 322.385 322.968 322.62 322.429 322.713C317.45 322.613 312.172 323.341 307.491 321.455C296.412 317.17 284.681 314.798 272.802 314.441C272.802 314.441 251.988 313.664 241.581 313.333C238.822 313.04 236.04 313.04 233.282 313.333C228.651 314.177 111.543 312.787 106.862 313.333C-242.801 309.147 -179.436 336.372 -184.448 339.746C371.584 342.84 1622.82 316.548 2178.8 319.642" stroke="dark" stroke-width="5" stroke-miterlimit="10"/>
</g>
<defs>
<filter id="filter0_d_13_103" x="-245.571" y="0.500122" width="2478.67" height="390" filterUnits="userSpaceOnUse" color-interpolation-filters="sRGB">
<feFlood flood-opacity="0" result="BackgroundImageFix"/>
<feColorMatrix in="SourceAlpha" type="matrix" values="0 0 0 0 0 0 0 0 0 0 0 0 0 0 0 0 0 0 127 0" result="hardAlpha"/>
<feOffset dy="-5"/>
<feGaussianBlur stdDeviation="26.5"/>
<feComposite in2="hardAlpha" operator="out"/>
<feColorMatrix type="matrix" values="0 0 0 0 0 0 0 0 0 0 0 0 0 0 0 0 0 0 0.25 0"/>
<feBlend mode="normal" in2="BackgroundImageFix" result="effect1_dropShadow_13_103"/>
<feBlend mode="normal" in="SourceGraphic" in2="effect1_dropShadow_13_103" result="shape"/>
</filter>
</defs>
</svg>
