<svg width="59" height="52" viewBox="0 0 59 52" fill="none" xmlns="http://www.w3.org/2000/svg">
<path d="M53.2732 3.55557C46.9585 -1.86486 37.5671 -0.88988 31.7709 5.13412L29.5008 7.49032L27.2308 5.13412C21.4461 -0.88988 12.0432 -1.86486 5.72845 3.55557C-1.50813 9.77689 -1.88839 20.9428 4.58765 27.6864L26.8851 50.877C28.3255 52.3743 30.6647 52.3743 32.1051 50.877L54.4025 27.6864C60.8901 20.9428 60.5098 9.77689 53.2732 3.55557Z" fill="white"/>
<path d="M33.7605 11.8182H40.0758V28.706C40.0758 30.6577 39.6113 32.358 38.6824 33.8068C37.7534 35.2472 36.4579 36.3636 34.796 37.1562C33.1341 37.9403 31.2037 38.3324 29.0048 38.3324C26.7804 38.3324 24.8372 37.9403 23.1752 37.1562C21.5133 36.3636 20.2221 35.2472 19.3017 33.8068C18.3812 32.358 17.921 30.6577 17.921 28.706V11.8182H24.2491V28.1562C24.2491 29.0597 24.4451 29.8651 24.8372 30.5724C25.2377 31.2798 25.796 31.8338 26.5119 32.2344C27.2278 32.6349 28.0588 32.8352 29.0048 32.8352C29.9508 32.8352 30.7775 32.6349 31.4849 32.2344C32.2008 31.8338 32.7591 31.2798 33.1596 30.5724C33.5602 29.8651 33.7605 29.0597 33.7605 28.1562V11.8182Z" fill="url(#paint0_linear_146_1029)"/>
<defs>
<linearGradient id="paint0_linear_146_1029" x1="29" y1="3" x2="15" y2="64" gradientUnits="userSpaceOnUse">
<stop stop-color="#FF00C7"/>
<stop offset="1" stop-color="#FFC700" stop-opacity="0"/>
</linearGradient>
</defs>
</svg>
