<svg width="363" height="130" viewBox="0 0 363 130" fill="none" xmlns="http://www.w3.org/2000/svg">
<g clip-path="url(#clip0_312_1371)">
<path d="M246.371 94.0334H246.284C230.826 104.953 212.589 116.393 192.876 128.44L192.095 128.873C192.01 128.908 191.933 128.962 191.872 129.031C191.811 129.099 191.766 129.181 191.741 129.269C191.716 129.358 191.711 129.451 191.727 129.541C191.743 129.632 191.78 129.717 191.834 129.791C191.888 129.866 191.959 129.927 192.04 129.97C192.121 130.013 192.211 130.038 192.303 130.041C192.395 130.044 192.487 130.027 192.571 129.99C192.655 129.953 192.73 129.897 192.789 129.827L193.397 129.48C210.158 120.813 229.35 110.5 248.629 99.8401L248.976 99.6668C247.838 97.9252 246.961 96.0275 246.371 94.0334ZM347.803 12.0468C323.487 -14.7332 166.65 9.36011 100.042 23.9201L98.4789 24.2668C98.3261 24.3061 98.1912 24.3962 98.0965 24.5222C98.0018 24.6482 97.9529 24.8027 97.9579 24.9601C97.9663 25.0384 97.9925 25.1137 98.0344 25.1804C98.0763 25.2471 98.1328 25.3035 98.1997 25.3452C98.2666 25.3869 98.3422 25.413 98.4206 25.4213C98.4991 25.4297 98.5784 25.4201 98.6526 25.3934L100.216 25.1334C155.447 15.3401 270.339 1.73344 295.003 26.1734C302.558 33.6268 300.821 43.2468 292.05 54.6001C296.892 57.7569 300.316 62.6662 301.603 68.2934C335.732 45.6734 358.658 24.0068 347.803 12.0468Z" fill="#CC2427"/>
<path d="M115.5 73.0601C113.595 73.066 111.741 73.6726 110.203 74.7934C108.626 76.1055 107.603 77.9622 107.337 79.9934C106.816 82.6801 107.076 84.5001 108.119 85.7134C108.725 86.3021 109.447 86.7598 110.239 87.0581C111.031 87.3563 111.876 87.4886 112.721 87.4468C114.037 87.4733 115.342 87.2069 116.542 86.6668C117.7 86.1323 118.691 85.2934 119.408 84.2401C120.22 83.035 120.781 81.6793 121.058 80.2534C121.492 77.8268 121.145 76.0934 120.016 74.8801C119.44 74.2692 118.738 73.7901 117.958 73.4759C117.178 73.1617 116.34 73.0199 115.5 73.0601ZM88.4922 106.687L95.7001 66.1268H108.726L107.684 71.3268C109.111 69.5461 111.005 68.196 113.155 67.4268C115.832 66.3356 118.688 65.7479 121.579 65.6934C124.966 65.6934 127.05 65.8668 129.569 67.1668C131.956 68.3624 133.813 70.4011 134.779 72.8868C135.802 75.5067 136.044 78.3663 135.474 81.1201C135.112 83.4846 134.281 85.753 133.028 87.7921C131.775 89.8311 130.127 91.5996 128.179 92.9934C124.184 95.8534 120.624 96.6334 115.5 96.6334C113.95 96.6619 112.402 96.4871 110.897 96.1134C109.862 95.8886 108.867 95.5088 107.945 94.9868C107.044 94.3386 106.228 93.5818 105.513 92.7334L103.082 106.687H88.4922ZM238.816 96.2001H223.705L231.348 54.0801L246.024 54.4268L238.816 96.2001ZM163.437 65.7801L164.479 59.6268L179.937 56.3334L178.287 65.7801H185.929L184.453 71.9334H177.071L172.642 96.2001H157.619L162.134 71.9334H156.49L157.619 65.8668H163.437V65.7801ZM43.0738 85.3668C39.0268 86.2703 34.8891 86.7065 30.7422 86.6668C23.708 86.6668 18.0633 83.2001 18.4106 76.7001C18.5843 72.4534 23.708 63.4401 36.5606 63.4401C40.6316 63.3462 44.6429 64.4298 48.1106 66.5601L49.9343 56.0734C45.2999 54.2365 40.3257 53.4091 35.3449 53.6468C18.4106 53.8201 2.17117 61.4468 0.173802 77.0468C-1.82357 92.6468 17.5422 96.8934 26.1396 96.8934C31.0896 96.8934 36.3001 96.6334 41.0764 96.2001L43.0738 85.3668ZM207.813 82.3334L205.295 83.0268L199.476 84.0668C198.1 84.1792 196.766 84.5935 195.569 85.2801C195.219 85.4764 194.92 85.7506 194.694 86.0813C194.468 86.412 194.321 86.7903 194.266 87.1868C194.162 87.5715 194.182 87.979 194.322 88.3521C194.462 88.7252 194.716 89.045 195.048 89.2668C195.829 89.7868 197.045 89.9601 198.782 89.9601C200.073 89.9638 201.359 89.7887 202.603 89.4401C203.745 89.1064 204.808 88.5464 205.729 87.7934C206.338 87.2603 206.788 86.5709 207.032 85.8001C207.398 84.6708 207.66 83.5104 207.813 82.3334ZM223.792 72.3668C223.705 73.8401 223.445 75.2268 223.098 77.3934L220.405 92.5601C220.262 93.1701 220.33 93.8106 220.598 94.3771C220.866 94.9437 221.319 95.4029 221.882 95.6801V96.2001H206.337V92.3001C203.998 93.6889 201.487 94.7669 198.869 95.5068C196.43 96.1299 193.917 96.4214 191.4 96.3734C186.45 96.3734 183.584 95.8534 181.587 94.1201C179.59 92.3868 178.634 91.1734 178.721 88.7468C178.886 87.086 179.552 85.5144 180.632 84.2401C181.767 83.0015 183.16 82.0254 184.713 81.3801C186.673 80.506 188.75 79.9221 190.879 79.6468C193.658 79.2134 197.479 78.7801 202.603 78.3468C204.322 78.181 206.014 77.8025 207.64 77.2201C208.682 76.7868 209.116 76.3534 209.29 75.4868C209.463 74.6201 209.116 73.0601 207.032 72.6268C201.474 71.5001 191.053 73.3201 185.669 74.6201L188.534 66.8201C195.4 65.7304 202.338 65.151 209.29 65.0868C220.319 65.1734 223.879 68.3801 223.792 72.3668ZM135.04 96.2001L140.424 65.9534H155.274L149.89 96.2001H135.04ZM141.292 59.0201C141.726 56.5068 145.634 54.5134 150.063 54.5134C154.492 54.5134 157.619 56.5068 157.184 59.0201C156.75 61.5334 152.842 63.5268 148.413 63.5268C143.984 63.5268 140.858 61.4468 141.292 59.0201ZM74.2501 82.2468C73.4404 82.5744 72.5952 82.807 71.7317 82.9401L66.0001 83.9801C64.5941 84.0798 63.2287 84.4946 62.0054 85.1934C61.6536 85.4084 61.3543 85.6988 61.1289 86.0436C60.9036 86.3884 60.7581 86.7789 60.7028 87.1868C60.6134 87.5681 60.6496 87.9679 60.8061 88.327C60.9625 88.6861 61.2308 88.9853 61.5712 89.1801C62.6811 89.7993 63.9519 90.071 65.2185 89.9601C66.5142 89.9345 67.8 89.7303 69.0396 89.3534C70.182 89.0198 71.2453 88.4597 72.1659 87.7068C72.7746 87.1737 73.2251 86.4842 73.4685 85.7134C73.8901 84.6 74.1532 83.4331 74.2501 82.2468ZM90.2291 72.3668C90.1422 73.8401 89.8817 75.1401 89.5343 77.3934L86.8422 92.4734C86.699 93.0835 86.7669 93.7239 87.035 94.2905C87.3031 94.857 87.7555 95.3163 88.3186 95.5934V96.2001H72.7738V92.3868C70.414 93.7123 67.9077 94.7594 65.3054 95.5068C62.8992 96.1555 60.4162 96.4762 57.9238 96.4601C52.887 96.4601 50.0212 95.9401 48.1106 94.2068C46.2001 92.4734 45.0712 91.2601 45.158 88.7468C45.3445 87.1178 46.0092 85.5801 47.0685 84.3268C48.199 83.061 49.5917 82.0556 51.1501 81.3801C53.1504 80.5347 55.2522 79.9521 57.4028 79.6468C60.0949 79.2134 63.9159 78.7801 69.0396 78.3468C70.7751 78.2947 72.4847 77.9123 74.0764 77.2201C75.2054 76.7868 75.5528 76.3534 75.7264 75.4868C75.9001 74.6201 75.5528 73.0601 73.4685 72.6268C67.9107 71.5868 57.4896 73.3201 52.1054 74.7068L54.9712 66.8201C61.8375 65.7338 68.7747 65.1545 75.7264 65.0868C86.7554 65.0868 90.3159 68.2934 90.2291 72.3668Z" fill="#013D5B"/>
<path d="M299.258 76.4401L302.645 76.0934C303.774 76.0934 304.729 76.3534 304.816 77.3934C304.903 78.4334 303.687 82.5934 303.426 83.7201L301.082 93.8601C300.213 98.0201 299.171 102.353 298.303 105.82H304.208L307.508 89.7001C317.755 79.1267 321.663 75.6601 324.008 75.6601C324.266 75.6328 324.526 75.6633 324.77 75.7495C325.015 75.8357 325.236 75.9753 325.42 76.1581C325.603 76.3409 325.743 76.5623 325.829 76.806C325.915 77.0497 325.946 77.3097 325.919 77.5667C326.005 79.3867 324.79 83.6334 324.442 84.8467L320.969 96.5467C320.274 99.2334 319.666 101.573 319.753 103.307C319.84 105.04 321.403 107.033 323.661 107.033C328.003 107.033 331.216 102.527 333.908 98.1067L333.126 96.6334C331.997 98.3667 329.479 102.267 327.395 102.267C326.787 102.267 326.179 101.833 326.179 100.793C326.249 99.1724 326.541 97.5686 327.047 96.0267L330.869 82.2467C331.824 78.4334 332.345 76.0067 332.345 74.7067C332.345 73.4067 330.695 70.9801 328.437 70.9801C324.529 70.9801 319.319 73.8401 308.376 86.4067H308.203L309.592 80.2534C310.374 76.8734 311.069 73.4067 311.763 70.9801C307.649 72.4392 303.442 73.6262 299.171 74.5334L299.258 76.4401ZM357.355 76.7867C357.269 74.3601 356.053 72.7134 353.534 72.7134C347.455 72.7134 341.029 84.5867 339.9 89.3534C349.8 89.3534 357.616 83.4601 357.355 76.7867ZM358.658 95.4201L359.787 96.2001C356.834 102.18 350.842 107.033 343.721 107.033C337.903 107.033 333.213 103.22 332.953 96.0267C332.432 83.0267 344.676 70.9801 354.576 70.9801C358.832 70.9801 362.826 72.8867 363 77.4801C363.347 87.7934 348.845 90.9134 339.292 91.0867C338.979 92.3322 338.862 93.6187 338.945 94.9001C339.119 99.2334 341.724 102.787 347.021 102.787C352.319 102.787 356.313 99.0601 358.658 95.4201ZM256.271 87.0134C256.532 96.4601 262.524 104.173 270.34 104.173C285.45 104.173 291.876 85.6267 291.442 73.2334C291.095 63.7867 285.016 56.0734 277.2 56.0734C264.174 56.0734 255.75 74.5334 256.271 87.0134ZM248.282 86.4934C247.674 70.3734 260.353 53.9067 278.676 53.9067C291.008 53.9067 298.997 62.1401 299.432 74.6201C300.04 91.6067 288.229 107.207 269.037 107.207C256.705 107.207 248.716 99.0601 248.282 86.4934Z" fill="#013D5B"/>
</g>
<defs>
<clipPath id="clip0_312_1371">
<rect width="363" height="130" fill="white"/>
</clipPath>
</defs>
</svg>
