<svg width="431" height="83" viewBox="0 0 431 83" fill="none" xmlns="http://www.w3.org/2000/svg">
<g clip-path="url(#clip0_312_1275)">
<path d="M33.722 13.0021C28.6477 13.0021 27.1806 15.2414 27.1806 20.1806V28.3741H40.7156L39.359 41.6114H27.1858V81.7838H10.9427V41.6114H0V28.3741H10.9427V20.4056C10.9427 7.05313 16.3536 0.000207319 31.4504 0.000207319C34.6138 -0.00711768 37.7752 0.179666 40.9155 0.560043V13.0178L33.722 13.0021Z" fill="#1877F2"/>
<path d="M41.8408 53.3941C41.8408 38.472 48.9449 27.2334 63.8314 27.2334C71.9503 27.2334 76.909 31.3877 79.2805 36.5466V28.374H94.8401V81.7837H79.2805V73.7053C77.0247 78.8694 71.9503 82.9086 63.8314 82.9086C48.9449 82.9086 41.8408 71.6857 41.8408 56.7479V53.3941ZM58.0787 56.9886C58.0787 64.9519 61.0076 70.2259 68.5639 70.2259C75.221 70.2259 78.6022 65.4019 78.6022 57.7734V52.4105C78.6022 44.782 75.221 39.958 68.5639 39.958C61.0076 39.958 58.0787 45.232 58.0787 53.1953V56.9886Z" fill="#1877F2"/>
<path d="M128.673 27.2493C134.983 27.2493 140.962 28.5992 144.232 30.8385L140.625 42.2864C137.242 40.6833 133.545 39.8399 129.798 39.8169C121.001 39.8169 117.178 44.8659 117.178 53.5094V56.6487C117.178 65.2922 121.011 70.3412 129.798 70.3412C133.545 70.3176 137.242 69.4748 140.625 67.8716L144.232 79.3143C140.962 81.5589 134.988 82.9088 128.673 82.9088C109.611 82.9088 100.929 72.6957 100.929 56.3138V53.8442C100.929 37.4624 109.611 27.2493 128.673 27.2493Z" fill="#1877F2"/>
<path d="M146.372 57.1196V52.4107C146.372 37.2636 155.054 27.2964 172.764 27.2964C189.454 27.2964 196.784 37.3944 196.784 52.2066V60.735H162.605C162.947 68.0286 166.217 71.283 175.225 71.283C181.32 71.283 187.745 70.0482 192.483 68.0286L195.454 79.0946C191.168 81.3444 182.371 83.024 174.594 83.024C154.039 83.0187 146.372 72.816 146.372 57.1196ZM162.61 50.1609H182.234V48.8162C182.234 42.9824 179.868 38.3519 172.769 38.3519C165.434 38.3571 162.61 42.9614 162.61 50.1399V50.1609Z" fill="#1877F2"/>
<path d="M256.977 56.7637C256.977 71.6858 249.763 82.9244 234.892 82.9244C226.773 82.9244 221.136 78.8852 218.88 73.7211V81.7995H203.547V1.55411L219.785 0.0891113V35.7723C222.151 31.0634 227.341 27.2439 234.897 27.2439C249.784 27.2439 256.982 38.4669 256.982 53.4046L256.977 56.7637ZM240.739 53.0593C240.739 45.5407 237.81 39.9319 230.028 39.9319C223.371 39.9319 219.763 44.6408 219.763 52.2745V57.8834C219.763 65.5118 223.371 70.226 230.028 70.226C237.81 70.226 240.739 64.6171 240.739 57.0985V53.0593Z" fill="#1877F2"/>
<path d="M262.409 56.4237V53.7344C262.409 38.3571 271.206 27.2493 289.138 27.2493C307.069 27.2493 315.871 38.3571 315.871 53.7344V56.4237C315.871 71.7957 307.074 82.9088 289.143 82.9088C271.212 82.9088 262.409 71.7957 262.409 56.4237ZM299.628 52.6095C299.628 45.5408 296.694 39.932 289.111 39.932C281.529 39.932 278.621 45.5408 278.621 52.6095V57.5486C278.621 64.6172 281.555 70.2261 289.111 70.2261C296.668 70.2261 299.628 64.6172 299.628 57.5486V52.6095Z" fill="#1877F2"/>
<path d="M321.271 56.4237V53.7344C321.271 38.3571 330.069 27.2493 348 27.2493C365.931 27.2493 374.728 38.3571 374.728 53.7344V56.4237C374.728 71.7957 365.931 82.9088 348 82.9088C330.069 82.9088 321.271 71.7957 321.271 56.4237ZM358.49 52.6095C358.49 45.5408 355.556 39.932 348 39.932C340.444 39.932 337.515 45.5408 337.515 52.6095V57.5486C337.515 64.6172 340.444 70.2261 348 70.2261C355.556 70.2261 358.49 64.6172 358.49 57.5486V52.6095Z" fill="#1877F2"/>
<path d="M397.055 53.8441L413.067 28.3741H430.32L413.519 54.7441L430.998 81.7838H413.745L397.055 55.6231V81.7838H380.812V1.55411L397.055 0.0891113V53.8441Z" fill="#1877F2"/>
</g>
<defs>
<clipPath id="clip0_312_1275">
<rect width="431" height="83" fill="white"/>
</clipPath>
</defs>
</svg>
