<svg width="169" height="169" viewBox="0 0 169 169" fill="none" xmlns="http://www.w3.org/2000/svg">
<path fill-rule="evenodd" clip-rule="evenodd" d="M0 169H169V0H0V169Z" fill="#7399C6"/>
<path fill-rule="evenodd" clip-rule="evenodd" d="M150.096 38.7748H144.152V16.9078H149.75V19.3557C150.447 17.8849 152.195 16.583 154.469 16.4167C158.319 16.253 160.938 18.376 160.938 22.9443V38.7748H154.82V22.2921C154.82 20.3354 154.82 18.7008 153.42 18.376C152.895 18.2123 152.021 18.376 151.321 18.8645C150.447 19.6831 150.096 20.6602 150.096 22.2921V38.7748ZM46.7338 27.84C46.7338 31.9198 46.7338 35.1836 46.0341 36.8181C45.5086 37.6314 44.9831 38.1226 43.7578 38.1226C42.7095 38.1226 42.0097 37.6315 41.6612 36.8155C40.7871 35.1836 40.7871 31.9198 40.7871 27.84C40.7871 23.924 40.7871 20.4991 41.6585 18.8645C42.0097 18.0486 42.7095 17.5601 43.7578 17.5601C44.9831 17.5601 45.5086 18.0486 46.0341 18.8645C46.9081 20.4964 46.7338 23.924 46.7338 27.8427M49.0048 18.376C47.6052 17.2326 45.8571 16.4167 43.7578 16.4167C41.6612 16.4167 40.0874 17.2353 38.5136 18.376C36.0631 20.3354 34.4892 23.924 34.4892 27.84C34.4892 31.9198 36.0631 35.3473 38.5136 37.3067C40.0874 38.4474 41.6612 39.2634 43.7578 39.2634C45.8571 39.2634 47.6079 38.4474 49.0074 37.3067C51.6295 35.3473 53.0291 31.9198 53.0291 27.84C53.0291 23.924 51.6295 20.3354 49.0074 18.376M110.045 47.0981V52.9708H108.823C108.123 50.523 107.072 48.4026 104.273 48.2388C102.525 48.0778 100.951 49.0574 100.777 50.523C100.603 51.9938 101.125 53.2956 104.273 54.9328C108.297 57.0506 111.445 58.0303 111.445 62.4375C111.445 67.1695 107.072 69.4563 103.399 69.4563H96.4013V61.2967H97.6266C98.5033 65.5376 99.9002 68.1492 103.225 68.3129C105.324 68.3129 106.895 67.1695 106.895 65.0491C106.895 62.926 105.498 61.6215 102.176 59.8259C98.5033 57.7055 96.2297 56.3984 96.2297 53.462C96.2297 49.546 99.203 47.0981 103.924 47.0981H110.045ZM117.74 38.7748V22.9443C117.74 18.376 115.118 16.253 111.271 16.4167C108.646 16.5804 107.072 18.2123 106.372 19.5168C105.498 17.2326 103.573 16.253 100.774 16.4167C98.5033 16.5804 96.7525 17.8849 96.0528 19.3557V16.9078H90.6316V38.7722H96.5783V22.2947C96.5783 20.6628 96.7525 19.6831 97.8035 18.8672C98.5033 18.3787 99.203 18.2149 99.7259 18.3787C101.125 18.7035 101.125 20.338 101.125 22.2947V38.7775H107.072V22.1283C107.072 20.6575 107.421 19.6778 108.297 18.8619C108.997 18.3734 109.697 18.2097 110.22 18.3734C111.619 18.6982 111.794 20.3327 111.794 22.2894V38.7722H117.74V38.7748ZM57.0507 38.7748H63.1717V12.3369H57.0507V38.7748ZM77.6872 18.7035C78.9125 20.3354 78.9125 24.2488 78.9125 27.3515C78.9125 30.6153 79.0894 34.8588 77.6899 36.6518C77.1644 37.3067 76.6389 37.6315 75.7648 37.6315C74.5422 37.6315 73.8425 36.327 73.4939 34.2039C73.317 32.2472 73.317 29.7994 73.317 27.1878C73.317 22.7832 73.6656 17.8849 75.9418 17.8849C76.8132 17.8849 77.1644 18.2123 77.6899 18.7035H77.6872ZM84.8618 38.7748V12.3369H78.7382V18.5397C78.2153 17.3963 76.9901 16.5804 75.242 16.5804C70.8691 16.5804 67.3729 20.8239 67.196 27.3515C67.0217 31.7587 68.5956 39.1023 74.7165 39.1023C77.1644 39.1023 78.5639 37.7952 79.0894 36.6518V38.7748H84.8618ZM132.433 25.7196L130.508 26.8603C128.585 28.0037 128.237 29.4746 128.06 31.1038C127.885 32.4109 127.885 33.5517 128.06 35.511C128.234 37.3067 129.459 37.6315 130.508 37.3067C131.733 36.8155 132.433 34.6951 132.433 32.4109V25.7196ZM135.929 17.5601C137.505 18.3787 138.554 19.6805 138.554 22.6195V38.7748H132.781V36.327C132.084 38.1226 130.159 39.2634 127.534 39.2634C125.438 39.2634 121.765 38.2863 121.765 33.2269C121.765 28.4923 125.086 27.5152 128.762 26.0444C132.084 24.7399 132.433 24.5762 132.433 23.2717V19.6805C132.433 18.2123 131.559 17.5601 129.808 17.5601C129.111 17.7238 127.886 18.0486 127.886 18.8645C127.709 19.8442 128.934 19.8442 129.111 21.3124C129.285 23.5992 127.36 24.4125 125.612 24.2514C124.387 24.2514 122.987 23.5992 122.813 21.8035C122.639 18.8645 126.135 16.4167 131.033 16.4167C133.307 16.4167 134.706 16.9078 135.929 17.5601ZM45.8571 56.2347L43.9348 57.378C42.0097 58.5214 41.6612 59.9896 41.4843 61.6215C41.3126 62.926 41.3126 64.2331 41.4843 66.0261C41.4843 67.9854 42.7095 68.3129 43.7578 67.8217C45.1574 67.3332 45.8571 65.3765 45.8571 62.926V56.2347ZM49.356 48.0751C50.9298 49.0548 51.8038 50.1982 51.8038 53.1346V69.4536H46.211V67.0058C45.5112 68.6377 43.5888 69.7784 40.9641 69.7784C38.6905 69.7784 35.1916 68.9651 35.1916 63.9057C35.1916 59.1737 38.5162 58.194 42.0124 56.7232C45.5112 55.2576 45.8598 55.0939 45.8598 53.9505V50.3593C45.8598 48.73 44.9857 48.0778 43.2376 48.2388C42.5379 48.2388 41.3153 48.5663 41.3153 49.3822C41.1383 50.5256 42.3636 50.5256 42.5379 51.9938C42.7121 54.1142 40.7898 54.9302 39.039 54.9302C37.8164 54.7665 36.4169 54.1142 36.24 52.3186C36.0657 49.546 39.5645 47.0955 44.4602 47.0955C46.7365 47.0955 48.1333 47.4229 49.3586 48.0778L49.356 48.0751ZM91.6825 53.6257C91.6825 49.0574 89.0578 46.7707 85.2104 47.0981C83.288 47.2592 81.7115 48.0751 80.8375 49.2185V42.8546H74.8882V57.8692C74.8882 63.4145 70.6896 68.6377 66.491 68.474C63.5203 68.474 62.8205 66.3535 62.4693 64.0694C61.9465 60.8056 61.9465 57.0532 62.295 52.9708C62.6462 50.3619 63.346 48.2388 65.4453 48.2388C67.0191 48.2388 67.1934 49.2185 66.4936 49.8707C65.7938 50.6893 64.7455 51.5027 65.2684 53.2983C65.7938 55.2576 69.1158 55.5824 70.6922 54.1169C71.9148 52.8098 71.7405 50.6867 70.8665 49.3822C69.8155 47.7503 68.0674 47.0981 65.4453 47.0981C62.1207 47.0981 55.8255 49.8707 55.8255 58.6825C55.8255 68.1492 62.295 69.7811 65.9681 69.7811C70.1667 69.7811 73.8372 66.3535 74.8882 63.5782V69.4536H80.8348V52.9708C80.8348 51.3416 81.1834 50.3619 82.0601 49.5433C82.7599 49.0548 83.6339 48.8911 84.1594 49.0548C85.5589 49.3822 85.5589 51.0141 85.5589 52.9708V69.4536H91.6799V53.6257H91.6825ZM30.4676 11.8484V21.1513H29.2423C28.194 16.583 25.9204 13.1529 22.7728 12.9918C20.6735 12.8281 19.4482 13.9688 18.3999 15.6007C17.3516 17.5601 16.8261 21.6398 16.8261 26.5329C16.8261 31.1038 17.0004 34.5314 17.5259 36.9792C17.8744 38.1226 18.7485 39.9156 21.0221 39.9156C22.2473 39.9156 23.1213 39.5908 23.6468 38.9386C24.5182 37.9589 24.6952 35.9995 24.6952 34.6951V30.2879C24.6952 28.656 24.1723 27.6789 23.2956 27.1878C22.5985 26.8603 21.5475 26.8603 21.0247 26.6966V25.5559H30.8161V48.8937H29.5935C29.068 47.0981 28.7195 45.791 27.8428 44.3228C26.9714 42.8546 25.3949 41.2227 22.7728 41.2227C19.9737 41.059 17.8744 42.6909 17.8744 45.1387C17.8744 48.4026 19.9737 49.2185 23.8211 51.1779C27.4942 53.1346 32.2183 54.7691 32.2183 60.4781C32.2183 66.0261 27.143 69.4563 21.3733 69.4563H12.1047V58.194H13.3273C14.9011 66.681 18.7485 68.1492 21.3733 68.1492C24.6952 68.1492 26.269 66.1898 26.269 63.4172C26.0947 59.8259 23.4699 58.5214 19.7994 56.7258C14.5525 53.9532 12.1047 52.646 12.1047 48.0778C12.2789 44.1591 15.6008 41.7139 19.274 40.7342C11.5792 39.9156 9.3056 33.3906 9.47988 26.3718C9.47988 19.3557 13.8528 11.8484 22.4216 11.8484H30.4676Z" fill="white"/>
</svg>
