<svg width="379" height="128" viewBox="0 0 379 128" fill="none" xmlns="http://www.w3.org/2000/svg">
<path d="M161.284 65.6418C161.284 83.4088 147.364 96.501 130.281 96.501C113.198 96.501 99.2786 83.4088 99.2786 65.6418C99.2786 47.7497 113.198 34.7827 130.281 34.7827C147.364 34.7827 161.284 47.7497 161.284 65.6418ZM147.713 65.6418C147.713 54.5392 139.645 46.9427 130.281 46.9427C120.918 46.9427 112.85 54.5392 112.85 65.6418C112.85 76.6332 120.918 84.341 130.281 84.341C139.645 84.341 147.713 76.6192 147.713 65.6418Z" fill="#EA4335"/>
<path d="M228.166 65.6418C228.166 83.4088 214.247 96.501 197.164 96.501C180.081 96.501 166.161 83.4088 166.161 65.6418C166.161 47.7636 180.081 34.7827 197.164 34.7827C214.247 34.7827 228.166 47.7497 228.166 65.6418ZM214.595 65.6418C214.595 54.5392 206.527 46.9427 197.164 46.9427C187.8 46.9427 179.732 54.5392 179.732 65.6418C179.732 76.6332 187.8 84.341 197.164 84.341C206.527 84.341 214.595 76.6192 214.595 65.6418Z" fill="#FBBC05"/>
<path d="M292.262 36.6471V92.0488C292.262 114.838 278.802 124.146 262.89 124.146C247.911 124.146 238.895 114.143 235.496 105.962L247.311 101.051C249.416 106.073 254.571 112 262.876 112C273.061 112 279.373 105.725 279.373 93.9132V89.4749H278.899C275.862 93.2175 270.01 96.4871 262.625 96.4871C247.172 96.4871 233.015 83.0471 233.015 65.7531C233.015 48.334 247.172 34.7827 262.625 34.7827C269.996 34.7827 275.848 38.0523 278.899 41.6836H279.373V36.661H292.262V36.6471ZM280.335 65.7531C280.335 54.8871 273.075 46.9427 263.837 46.9427C254.473 46.9427 246.629 54.8871 246.629 65.7531C246.629 76.5079 254.473 84.341 263.837 84.341C273.075 84.341 280.335 76.5079 280.335 65.7531Z" fill="#4285F4"/>
<path d="M313.511 4.17383V94.6086H300.274V4.17383H313.511Z" fill="#34A853"/>
<path d="M365.094 75.7984L375.628 82.8105C372.228 87.8331 364.035 96.4871 349.878 96.4871C332.322 96.4871 319.21 82.9358 319.21 65.6279C319.21 47.2766 332.433 34.7688 348.36 34.7688C364.397 34.7688 372.242 47.5131 374.806 54.4001L376.213 57.9062L334.899 74.9914C338.062 81.1827 342.981 84.341 349.878 84.341C356.789 84.341 361.583 80.9462 365.094 75.7984ZM332.67 64.6958L360.287 53.2453C358.768 49.3914 354.198 46.7062 348.819 46.7062C341.922 46.7062 332.322 52.7862 332.67 64.6958Z" fill="#EA4335"/>
<path d="M49.1726 57.6138V44.5216H93.3567C93.7887 46.8034 94.0116 49.5025 94.0116 52.4242C94.0116 62.2469 91.3224 74.3929 82.6555 83.0469C74.2256 91.8121 63.4547 96.4868 49.1865 96.4868C22.7401 96.4868 0.501709 74.9773 0.501709 48.5703C0.501709 22.1634 22.7401 0.653809 49.1865 0.653809C63.817 0.653809 74.2395 6.38598 82.0703 13.8573L72.8182 23.0956C67.2029 17.8364 59.5951 13.746 49.1726 13.746C29.8603 13.746 14.756 29.2869 14.756 48.5703C14.756 67.8538 29.8603 83.3947 49.1726 83.3947C61.6991 83.3947 68.8332 78.3721 73.4035 73.8086C77.1099 70.1077 79.5483 64.8208 80.5097 57.5999L49.1726 57.6138Z" fill="#4285F4"/>
</svg>
