<svg width="805" height="101" viewBox="0 0 805 101" fill="none" xmlns="http://www.w3.org/2000/svg">
<path d="M628.836 26.0916C625.997 26.0916 623.657 27.0525 621.779 28.9672C619.903 30.8845 618.984 33.0451 618.984 35.4902C618.984 38.5931 620.357 42.0411 623.106 45.8707C618.543 48.9295 615.427 51.5078 613.813 53.5159C612.203 55.5288 611.437 57.99 611.437 60.9506C611.437 63.5405 612.099 65.7803 613.393 67.7541C614.685 69.7302 616.298 71.2908 618.355 72.3832C620.411 73.4756 622.596 74.0666 624.853 74.0666C629.456 74.0666 633.855 71.733 637.99 67.1228C641.468 71.733 645.499 74.0666 650.079 74.0666C652.193 74.0666 654.06 73.4311 655.67 72.2429C657.277 71.0572 658.318 69.4732 658.814 67.5436H657.137C655.941 69.6622 654.242 70.77 652.036 70.77C650.415 70.77 648.927 70.2668 647.494 69.2971C646.063 68.3299 644.066 66.0346 641.554 62.4235C642.608 61.0169 643.786 58.8327 645.048 55.8304C646.55 52.1948 648.032 49.7091 649.451 48.3957C650.872 47.0799 652.509 46.1758 654.412 45.6603V43.977H639.318V45.6603C643.014 46.0825 644.839 47.5916 644.839 50.2895C644.839 51.4138 644.426 52.9856 643.651 54.9888C642.878 56.9944 641.841 58.9323 640.506 60.8103C636.793 55.5225 632.874 50.0636 628.697 44.3978C635.44 40.9929 638.759 37.4979 638.759 33.877C638.759 31.5498 637.794 29.6294 635.754 28.1957C633.712 26.7621 631.37 26.0916 628.836 26.0916ZM692.985 26.302C688.878 26.302 685.101 27.2432 681.665 29.1777C678.228 31.1121 675.548 34.0912 673.629 38.0853C671.711 42.0769 670.763 46.3287 670.763 50.8506C670.763 57.7365 672.82 63.288 676.983 67.4735C681.143 71.659 686.565 73.7159 693.125 73.7159C699.332 73.7159 704.434 71.4367 708.428 66.9124C709.485 68.3092 710.186 69.9231 710.594 71.752H712.132V55.6902H710.594C710.325 58.3439 709.423 61.1238 707.939 63.9666C706.457 66.8117 704.47 68.8079 701.929 69.9985C699.381 71.1891 696.888 71.752 694.452 71.752C689.898 71.752 686.054 69.9413 682.992 66.2811C679.938 62.6185 678.45 57.3686 678.45 50.4999C678.45 43.2458 679.842 37.6326 682.643 33.7367C685.448 29.8359 689.204 27.9152 693.963 27.9152C697.847 27.9152 701.349 29.137 704.445 31.5624C707.541 33.9878 709.589 38.2508 710.594 44.3978H712.132L711.712 27.0735H710.175C709.967 29.1184 709.414 31.1279 708.428 33.0353C707.068 31.3341 704.963 29.8054 702.209 28.4061C699.45 27.0069 696.375 26.302 692.985 26.302ZM424.652 26.4422C420.545 26.4422 416.767 27.3835 413.331 29.3179C409.892 31.2524 407.215 34.2315 405.295 38.2256C403.375 42.2172 402.43 46.4665 402.43 50.9909C402.43 57.8743 404.487 63.4258 408.649 67.6138C412.807 71.7993 418.157 73.8561 424.721 73.8561C430.924 73.8561 436.033 71.6496 440.025 67.1228C441.086 68.5245 441.857 70.1311 442.261 71.9624H443.798V55.8304H442.261C441.992 58.4866 441.093 61.2641 439.605 64.1068C438.123 66.952 436.142 68.9482 433.596 70.1388C431.047 71.3294 428.552 71.9624 426.119 71.9624C421.565 71.9624 417.719 70.0792 414.659 66.4214C411.599 62.7588 410.117 57.5113 410.117 50.6402C410.117 43.386 411.507 37.843 414.31 33.9471C417.112 30.0488 420.875 28.0554 425.63 28.0554C429.519 28.0554 433.02 29.2773 436.112 31.7027C439.205 34.1281 441.253 38.3911 442.261 44.5381H443.798L443.379 27.2839H441.842C441.636 29.3288 441.01 31.2682 440.025 33.1756C438.665 31.4744 436.634 29.9432 433.875 28.5464C431.124 27.1471 428.044 26.4422 424.652 26.4422ZM92.2396 26.5825C89.6691 26.5825 86.0714 26.6839 81.4783 26.8631L75.7483 27.0735V28.6166H76.5868C78.9127 28.6166 80.4295 28.8428 81.1289 29.2478C81.8309 29.6553 82.2536 30.3616 82.4566 31.4221C82.6596 32.4826 82.806 34.8582 82.806 38.5061V60.9506C82.806 64.7826 82.6596 67.2669 82.4566 68.3152C82.2536 69.3634 81.8148 70.1339 81.0591 70.6297C80.3033 71.1256 78.9002 71.3311 76.9362 71.3311H75.7483V72.8742H96.7817V71.3311H95.2444C93.19 71.3311 91.7976 71.1046 91.0517 70.5596C90.3057 70.0171 89.8229 69.154 89.6541 68.0346C89.4829 66.9152 89.4445 64.569 89.4445 60.9506V51.2714H94.4757C99.7145 51.2714 103.368 50.7878 105.447 49.7985C107.528 48.8067 109.083 47.3647 110.198 45.4499C111.311 43.5326 111.875 41.2882 111.875 38.7867C111.875 35.9047 111.063 33.5252 109.43 31.6325C107.796 29.7398 105.696 28.4486 103.141 27.7047C100.585 26.9609 96.9672 26.5825 92.2396 26.5825ZM48.9848 27.0735V28.6166H50.033C52.3491 28.6166 53.8204 28.8428 54.5052 29.2478C55.1925 29.6529 55.69 30.3665 55.9028 31.4221C56.1156 32.4802 56.1823 34.8631 56.1823 38.5061V54.077C56.1823 59.1806 56.0527 62.8745 55.6932 65.0888C55.3385 67.308 54.2226 69.2101 52.4788 70.8402C50.7349 72.4702 48.5984 73.295 46.0499 73.295C44.7977 73.295 43.7565 73.0664 42.9054 72.6638C42.0592 72.2612 41.6476 71.6973 41.6476 70.9804C41.6476 70.7104 41.75 70.3257 41.997 69.7881C42.2685 69.1817 42.4163 68.5968 42.4163 68.0346C42.4163 67.0919 42.1057 66.3004 41.438 65.6499C40.7727 64.9969 39.9153 64.6679 38.9223 64.6679C37.9514 64.6679 37.1443 65.0635 36.4766 65.7902C35.8113 66.5168 35.4983 67.3925 35.4983 68.4554C35.4983 70.218 36.4371 71.7355 38.2934 73.0145C40.1546 74.291 42.7436 74.9082 46.1897 74.9082C49.2567 74.9082 51.9795 74.4011 54.2956 73.3652C56.6117 72.3268 58.4991 70.8686 59.8859 68.9464C61.2726 67.0218 62.0958 65.0123 62.4015 62.9846C62.7023 60.9593 62.8208 58.0233 62.8208 54.1471V38.5061C62.8208 34.7011 62.9452 32.2957 63.1702 31.2818C63.3927 30.268 63.8731 29.5459 64.5677 29.1777C65.2599 28.8021 66.7298 28.6166 68.9701 28.6166H70.0881V27.0735H48.9848ZM118.025 27.0735V28.6166H119.283C121.608 28.6166 123.065 28.8428 123.755 29.2478C124.445 29.6553 124.94 30.3616 125.152 31.4221C125.368 32.4826 125.432 34.8558 125.432 38.5061V58.4256C125.432 62.211 125.354 64.8117 125.082 66.211C124.813 67.6078 124.009 68.8356 122.777 69.7881C121.546 70.7455 119.991 71.2207 118.025 71.3311V72.8742H134.446V71.3311C132.336 71.1961 130.721 70.6494 129.555 69.6478C128.383 68.6462 127.681 67.4714 127.458 66.1409C127.233 64.8103 127.109 62.3085 127.109 58.636V31.8429L145.277 72.8742H146.885L164.843 31.8429V61.0207C164.843 64.8528 164.777 67.2669 164.564 68.3152C164.351 69.3634 163.852 70.1314 163.096 70.6297C162.338 71.1256 160.988 71.3311 159.043 71.3311H157.436V72.8742H179.378V71.3311H177.352C175.282 71.3311 173.888 71.1021 173.159 70.5596C172.425 70.0195 171.94 69.2193 171.761 68.1047C171.58 66.9902 171.482 64.5568 171.482 60.9506V38.5061C171.482 34.6986 171.592 32.2981 171.831 31.2818C172.064 30.268 172.532 29.5483 173.229 29.1777C173.926 28.807 175.453 28.6166 177.701 28.6166H179.378V27.0735H165.263L148.701 65.0186L131.931 27.0735H118.025ZM628.976 27.845C630.691 27.845 632.047 28.4275 633.099 29.5985C634.143 30.7719 634.706 32.2575 634.706 34.1575C634.706 37.3439 632.327 40.3231 627.648 43.0652C624.775 39.1055 623.386 35.9643 623.386 33.6666C623.386 32.0022 623.896 30.6527 624.923 29.5284C625.948 28.4065 627.276 27.845 628.976 27.845ZM92.9384 28.1957C97.1011 28.1957 100.099 29.0861 101.953 30.861C103.807 32.6334 104.748 35.4123 104.748 39.2075C104.748 41.6943 104.219 43.8262 103.141 45.52C102.06 47.2139 100.704 48.2814 99.0877 48.8166C97.4686 49.3468 95.3579 49.6582 92.7288 49.6582H89.4445V28.336C90.254 28.2452 91.4122 28.1957 92.9384 28.1957ZM544.773 36.8929C542.102 36.8929 539.948 37.676 538.204 39.3478C536.463 41.0196 535.549 43.149 535.549 45.6603C535.549 47.3075 536.004 48.8362 536.806 50.2895C537.609 51.7452 538.662 52.9607 540.091 53.8666C541.519 54.7773 543.707 55.8126 546.52 57.0228C549.675 58.3754 551.832 59.6344 553.018 60.8103C554.207 62.0034 554.765 63.464 554.765 65.229C554.765 66.9769 554.091 68.5869 552.739 69.9985C551.384 71.41 549.477 72.1027 547.009 72.1027C541.523 72.1027 538.064 68.4 536.597 61.0207H535.269V72.3832H536.597C536.873 70.9078 537.28 69.759 537.855 68.9464C540.432 71.907 543.643 73.3652 547.498 73.3652C550.851 73.3652 553.528 72.4449 555.534 70.5596C557.539 68.6694 558.539 66.2096 558.539 63.195C558.539 61.2901 558.108 59.6008 557.281 58.145C556.447 56.6917 555.374 55.6007 553.997 54.7784C552.622 53.956 550.383 52.8394 547.358 51.4818C544.196 50.0506 542.073 48.7583 540.859 47.6242C539.624 46.5097 538.973 45.169 538.973 43.5561C538.973 42.2207 539.459 40.9656 540.44 39.8388C541.423 38.7169 542.949 38.1554 545.052 38.1554C547.261 38.1554 549.249 38.9456 550.922 40.47C552.602 41.9994 553.755 44.0513 554.416 46.7124H555.534V37.5242H554.416C554.316 38.6313 553.883 39.6603 553.088 40.6103C551.704 39.0883 550.349 38.0779 549.035 37.5943C547.717 37.1083 546.267 36.8929 544.773 36.8929ZM200.901 36.9631C195.491 36.9631 191.031 38.5808 187.414 41.8728C183.797 45.1623 181.964 49.5513 181.964 54.9888C181.964 60.5662 183.778 65.0099 187.344 68.3853C190.91 71.7656 195.474 73.5054 201.04 73.5054C206.756 73.5054 211.369 71.7656 214.876 68.3853C218.381 65.0099 220.117 60.6539 220.117 55.1992C220.117 49.5702 218.256 45.1304 214.597 41.8728C210.936 38.6177 206.36 36.9631 200.901 36.9631ZM282.03 36.9631C276.566 36.9631 272.284 38.8516 269.102 42.6443C265.92 46.4346 264.28 50.8632 264.28 55.9006C264.28 60.992 265.985 65.2091 269.312 68.5256C272.635 71.8421 276.804 73.5054 281.82 73.5054C284.317 73.5054 286.993 72.9243 289.926 71.8221C292.078 71.012 293.841 70.6297 295.167 70.6297C295.494 70.6297 295.876 70.6287 296.285 70.6999V66.9825C296.285 63.9385 296.373 62.0216 296.564 61.2311C296.753 60.4431 297.155 59.8164 297.752 59.4777C298.347 59.1389 299.503 58.9867 301.176 58.9867V57.7943H286.013V58.9867H286.851C288.243 58.9867 289.195 59.1189 289.716 59.3374C290.237 59.551 290.582 59.969 290.834 60.5999C291.086 61.2332 291.254 62.4947 291.254 64.3874C291.254 66.0002 290.951 67.3297 290.415 68.3853C289.884 69.4433 288.94 70.3141 287.48 71.0506C286.018 71.7919 284.374 72.1728 282.589 72.1728C279.101 72.1728 276.137 70.9198 273.784 68.3152C271.429 65.7155 270.29 61.2339 270.29 54.9888C270.29 48.7264 271.545 44.4003 273.994 41.9429C276.442 39.4881 279.292 38.2256 282.589 38.2256C285.778 38.2256 288.462 39.2805 290.694 41.3818C292.93 43.4856 294.318 46.3375 294.817 49.9388H296.005V38.1554H294.817C294.661 39.5768 294.276 40.9235 293.699 42.1534C290.618 38.6994 286.73 36.9631 282.03 36.9631ZM739.664 36.9631C734.254 36.9631 729.794 38.5808 726.177 41.8728C722.56 45.1623 720.727 49.5513 720.727 54.9888C720.727 60.5662 722.471 65.0099 726.037 68.3853C729.603 71.7656 734.169 73.5054 739.734 73.5054C745.454 73.5054 750.062 71.7656 753.57 68.3853C757.074 65.0099 758.88 60.6539 758.88 55.1992C758.88 49.5702 757.019 45.1304 753.36 41.8728C749.699 38.6177 745.12 36.9631 739.664 36.9631ZM512.279 37.0332L502.077 61.4416C501.343 63.1968 500.857 64.1998 500.749 64.4575C499.666 67.2192 498.787 69.0015 498.024 69.8582C497.261 70.7174 496.093 71.2985 494.53 71.5415V72.7339H505.082V71.5415C503.944 71.5415 503.006 71.2473 502.286 70.6999C501.575 70.1549 501.238 69.3732 501.238 68.3152C501.238 67.3259 501.92 65.2455 503.265 62.0027L504.173 59.7582H517.45L520.175 66.2811C520.97 68.1714 521.363 69.2673 521.363 69.6478C521.363 70.3916 521.047 70.9405 520.455 71.1909C519.858 71.4412 518.716 71.5415 517.031 71.5415V72.7339H530.797V71.5415C529.567 71.4213 528.683 71.1084 528.072 70.6297C527.458 70.156 526.966 69.4956 526.604 68.6659L524.997 65.0186L513.327 37.0332H512.279ZM237.796 37.1735C235.833 37.1735 233.171 37.2366 229.83 37.3839L224.869 37.5943V38.7867H225.428C227.235 38.7867 228.446 38.9659 228.992 39.2777C229.532 39.5894 229.883 40.1484 230.04 40.961C230.199 41.7736 230.25 43.5582 230.25 46.3617V63.686C230.25 66.6294 230.196 68.4895 230.04 69.2971C229.886 70.1023 229.502 70.6725 228.922 71.0506C228.345 71.4311 227.282 71.6117 225.777 71.6117H224.659V72.8041H241.5V71.6117H239.823C238.231 71.6117 237.099 71.3953 236.539 70.9804C235.974 70.568 235.618 69.941 235.49 69.0867C235.361 68.2398 235.351 66.4379 235.351 63.686V55.9707H236.748C237.69 55.9707 238.327 56.145 238.775 56.4617C239.217 56.7808 240.037 57.5986 241.221 59.0568C242.402 60.5077 243.544 62.0325 244.645 63.6159C248.071 68.5698 250.668 71.6233 252.331 72.8041H261.695V71.6117C259.643 71.543 257.891 70.9654 256.384 69.8582C254.882 68.7462 252.811 66.4088 250.165 62.8443C246.917 58.4403 244.5 55.9037 243.037 55.1992C246.285 54.8015 248.772 53.8132 250.444 52.1832C252.122 50.5532 252.96 48.529 252.96 46.2214C252.96 44.2452 252.295 42.5928 251.004 41.1714C249.712 39.7451 248.061 38.7113 245.972 38.0853C243.879 37.4618 241.135 37.1735 237.796 37.1735ZM321.441 37.1735L311.169 61.5117C310.433 63.2645 310.026 64.2699 309.911 64.5277C308.835 67.2894 307.881 69.1418 307.116 69.9985C306.35 70.8577 305.252 71.3687 303.692 71.6117V72.8041H314.244V71.6117C313.101 71.6117 312.163 71.3876 311.448 70.8402C310.732 70.2927 310.4 69.4433 310.4 68.3853C310.4 67.396 311.079 65.3157 312.427 62.0728L313.335 59.8284H326.612L329.267 66.3513C330.06 68.2415 330.525 69.4076 330.525 69.7881C330.525 70.5319 330.214 71.0106 329.617 71.261C329.022 71.5114 327.88 71.6117 326.193 71.6117V72.8041H339.959V71.6117C338.733 71.4889 337.845 71.2487 337.234 70.77C336.622 70.2962 336.126 69.6359 335.766 68.8061L334.159 65.0888L322.489 37.1735H321.441ZM451.974 37.5242V38.7166H452.673C454.463 38.7166 455.566 38.8982 456.097 39.2075C456.625 39.5193 456.986 40.0758 457.145 40.8909C457.311 41.7034 457.425 43.4906 457.425 46.2916V63.5457C457.425 66.4916 457.311 68.4193 457.145 69.227C456.986 70.0322 456.607 70.6024 456.027 70.9804C455.445 71.3609 454.394 71.5415 452.882 71.5415H451.974V72.7339H467.906V71.5415H466.998C465.408 71.5415 464.281 71.3252 463.714 70.9103C463.146 70.493 462.802 69.8733 462.665 69.0166C462.526 68.1574 462.456 66.3246 462.456 63.5457V55.0589H480.764V63.5457C480.764 66.4965 480.711 68.3492 480.554 69.1568C480.4 69.9645 480.006 70.5975 479.436 70.9804C478.861 71.3609 477.834 71.5415 476.362 71.5415H475.174V72.7339H491.036V71.5415H490.267C488.702 71.5415 487.623 71.3252 487.053 70.9103C486.486 70.4954 486.134 69.8733 486.005 69.0166C485.873 68.1598 485.795 66.3173 485.795 63.5457V46.2916C485.795 43.3703 485.896 41.5288 486.075 40.7506C486.258 39.9724 486.592 39.4197 487.123 39.1374C487.658 38.8502 488.825 38.7166 490.547 38.7166H491.036V37.5242H475.174V38.7166H476.082C477.845 38.7166 478.983 38.8982 479.506 39.2075C480.03 39.5193 480.4 40.0758 480.554 40.8909C480.711 41.7034 480.764 43.4906 480.764 46.2916V53.3054H462.456V46.2916C462.456 43.3703 462.552 41.5288 462.735 40.7506C462.919 39.9724 463.31 39.4197 463.853 39.1374C464.394 38.8502 465.478 38.7166 467.207 38.7166H467.906V37.5242H451.974ZM565.177 37.5242V38.7166C566.882 38.7166 567.998 38.8688 568.531 39.2075C569.062 39.5414 569.433 40.1141 569.579 40.961C569.731 41.8079 569.789 43.6108 569.789 46.2916V63.5457C569.789 66.4891 569.716 68.3674 569.579 69.0867C569.44 69.8035 569.107 70.3713 568.601 70.8402C568.095 71.3066 567.044 71.5415 565.317 71.5415H564.548V72.7339H593.478L594.247 61.7922H593.059C592.437 64.4288 591.547 66.4866 590.473 67.9645C589.399 69.4472 588.3 70.4106 587.119 70.8402C585.928 71.2698 584.419 71.4714 582.577 71.4714H579.991C577.648 71.4714 576.195 71.0832 575.659 70.3492C575.126 69.6152 574.89 67.153 574.89 62.9846V54.6381H578.664C580.156 54.6381 581.25 54.7875 581.878 54.9888C582.504 55.1876 582.95 55.586 583.276 56.2513C583.601 56.9215 583.765 58.225 583.765 60.1791H584.953V48.1853H583.765C583.765 49.9111 583.631 51.0982 583.415 51.6922C583.2 52.2888 582.76 52.7303 582.088 53.0249C581.413 53.3195 580.219 53.4457 578.524 53.4457H574.89V38.7166H579.712C582.143 38.7166 583.855 38.8698 584.953 39.1374C586.048 39.4074 587.02 40.005 587.818 41.0311C588.61 42.0597 589.296 43.8391 589.844 46.2916H591.032L590.194 37.5242H565.177ZM344.501 37.5943V38.7867C346.394 38.7867 347.587 38.9473 348.135 39.2075C348.682 39.4677 349.071 40.0453 349.323 40.961C349.574 41.8767 349.742 43.6589 349.742 46.3617V65.0888C349.742 67.2171 349.624 68.5147 349.462 69.0867C349.298 69.6562 348.801 70.204 347.925 70.6999C347.052 71.1958 345.812 71.4889 344.152 71.6117V72.8041H357.149V71.6117C355.295 71.6117 353.953 71.3778 353.026 70.8402C352.099 70.305 351.48 69.7299 351.279 69.0867C351.081 68.446 351 67.114 351 65.0888V40.6103L375.946 73.6457H376.994V44.4679C376.994 42.9607 377.114 41.945 377.344 41.3117C377.574 40.6808 378.11 40.0776 378.951 39.6284C379.797 39.1791 380.977 38.9094 382.445 38.7867V37.5943H369.797V38.7867C371.176 38.7867 372.31 38.9845 373.291 39.3478C374.274 39.7111 374.93 40.1996 375.247 40.8207C375.565 41.4467 375.737 42.5609 375.737 44.1172V65.1589L354.983 37.5943H344.501ZM200.971 38.2256C205.243 38.2256 208.506 39.7255 210.754 42.6443C213.001 45.5632 214.108 49.7224 214.108 55.1992C214.108 60.8306 212.963 65.0516 210.684 67.8943C208.399 70.7371 205.32 72.1728 201.39 72.1728C196.907 72.1728 193.568 70.7371 191.327 67.8943C189.087 65.0516 187.973 60.865 187.973 55.1992C187.973 49.6193 189.087 45.3541 191.327 42.5041C193.568 39.654 196.761 38.2256 200.971 38.2256ZM739.734 38.2256C744.006 38.2256 747.269 39.7255 749.517 42.6443C751.769 45.5632 752.871 49.7224 752.871 55.1992C752.871 60.8306 751.726 65.0516 749.447 67.8943C747.162 70.7371 744.081 72.1728 740.153 72.1728C735.67 72.1728 732.261 70.7371 730.02 67.8943C727.78 65.0516 726.666 60.865 726.666 55.1992C726.666 49.6193 727.78 45.3541 730.02 42.5041C732.261 39.654 735.524 38.2256 739.734 38.2256ZM237.517 38.436C241.599 38.436 244.265 39.1903 245.483 40.6804C246.699 42.1705 247.3 44.1653 247.3 46.6422C247.3 48.0661 247.098 49.2472 246.741 50.2193C246.381 51.189 245.895 52.0075 245.273 52.6041C244.652 53.203 243.833 53.6274 242.828 53.9367C241.825 54.2485 240.626 54.4266 239.264 54.4978C237.902 54.5665 236.627 54.6062 235.351 54.6381V38.5061C236.168 38.4349 236.886 38.436 237.517 38.436ZM510.812 43.5561L516.961 58.4256H504.732L510.812 43.5561ZM319.974 43.6263L326.123 58.5659H313.824L319.974 43.6263ZM624.155 47.3436C627.723 52.0226 632.007 58.1036 636.942 65.6499C634.161 68.8977 631.131 70.5596 627.858 70.5596C624.911 70.5596 622.225 69.282 619.892 66.702C617.559 64.1244 616.398 61.3248 616.398 58.4256C616.398 56.5452 617.072 54.6195 618.424 52.6041C619.77 50.5886 621.694 48.8509 624.155 47.3436ZM765.658 66.0707C764.604 66.0707 763.684 66.4368 762.933 67.1929C762.177 67.949 761.815 68.8728 761.815 69.9284C761.815 70.9643 762.192 71.8831 762.933 72.6638C763.672 73.4444 764.585 73.786 765.658 73.786C766.713 73.786 767.618 73.4174 768.384 72.6638C769.149 71.9052 769.502 71.0085 769.502 69.9284C769.502 68.8728 769.135 67.949 768.384 67.1929C767.626 66.4368 766.737 66.0707 765.658 66.0707Z" fill="black"/>
</svg>
