<svg width="284" height="119" viewBox="0 0 284 119" fill="none" xmlns="http://www.w3.org/2000/svg">
<g clip-path="url(#clip0_312_1342)">
<path d="M14.3102 104.223C14.7595 104.417 15.1433 104.735 15.4157 105.14C15.6881 105.545 15.8376 106.02 15.8464 106.507V118.536C15.844 118.643 15.7996 118.745 15.7227 118.82C15.6458 118.895 15.5425 118.937 15.4349 118.937H12.454C12.4031 118.939 12.3523 118.93 12.3049 118.912C12.2576 118.893 12.2149 118.864 12.1797 118.827C12.1077 118.747 12.0685 118.644 12.07 118.536V107.617H9.66512V118.536C9.66606 118.641 9.6268 118.742 9.55539 118.818C9.52334 118.859 9.4814 118.892 9.43346 118.912C9.38551 118.933 9.3331 118.941 9.28107 118.937H6.53791C6.4312 118.937 6.32887 118.894 6.25342 118.819C6.17796 118.744 6.13558 118.642 6.13558 118.536V107.617H3.77645V118.536C3.78952 118.629 3.76512 118.723 3.70858 118.798C3.65203 118.873 3.56795 118.923 3.47471 118.937H0.411503C0.319757 118.95 0.226215 118.929 0.149818 118.876C0.0734212 118.824 0.0198775 118.745 2.80323e-05 118.654V104.423C-0.013038 104.33 0.0113653 104.236 0.0679058 104.161C0.124446 104.086 0.208527 104.036 0.301776 104.023H13.3227C13.6627 104.016 13.9999 104.085 14.3102 104.223Z" fill="#242425"/>
<path d="M29.2604 104.023C29.7574 104.02 30.2441 104.163 30.6591 104.435C31.0741 104.708 31.3988 105.096 31.5921 105.551C31.7306 105.854 31.8024 106.183 31.8024 106.516V118.545C31.8049 118.597 31.7968 118.649 31.7786 118.697C31.7604 118.746 31.7325 118.79 31.6966 118.827C31.6607 118.865 31.6175 118.894 31.5697 118.915C31.5219 118.935 31.4704 118.946 31.4184 118.946H28.4192C28.3116 118.946 28.2083 118.904 28.1314 118.829C28.0545 118.754 28.0101 118.652 28.0077 118.545V114.723C28.0121 114.62 27.976 114.519 27.9071 114.441C27.8722 114.401 27.8284 114.37 27.7793 114.349C27.7301 114.329 27.6769 114.32 27.6237 114.323H23.3809C23.2733 114.323 23.17 114.365 23.0931 114.44C23.0162 114.515 22.9718 114.616 22.9694 114.723V118.545C22.9772 118.591 22.9758 118.637 22.9653 118.682C22.9547 118.727 22.9352 118.769 22.9079 118.807C22.8807 118.844 22.8462 118.876 22.8065 118.899C22.7668 118.923 22.7227 118.939 22.6768 118.946H19.6136C19.5673 118.955 19.5195 118.954 19.4733 118.944C19.4271 118.935 19.3834 118.915 19.3449 118.888C19.3064 118.861 19.2738 118.826 19.2493 118.786C19.2248 118.746 19.2087 118.701 19.2022 118.654V106.516C19.2014 106.185 19.2667 105.857 19.3942 105.551C19.5135 105.241 19.6973 104.959 19.9337 104.723C20.1748 104.494 20.457 104.312 20.7658 104.187C21.071 104.052 21.4013 103.984 21.735 103.986L29.2604 104.023ZM27.9711 111.129V107.371H22.942V111.12L27.9711 111.129Z" fill="#242425"/>
<path d="M45.2807 104.141C45.3215 104.176 45.3535 104.219 45.3742 104.268C45.3948 104.317 45.4035 104.37 45.3996 104.423V116.471C45.4018 116.803 45.3332 117.131 45.1984 117.435C45.0706 117.742 44.8878 118.022 44.6589 118.263C44.4276 118.5 44.1466 118.684 43.8359 118.8C43.5255 118.927 43.1931 118.992 42.8576 118.991H36.4568C36.1213 118.992 35.7888 118.927 35.4784 118.8C35.0184 118.608 34.6265 118.284 34.3528 117.869C34.0792 117.454 33.9362 116.967 33.9423 116.471V111.921C33.929 111.827 33.9532 111.732 34.0095 111.655C34.0659 111.579 34.15 111.527 34.244 111.512H37.3072C37.4012 111.501 37.4959 111.526 37.5722 111.581C37.6485 111.637 37.7009 111.719 37.7187 111.812V114.969C37.7162 115.021 37.7246 115.073 37.7435 115.122C37.7624 115.17 37.7913 115.215 37.8284 115.251C37.9096 115.321 38.0142 115.356 38.121 115.351H41.2299C41.3339 115.356 41.4355 115.32 41.5134 115.251C41.5536 115.217 41.5853 115.173 41.6059 115.124C41.6265 115.075 41.6355 115.022 41.6323 114.969V104.423C41.6313 104.319 41.6706 104.218 41.742 104.141C41.7765 104.101 41.8202 104.069 41.8694 104.048C41.9187 104.028 41.9722 104.019 42.0255 104.023H45.0064C45.058 104.022 45.1092 104.032 45.1566 104.052C45.2039 104.072 45.2463 104.103 45.2807 104.141Z" fill="#242425"/>
<path d="M58.8408 104.023C59.1745 104.021 59.5049 104.089 59.8101 104.223C60.1092 104.345 60.3807 104.525 60.6085 104.753C60.8362 104.982 61.0156 105.253 61.136 105.551C61.2745 105.854 61.3462 106.183 61.3463 106.516V116.425C61.3453 116.761 61.2736 117.092 61.136 117.399C61.0142 117.703 60.834 117.981 60.6056 118.218C60.3709 118.455 60.0869 118.638 59.7735 118.754C59.4679 118.887 59.1374 118.952 58.8043 118.946H51.2514C50.9209 118.946 50.594 118.878 50.2913 118.745C49.8378 118.56 49.4498 118.245 49.1764 117.84C48.9029 117.435 48.7563 116.958 48.7551 116.471V106.561C48.7544 106.228 48.8196 105.897 48.9472 105.588C49.0611 105.279 49.2422 105 49.4775 104.769C49.7186 104.54 50.0009 104.358 50.3096 104.232C50.6146 104.097 50.9451 104.029 51.2788 104.032L58.8408 104.023ZM57.5516 107.662H52.5224V115.342H57.6064L57.5516 107.662Z" fill="#242425"/>
<path d="M77.7779 118.609C77.8054 118.644 77.8203 118.687 77.8203 118.732C77.8203 118.776 77.8054 118.819 77.7779 118.854C77.7522 118.89 77.7175 118.918 77.6773 118.935C77.6371 118.953 77.5929 118.96 77.5493 118.955H74.1478C74.0278 118.953 73.9106 118.919 73.8095 118.854C73.7006 118.798 73.609 118.713 73.5443 118.609L71.3223 114.56C71.3078 114.532 71.2851 114.509 71.2574 114.495C71.2296 114.48 71.1981 114.474 71.1669 114.478H68.5792C68.5672 114.475 68.5547 114.475 68.5426 114.477C68.5305 114.479 68.519 114.484 68.5087 114.491C68.4985 114.498 68.4897 114.506 68.483 114.517C68.4762 114.527 68.4716 114.538 68.4695 114.551V118.518C68.4758 118.564 68.4728 118.611 68.4605 118.656C68.4481 118.701 68.4268 118.743 68.3978 118.779C68.3687 118.816 68.3326 118.846 68.2915 118.869C68.2504 118.891 68.2052 118.905 68.1586 118.909H65.1136C65.0217 118.922 64.9282 118.899 64.853 118.845C64.7779 118.79 64.727 118.709 64.7113 118.618C64.702 118.582 64.702 118.545 64.7113 118.509V104.423C64.7035 104.378 64.7049 104.331 64.7155 104.286C64.7261 104.241 64.7456 104.199 64.7728 104.162C64.8001 104.124 64.8346 104.093 64.8743 104.069C64.914 104.045 64.958 104.029 65.0039 104.023H74.8062C75.1397 104.022 75.4699 104.09 75.7754 104.223C76.3719 104.481 76.8464 104.956 77.1013 105.551C77.2361 105.855 77.3047 106.184 77.3025 106.516V112.121C77.3058 112.649 77.1356 113.163 76.8178 113.586C76.5199 114.018 76.0854 114.338 75.5834 114.496H75.5194C75.4188 114.496 75.3914 114.569 75.4462 114.623L77.7779 118.609ZM73.5169 107.499H68.3506V111.138H73.5169V107.499Z" fill="#242425"/>
<path d="M97.9493 115.324C98.0017 115.32 98.0543 115.328 98.1033 115.347C98.1523 115.366 98.1965 115.395 98.2328 115.433C98.3048 115.513 98.3439 115.617 98.3425 115.724V118.545C98.3434 118.65 98.3042 118.751 98.2328 118.827C98.1982 118.868 98.1546 118.9 98.1053 118.92C98.056 118.941 98.0026 118.949 97.9493 118.945H88.6957C88.6026 118.959 88.508 118.936 88.4314 118.882C88.3547 118.828 88.302 118.746 88.2842 118.654V104.423C88.2711 104.33 88.2955 104.236 88.3521 104.161C88.4086 104.086 88.4927 104.036 88.586 104.023H91.6492C91.7425 104.01 91.8372 104.034 91.9126 104.09C91.988 104.147 92.0379 104.23 92.0515 104.323C92.0609 104.356 92.0609 104.39 92.0515 104.423V114.942C92.0495 114.995 92.0592 115.047 92.0797 115.096C92.1002 115.145 92.1312 115.188 92.1704 115.224C92.2507 115.296 92.3551 115.335 92.463 115.333L97.9493 115.324Z" fill="#242425"/>
<path d="M111.811 104.141C111.851 104.177 111.882 104.221 111.902 104.269C111.923 104.318 111.932 104.371 111.93 104.423V107.108C111.934 107.161 111.926 107.214 111.905 107.263C111.884 107.312 111.852 107.355 111.811 107.39C111.734 107.461 111.633 107.5 111.528 107.499H104.341C104.329 107.496 104.317 107.496 104.306 107.498C104.294 107.501 104.283 107.506 104.274 107.512C104.264 107.519 104.256 107.528 104.251 107.538C104.245 107.549 104.241 107.56 104.24 107.572V109.892C104.24 109.947 104.24 109.974 104.341 109.974H110.467C110.519 109.971 110.571 109.981 110.618 110.001C110.666 110.022 110.708 110.053 110.742 110.092C110.813 110.169 110.852 110.27 110.851 110.374V112.513C110.852 112.617 110.813 112.718 110.742 112.795C110.708 112.834 110.666 112.865 110.618 112.886C110.571 112.906 110.519 112.915 110.467 112.913H104.341C104.318 112.91 104.295 112.916 104.276 112.93C104.258 112.943 104.245 112.963 104.24 112.986V115.288C104.236 115.299 104.234 115.311 104.236 115.323C104.237 115.335 104.24 115.347 104.246 115.357C104.253 115.368 104.261 115.377 104.271 115.384C104.281 115.391 104.292 115.395 104.304 115.397H111.555C111.661 115.397 111.762 115.438 111.837 115.511C111.912 115.584 111.955 115.684 111.958 115.788V118.518C111.959 118.57 111.95 118.622 111.93 118.671C111.911 118.719 111.882 118.763 111.846 118.801C111.809 118.838 111.765 118.868 111.717 118.888C111.669 118.908 111.617 118.918 111.565 118.918H100.875C100.782 118.932 100.688 118.909 100.611 118.855C100.534 118.801 100.482 118.719 100.464 118.627V104.423C100.466 104.316 100.511 104.214 100.588 104.14C100.664 104.065 100.768 104.023 100.875 104.023H111.555C111.653 104.029 111.744 104.071 111.811 104.141Z" fill="#242425"/>
<path d="M125.408 104.023C125.745 104.02 126.079 104.088 126.387 104.223C126.99 104.469 127.47 104.944 127.722 105.542C127.857 105.846 127.926 106.175 127.923 106.507V118.536C127.925 118.588 127.917 118.639 127.899 118.688C127.881 118.736 127.853 118.781 127.817 118.818C127.781 118.856 127.738 118.885 127.69 118.906C127.642 118.926 127.591 118.937 127.539 118.937H124.512C124.406 118.937 124.303 118.894 124.228 118.819C124.152 118.744 124.11 118.642 124.11 118.536V114.714C124.111 114.61 124.072 114.509 124 114.432C123.966 114.392 123.922 114.36 123.873 114.339C123.824 114.319 123.77 114.31 123.717 114.314H119.538C119.43 114.314 119.327 114.356 119.25 114.431C119.173 114.506 119.129 114.607 119.127 114.714V118.536C119.14 118.629 119.115 118.723 119.059 118.798C119.002 118.873 118.918 118.923 118.825 118.937H115.762C115.716 118.944 115.669 118.943 115.624 118.932C115.579 118.922 115.536 118.902 115.499 118.875C115.461 118.848 115.43 118.814 115.406 118.774C115.382 118.735 115.366 118.691 115.359 118.645C115.35 118.61 115.35 118.572 115.359 118.536V106.516C115.359 106.185 115.424 105.857 115.551 105.551C115.671 105.241 115.854 104.959 116.091 104.723C116.332 104.494 116.614 104.312 116.923 104.187C117.228 104.052 117.558 103.983 117.892 103.986L125.408 104.023ZM124.128 111.129V107.371H119.09V111.12L124.128 111.129Z" fill="#242425"/>
<path d="M143.742 110.92C143.78 110.958 143.81 111.003 143.829 111.054C143.848 111.104 143.855 111.158 143.852 111.211V116.471C143.854 116.803 143.785 117.131 143.65 117.435C143.522 117.739 143.343 118.019 143.12 118.263C142.884 118.498 142.6 118.681 142.288 118.8C141.981 118.926 141.651 118.991 141.319 118.991H133.729C133.4 118.992 133.074 118.929 132.769 118.804C132.465 118.679 132.188 118.495 131.955 118.263C131.722 118.032 131.538 117.756 131.412 117.453C131.287 117.15 131.223 116.826 131.224 116.498V106.58C131.224 106.249 131.289 105.921 131.416 105.615C131.528 105.303 131.71 105.02 131.946 104.787C132.186 104.56 132.465 104.378 132.769 104.25C133.079 104.12 133.411 104.052 133.748 104.05H142.645C142.754 104.05 142.858 104.093 142.936 104.17C143.013 104.247 143.056 104.351 143.056 104.46V107.271C143.056 107.38 143.013 107.484 142.936 107.561C142.858 107.638 142.754 107.681 142.645 107.681H135.467C135.359 107.679 135.254 107.718 135.174 107.79C135.098 107.865 135.056 107.966 135.055 108.072V114.978C135.056 115.029 135.066 115.08 135.087 115.127C135.107 115.174 135.137 115.216 135.174 115.251C135.213 115.288 135.259 115.317 135.309 115.336C135.359 115.355 135.413 115.363 135.467 115.36H139.709C139.757 115.363 139.806 115.356 139.851 115.34C139.896 115.324 139.938 115.299 139.974 115.267C140.009 115.235 140.038 115.196 140.059 115.153C140.079 115.109 140.091 115.062 140.093 115.015V111.248C140.091 111.196 140.099 111.144 140.117 111.096C140.135 111.047 140.163 111.003 140.199 110.965C140.235 110.928 140.278 110.898 140.326 110.878C140.374 110.858 140.426 110.847 140.478 110.847H143.477C143.571 110.839 143.665 110.865 143.742 110.92Z" fill="#242425"/>
<path d="M159.552 104.141C159.627 104.216 159.67 104.317 159.671 104.423V116.47C159.67 116.803 159.598 117.132 159.46 117.435C159.335 117.741 159.156 118.021 158.93 118.263C158.694 118.498 158.41 118.681 158.098 118.8C157.788 118.927 157.455 118.992 157.12 118.991H149.53C149.198 118.991 148.868 118.926 148.561 118.8C147.956 118.548 147.474 118.072 147.217 117.471C147.089 117.163 147.024 116.832 147.025 116.498V104.423C147.012 104.33 147.036 104.236 147.093 104.161C147.149 104.086 147.233 104.036 147.326 104.023H150.39C150.483 104.01 150.578 104.034 150.653 104.09C150.728 104.147 150.778 104.23 150.792 104.323C150.801 104.356 150.801 104.39 150.792 104.423V114.942C150.79 114.995 150.8 115.047 150.82 115.096C150.841 115.145 150.872 115.188 150.911 115.224C150.991 115.296 151.096 115.335 151.203 115.333H155.446C155.497 115.334 155.547 115.325 155.594 115.306C155.641 115.287 155.684 115.259 155.721 115.224C155.76 115.189 155.79 115.145 155.809 115.096C155.828 115.047 155.835 114.994 155.83 114.942V104.423C155.833 104.316 155.877 104.214 155.954 104.139C156.031 104.065 156.134 104.023 156.242 104.023H159.223C159.283 104.013 159.345 104.018 159.403 104.039C159.46 104.06 159.512 104.095 159.552 104.141Z" fill="#242425"/>
<path d="M174.401 104.141C174.477 104.216 174.52 104.317 174.52 104.423V107.107C174.522 107.16 174.513 107.213 174.492 107.261C174.472 107.31 174.441 107.354 174.401 107.389C174.321 107.461 174.217 107.5 174.109 107.499H166.931C166.919 107.496 166.906 107.496 166.894 107.498C166.882 107.5 166.871 107.505 166.86 107.512C166.85 107.519 166.841 107.527 166.835 107.538C166.828 107.548 166.823 107.559 166.821 107.571V109.928C166.821 109.983 166.821 110.01 166.931 110.01H173.057C173.109 110.009 173.16 110.019 173.207 110.039C173.255 110.06 173.297 110.09 173.332 110.128C173.403 110.205 173.442 110.306 173.441 110.41V112.549C173.442 112.653 173.403 112.754 173.332 112.831C173.297 112.869 173.255 112.9 173.207 112.92C173.16 112.94 173.109 112.95 173.057 112.949H166.931C166.907 112.946 166.882 112.952 166.862 112.965C166.842 112.978 166.828 112.999 166.821 113.022V115.36C166.818 115.372 166.818 115.385 166.821 115.397C166.823 115.409 166.827 115.42 166.834 115.431C166.841 115.441 166.85 115.449 166.86 115.456C166.871 115.463 166.882 115.467 166.894 115.47H174.109C174.215 115.469 174.317 115.51 174.393 115.583C174.47 115.656 174.516 115.755 174.52 115.861V118.591C174.52 118.695 174.479 118.796 174.406 118.871C174.332 118.945 174.232 118.989 174.127 118.991H163.465C163.419 118.999 163.372 118.997 163.326 118.987C163.28 118.977 163.237 118.957 163.199 118.93C163.161 118.903 163.128 118.869 163.103 118.829C163.078 118.79 163.062 118.746 163.054 118.7C163.045 118.664 163.045 118.626 163.054 118.591V104.423C163.056 104.316 163.101 104.214 163.178 104.139C163.254 104.065 163.358 104.023 163.465 104.023H174.109C174.163 104.021 174.217 104.03 174.268 104.051C174.318 104.071 174.364 104.102 174.401 104.141Z" fill="#242425"/>
<path d="M197.398 104.023C197.45 104.02 197.502 104.028 197.551 104.046C197.6 104.065 197.644 104.092 197.682 104.128C197.719 104.164 197.749 104.207 197.77 104.254C197.79 104.302 197.801 104.353 197.801 104.405V118.545C197.802 118.597 197.793 118.649 197.773 118.698C197.754 118.746 197.725 118.79 197.689 118.828C197.652 118.865 197.608 118.895 197.56 118.915C197.512 118.935 197.46 118.946 197.408 118.946H194.417C194.31 118.946 194.207 118.904 194.13 118.829C194.053 118.754 194.008 118.652 194.006 118.545V113.586C194.008 113.538 194.001 113.49 193.985 113.445C193.969 113.4 193.944 113.359 193.912 113.323C193.88 113.288 193.841 113.259 193.797 113.238C193.754 113.218 193.707 113.206 193.659 113.204H189.388C189.28 113.201 189.175 113.24 189.096 113.313C189.055 113.347 189.023 113.391 189.002 113.44C188.982 113.489 188.973 113.542 188.977 113.595V118.554C188.99 118.647 188.966 118.741 188.909 118.816C188.852 118.891 188.768 118.941 188.675 118.955C188.642 118.964 188.607 118.964 188.575 118.955H185.621C185.528 118.968 185.433 118.943 185.358 118.887C185.282 118.831 185.232 118.747 185.219 118.654C185.209 118.622 185.209 118.587 185.219 118.554V104.423C185.206 104.33 185.23 104.236 185.287 104.161C185.343 104.086 185.427 104.036 185.52 104.023H188.584C188.677 104.01 188.772 104.034 188.847 104.09C188.922 104.147 188.972 104.23 188.986 104.323C188.995 104.356 188.995 104.39 188.986 104.423V109.191C188.973 109.284 188.997 109.378 189.054 109.453C189.11 109.528 189.194 109.578 189.288 109.592H193.631C193.684 109.595 193.736 109.587 193.785 109.568C193.834 109.55 193.878 109.52 193.915 109.482C193.987 109.402 194.026 109.298 194.024 109.191V104.414C194.027 104.307 194.071 104.205 194.148 104.13C194.225 104.056 194.328 104.014 194.436 104.014H197.408L197.398 104.023Z" fill="#242425"/>
<path d="M211.279 104.023C211.615 104.02 211.949 104.088 212.257 104.223C212.86 104.469 213.34 104.944 213.592 105.542C213.728 105.846 213.796 106.175 213.793 106.507V118.536C213.796 118.588 213.788 118.639 213.769 118.688C213.751 118.736 213.723 118.781 213.687 118.818C213.652 118.856 213.608 118.885 213.561 118.906C213.513 118.926 213.461 118.936 213.409 118.936H210.41C210.303 118.936 210.201 118.894 210.126 118.819C210.05 118.744 210.008 118.642 210.008 118.536V114.714C210.009 114.61 209.969 114.509 209.898 114.432C209.863 114.392 209.82 114.36 209.771 114.339C209.721 114.319 209.668 114.31 209.615 114.314H205.363C205.256 114.314 205.154 114.356 205.078 114.431C205.003 114.506 204.96 114.608 204.96 114.714V118.536C204.973 118.629 204.949 118.723 204.892 118.798C204.836 118.873 204.752 118.923 204.659 118.936H201.595C201.549 118.944 201.502 118.943 201.456 118.933C201.41 118.922 201.367 118.903 201.329 118.876C201.291 118.849 201.258 118.814 201.233 118.775C201.208 118.735 201.192 118.691 201.184 118.645V106.516C201.183 106.185 201.248 105.857 201.376 105.551C201.495 105.241 201.679 104.959 201.915 104.723C202.158 104.496 202.44 104.314 202.747 104.187C203.053 104.053 203.383 103.985 203.717 103.986L211.279 104.023ZM209.999 111.129V107.371H204.96V111.12L209.999 111.129Z" fill="#242425"/>
<path d="M220.99 107.753C220.952 107.79 220.922 107.834 220.903 107.882C220.884 107.931 220.876 107.983 220.88 108.036V114.942C220.876 114.994 220.884 115.046 220.903 115.095C220.922 115.144 220.952 115.188 220.99 115.224C221.07 115.296 221.174 115.335 221.282 115.333H228.168C228.219 115.331 228.271 115.339 228.32 115.357C228.369 115.375 228.413 115.403 228.451 115.438C228.489 115.474 228.519 115.517 228.539 115.565C228.559 115.612 228.57 115.664 228.57 115.715V118.554C228.572 118.606 228.564 118.658 228.546 118.706C228.528 118.755 228.5 118.799 228.464 118.836C228.428 118.874 228.385 118.904 228.337 118.924C228.289 118.944 228.238 118.955 228.186 118.955H219.618C219.285 118.956 218.956 118.891 218.649 118.764C218.337 118.645 218.053 118.462 217.817 118.227C217.352 117.734 217.094 117.083 217.094 116.407V106.525C217.093 106.194 217.158 105.866 217.286 105.561C217.399 105.249 217.58 104.966 217.817 104.732C218.058 104.503 218.34 104.321 218.649 104.196C218.954 104.061 219.284 103.992 219.618 103.995H228.168C228.273 103.995 228.374 104.036 228.449 104.109C228.524 104.183 228.567 104.282 228.57 104.387V107.217C228.572 107.321 228.534 107.423 228.462 107.499C228.39 107.576 228.291 107.621 228.186 107.626H221.282C221.227 107.627 221.173 107.638 221.123 107.66C221.073 107.682 221.027 107.714 220.99 107.753Z" fill="#242425"/>
<path d="M240.484 110.31C240.466 110.33 240.456 110.356 240.456 110.383C240.456 110.41 240.466 110.436 240.484 110.456L245.458 118.645C245.486 118.68 245.501 118.724 245.501 118.768C245.501 118.813 245.486 118.856 245.458 118.891C245.433 118.926 245.398 118.954 245.358 118.972C245.318 118.989 245.273 118.996 245.23 118.991H241.664C241.544 118.99 241.427 118.955 241.325 118.891C241.217 118.836 241.128 118.751 241.069 118.645L237.86 112.831C237.86 112.749 237.778 112.749 237.75 112.831L235.976 114.769C235.893 114.857 235.831 114.963 235.793 115.078C235.746 115.194 235.722 115.317 235.72 115.442V118.6C235.731 118.693 235.706 118.787 235.65 118.863C235.594 118.939 235.511 118.991 235.418 119.009H232.419C232.326 119.022 232.231 118.998 232.156 118.942C232.081 118.885 232.031 118.802 232.017 118.709C232.008 118.673 232.008 118.636 232.017 118.6V104.423C232.004 104.33 232.028 104.236 232.085 104.161C232.141 104.086 232.225 104.036 232.319 104.023H235.382C235.475 104.01 235.57 104.034 235.645 104.09C235.721 104.147 235.771 104.23 235.784 104.323C235.794 104.356 235.794 104.39 235.784 104.423V110.793L241.316 104.35C241.379 104.254 241.46 104.171 241.554 104.105C241.668 104.051 241.793 104.023 241.92 104.023H245.477C245.596 104.023 245.66 104.023 245.687 104.105C245.715 104.187 245.687 104.241 245.614 104.323L240.484 110.31Z" fill="#242425"/>
<path d="M252.051 118.545C252.059 118.591 252.058 118.637 252.047 118.682C252.037 118.727 252.017 118.769 251.99 118.807C251.963 118.844 251.928 118.875 251.888 118.899C251.849 118.923 251.805 118.939 251.759 118.945H248.714C248.668 118.953 248.62 118.952 248.574 118.942C248.529 118.931 248.486 118.912 248.447 118.885C248.409 118.858 248.377 118.824 248.352 118.784C248.327 118.744 248.31 118.7 248.302 118.654V104.423C248.289 104.33 248.314 104.236 248.37 104.161C248.427 104.086 248.511 104.036 248.604 104.023H251.667C251.761 104.01 251.855 104.034 251.931 104.09C252.006 104.147 252.056 104.23 252.07 104.323C252.079 104.356 252.079 104.39 252.07 104.423L252.051 118.545Z" fill="#242425"/>
<path d="M266.453 104.223C267.052 104.475 267.53 104.948 267.788 105.542C267.92 105.847 267.985 106.175 267.98 106.507V118.536C267.982 118.588 267.974 118.639 267.956 118.688C267.938 118.736 267.91 118.781 267.874 118.818C267.838 118.856 267.795 118.885 267.747 118.906C267.699 118.926 267.648 118.936 267.596 118.936H264.633C264.581 118.94 264.528 118.932 264.479 118.913C264.43 118.895 264.386 118.865 264.35 118.827C264.278 118.747 264.239 118.643 264.24 118.536V108.026C264.244 107.973 264.235 107.92 264.215 107.871C264.194 107.822 264.162 107.779 264.121 107.744C264.044 107.673 263.943 107.634 263.838 107.635H259.595C259.487 107.634 259.383 107.673 259.302 107.744C259.263 107.78 259.232 107.824 259.212 107.872C259.191 107.921 259.182 107.974 259.183 108.026V118.545C259.197 118.638 259.172 118.732 259.116 118.807C259.059 118.882 258.975 118.932 258.882 118.946H255.818C255.727 118.959 255.633 118.936 255.558 118.881C255.483 118.827 255.432 118.745 255.416 118.654C255.407 118.619 255.407 118.581 255.416 118.545V104.423C255.403 104.33 255.428 104.236 255.484 104.161C255.541 104.086 255.625 104.036 255.718 104.023H265.511C265.836 104.021 266.157 104.089 266.453 104.223Z" fill="#242425"/>
<path d="M283.835 110.92C283.875 110.957 283.906 111.003 283.926 111.053C283.947 111.103 283.956 111.157 283.954 111.211V116.471C283.953 116.803 283.882 117.132 283.744 117.435C283.622 117.742 283.442 118.024 283.214 118.263C282.979 118.5 282.695 118.683 282.381 118.8C282.075 118.928 281.745 118.993 281.412 118.991H273.823C273.49 118.991 273.161 118.926 272.854 118.8C272.4 118.602 272.016 118.276 271.749 117.861C271.482 117.447 271.345 116.963 271.354 116.471V106.561C271.357 106.213 271.432 105.87 271.573 105.551C271.687 105.243 271.868 104.963 272.104 104.732C272.345 104.503 272.627 104.321 272.936 104.196C273.241 104.061 273.571 103.992 273.905 103.995H282.756C282.863 103.995 282.965 104.038 283.041 104.113C283.116 104.188 283.159 104.29 283.159 104.396V107.217C283.159 107.323 283.116 107.425 283.041 107.5C282.965 107.575 282.863 107.617 282.756 107.617H275.569C275.464 107.616 275.363 107.655 275.286 107.726C275.245 107.76 275.213 107.804 275.192 107.853C275.172 107.902 275.163 107.955 275.167 108.008V114.915C275.163 114.968 275.172 115.021 275.192 115.07C275.213 115.119 275.245 115.162 275.286 115.197C275.323 115.232 275.368 115.26 275.417 115.277C275.466 115.294 275.518 115.301 275.569 115.297H279.766C279.814 115.299 279.862 115.292 279.908 115.276C279.953 115.26 279.995 115.235 280.03 115.203C280.066 115.171 280.095 115.132 280.116 115.089C280.136 115.046 280.148 114.999 280.15 114.951V111.184C280.148 111.132 280.156 111.081 280.174 111.032C280.192 110.984 280.22 110.939 280.256 110.902C280.292 110.864 280.335 110.835 280.383 110.814C280.431 110.794 280.482 110.783 280.534 110.784H283.534C283.591 110.783 283.647 110.795 283.7 110.819C283.752 110.842 283.798 110.877 283.835 110.92Z" fill="#242425"/>
<path d="M90.3874 1.28307C94.1541 2.88061 97.1527 5.86785 98.754 9.61798C99.6047 11.5326 100.044 13.6029 100.043 15.6963V94.0044C100.048 94.6738 99.7863 95.3177 99.315 95.7953C98.8436 96.2728 98.2013 96.545 97.5287 96.5522H78.6375C78.3075 96.5655 77.9787 96.5054 77.675 96.3763C77.3713 96.2473 77.1004 96.0525 76.8818 95.8061C76.4256 95.311 76.1827 94.6576 76.2052 93.9862V22.8574H61.0721V94.0317C61.0898 94.7023 60.8475 95.354 60.3954 95.8516C60.1723 96.0947 59.8992 96.2872 59.5947 96.416C59.2902 96.5447 58.9614 96.6067 58.6306 96.5977H41.5773C41.2435 96.6025 40.9119 96.5419 40.6017 96.4192C40.2914 96.2965 40.0085 96.1142 39.769 95.8826C39.5296 95.6511 39.3383 95.3749 39.2061 95.0698C39.074 94.7647 39.0035 94.4367 38.9987 94.1045V22.8574H23.8381V94.0317C23.8871 94.3797 23.8541 94.7342 23.7417 95.0673C23.6292 95.4004 23.4405 95.7029 23.1904 95.9509C22.9403 96.1989 22.6357 96.3856 22.3006 96.4963C21.9654 96.607 21.6091 96.6386 21.2596 96.5886H2.5786C2.22911 96.6386 1.87273 96.607 1.53762 96.4963C1.20251 96.3856 0.897868 96.1989 0.647757 95.9509C0.397647 95.7029 0.208927 95.4004 0.0965105 95.0673C-0.0159058 94.7342 -0.0489373 94.3797 2.64887e-05 94.0317V2.55696C-0.0489373 2.209 -0.0159058 1.85447 0.0965105 1.5214C0.208927 1.18832 0.397647 0.885827 0.647757 0.63782C0.897868 0.389813 1.20251 0.20309 1.53762 0.0924065C1.87273 -0.0182771 2.22911 -0.0498877 2.5786 7.28294e-05H84.2244C86.3466 -0.0094356 88.4469 0.427795 90.3874 1.28307Z" fill="#E73427"/>
<path d="M182.137 73.1398C182.478 73.1327 182.817 73.1962 183.131 73.3262C183.446 73.4562 183.73 73.6499 183.966 73.895C184.441 74.3994 184.697 75.0695 184.679 75.7604V93.9589C184.691 94.6352 184.435 95.2889 183.966 95.7787C183.732 96.0264 183.448 96.2224 183.133 96.354C182.818 96.4857 182.479 96.5501 182.137 96.5431H117.673C115.844 96.5431 114.93 95.6331 114.93 93.9225V2.62058C114.93 0.873528 115.844 0 117.673 0H137.46C139.289 0 140.203 0.909925 140.203 2.62058V70.6557C140.193 71.0022 140.263 71.3464 140.407 71.6619C140.551 71.9774 140.766 72.2557 141.035 72.4755C141.568 72.9417 142.256 73.1917 142.965 73.1762L182.137 73.1398Z" fill="#1D539F"/>
<path d="M281.211 4.60972e-05C281.572 -0.00989055 281.932 0.0526701 282.268 0.183993C282.604 0.315316 282.91 0.512708 283.168 0.764383C283.43 1.00003 283.64 1.28783 283.783 1.60915C283.926 1.93048 284 2.27817 284 2.62973V94.241C284 94.5925 283.926 94.9402 283.783 95.2616C283.64 95.5829 283.43 95.8707 283.168 96.1063C282.91 96.358 282.604 96.5554 282.268 96.6867C281.932 96.818 281.572 96.8806 281.211 96.8707H261.168C260.808 96.8799 260.451 96.817 260.116 96.6857C259.781 96.5543 259.477 96.3573 259.22 96.1063C258.955 95.8733 258.743 95.586 258.599 95.2641C258.456 94.9422 258.384 94.5932 258.388 94.241V62.2753C258.403 61.9385 258.347 61.6022 258.222 61.2886C258.098 60.9749 257.908 60.691 257.666 60.4555C257.415 60.2218 257.12 60.0403 256.799 59.9216C256.477 59.8028 256.134 59.7492 255.791 59.7639H227.683C226.969 59.7412 226.273 59.9883 225.735 60.4555C225.466 60.6757 225.252 60.9542 225.108 61.2695C224.963 61.5849 224.893 61.929 224.903 62.2753V94.241C224.903 95.988 223.989 96.8707 222.16 96.8707H202.263C200.434 96.8707 199.52 95.9607 199.52 94.241V2.62973C199.52 0.873574 200.434 4.60972e-05 202.263 4.60972e-05H222.197C224.025 4.60972e-05 224.94 0.909971 224.94 2.62973V33.6673C224.94 35.4143 225.854 36.2879 227.683 36.2879H255.855C256.205 36.2998 256.553 36.2387 256.877 36.1087C257.202 35.9786 257.495 35.7824 257.739 35.5326C258.203 35.039 258.461 34.3886 258.461 33.7128V2.62973C258.457 2.27841 258.528 1.93024 258.67 1.60853C258.812 1.28683 259.021 0.999018 259.284 0.764383C259.786 0.272245 260.463 -0.00249704 261.168 4.60972e-05H281.211Z" fill="#F8B92A"/>
</g>
<defs>
<clipPath id="clip0_312_1342">
<rect width="284" height="119" fill="white"/>
</clipPath>
</defs>
</svg>
