<?xml version="1.0" encoding="utf-8"?>
<!-- Generator: Adobe Illustrator 25.3.1, SVG Export Plug-In . SVG Version: 6.00 Build 0)  -->
<svg version="1.1" id="Layer_1" xmlns="http://www.w3.org/2000/svg" xmlns:xlink="http://www.w3.org/1999/xlink" x="0px" y="0px"
	 viewBox="0 0 448.79 223.87" style="enable-background:new 0 0 448.79 223.87;" xml:space="preserve">
<style type="text/css">
	.st0{clip-path:url(#SVGID_2_);}
	.st1{opacity:0;clip-path:url(#SVGID_4_);}
	.st2{clip-path:url(#SVGID_6_);fill:#FFFFFF;}
	.st3{clip-path:url(#SVGID_4_);fill:#FF5C39;}
	.st4{clip-path:url(#SVGID_4_);fill:#FFFFFF;}
	.st5{clip-path:url(#SVGID_4_);fill:#49C5B1;}
	.st6{clip-path:url(#SVGID_4_);fill:#333F48;}
</style>
<g>
	<defs>
		<rect id="SVGID_1_" x="-80.86" y="-174.16" width="600" height="600"/>
	</defs>
	<clipPath id="SVGID_2_">
		<use xlink:href="#SVGID_1_"  style="overflow:visible;"/>
	</clipPath>
	<g class="st0">
		<defs>
			<rect id="SVGID_3_" x="-80.86" y="-174.16" width="600" height="600"/>
		</defs>
		<clipPath id="SVGID_4_">
			<use xlink:href="#SVGID_3_"  style="overflow:visible;"/>
		</clipPath>
		<g class="st1">
			<g>
				<defs>
					<rect id="SVGID_5_" x="-26.4" y="2.09" width="491.08" height="247.49"/>
				</defs>
				<clipPath id="SVGID_6_">
					<use xlink:href="#SVGID_5_"  style="overflow:visible;"/>
				</clipPath>
				<rect x="-26.4" y="2.09" class="st2" width="491.08" height="247.49"/>
			</g>
		</g>
		<path class="st3" d="M152.37,124.44c-0.23-0.26-0.56-0.42-0.91-0.42h-23.06c-0.59,0-1.09,0.43-1.18,1.01l-13.44,85.2
			c-0.05,0.34,0.04,0.7,0.27,0.96c0.23,0.26,0.56,0.42,0.91,0.42h23.05c0.59,0,1.09-0.43,1.18-1.01l13.45-85.2
			C152.7,125.06,152.6,124.7,152.37,124.44"/>
		<path class="st3" d="M194.46,188.74c-0.23-0.26-0.56-0.42-0.91-0.42l-11.88,0c-2.56-0.24-4.5-1.25-5.94-3.08
			c-2.6-3.34-3.4-9.64-2.18-17.29c0.58-3.7,2.55-12.84,8.24-17.7c3.41-2.84,7.04-3.06,8.07-3.06c0.13,0,0.2,0,0.21,0.01
			c0.03,0,0.05,0,0.08,0h10.25c0.59,0,1.09-0.43,1.18-1.01l3.28-20.79c0.05-0.34-0.05-0.7-0.27-0.96c-0.23-0.26-0.56-0.42-0.91-0.42
			l-11.24,0.01c-3.02,0-13.68,0.57-24.01,7.94c-10.74,7.65-17.48,19.82-20.04,36.15c-2.32,14.59-0.05,26.38,6.54,34.11
			c5.18,6.06,12.68,9.27,21.68,9.27h13.64c0.59,0,1.09-0.43,1.18-1.01l3.28-20.79C194.79,189.35,194.69,189,194.46,188.74"/>
		<path class="st3" d="M121.35,146.19l3.28-20.79c0.05-0.35-0.04-0.7-0.27-0.96c-0.23-0.26-0.56-0.42-0.91-0.42H74.52
			c-0.59,0-1.09,0.43-1.18,1.01l-3.28,20.79c-0.05,0.34,0.05,0.69,0.27,0.96c0.23,0.26,0.56,0.42,0.91,0.42H82.5l-9.95,63.03
			c-0.05,0.34,0.04,0.7,0.27,0.96c0.23,0.26,0.56,0.42,0.91,0.42h23.05c0.59,0,1.09-0.43,1.18-1.01l10.02-63.4h12.2
			C120.76,147.2,121.26,146.77,121.35,146.19"/>
		<path class="st3" d="M70.47,124.44c-0.23-0.26-0.56-0.42-0.91-0.42H51.4c-0.04,0-0.08,0-0.12,0.01
			c-18.9,0.07-28.67,17.23-30.39,28.05c-0.93,5.63-0.17,10.59,2.32,15.19c2.49,4.27,6.12,7.66,9.63,10.76
			c0.02,0.02,0.05,0.04,0.07,0.06c1.43,1.08,2.29,1.93,2.88,2.85c0.02,0.04,0.05,0.08,0.08,0.11c0.83,1.01,1.09,2.14,0.84,3.65
			c-0.14,0.95-0.59,1.79-1.31,2.5c-1.05,0.98-2.95,1.1-3.47,1.12H16.18c-0.59,0-1.09,0.43-1.18,1.01l-3.28,20.79
			c-0.05,0.35,0.04,0.7,0.27,0.96c0.23,0.27,0.56,0.42,0.91,0.42h17.02c15.53,0,29.17-12.25,31.72-28.49
			c0.95-6.04,0.35-10.82-1.87-15.03c-2.2-4.16-5.93-7.44-9.64-10.37c-0.35-0.35-0.75-0.69-1.17-1.06c-0.78-0.68-1.59-1.39-2.16-2.15
			c-1.03-1.37-1.41-2.53-1.2-3.7c0.11-0.76,0.46-1.46,1.03-2.08c0.1-0.1,0.19-0.19,0.31-0.3c1.01-0.89,2.16-1.08,2.78-1.12h16.56
			c0.59,0,1.09-0.43,1.18-1.01l3.29-20.79C70.79,125.06,70.69,124.7,70.47,124.44"/>
		<path class="st3" d="M426.33,124.44c-0.23-0.26-0.56-0.42-0.91-0.42h-18.16c-0.04,0-0.08,0-0.12,0.01
			c-18.9,0.07-28.67,17.23-30.39,28.05c-0.92,5.63-0.17,10.59,2.32,15.19c2.49,4.27,6.12,7.66,9.63,10.76
			c0.02,0.02,0.05,0.04,0.07,0.06c1.43,1.08,2.29,1.93,2.87,2.85c0.02,0.04,0.05,0.08,0.08,0.11c0.83,1.01,1.09,2.14,0.84,3.65
			c-0.15,0.94-0.59,1.79-1.31,2.5c-1.05,0.98-2.95,1.1-3.47,1.12h-15.74c-0.59,0-1.08,0.43-1.18,1.01l-2.52,15.96l-9.64-29.65
			c8.78-3.69,14.7-11.6,16.32-21.87c1.46-9.4,0.12-16.36-4.09-21.28c-4.94-5.77-13.57-8.46-27.15-8.46h-22.27
			c-0.59,0-1.09,0.43-1.18,1.01l-13.44,85.2c-0.05,0.34,0.05,0.69,0.27,0.96c0.23,0.26,0.56,0.42,0.91,0.42h23.05
			c0.59,0,1.08-0.43,1.18-1l3.61-22.71c0.34-2.09,0.62-4.17,0.88-6.25l5.82,29.01c0.11,0.56,0.6,0.96,1.17,0.96h24.97
			c0.17,0,0.34-0.04,0.5-0.11h16.52c15.53,0,29.17-12.25,31.72-28.49c0.95-6.04,0.35-10.82-1.87-15.03
			c-2.2-4.16-5.93-7.45-9.64-10.37c-0.35-0.35-0.75-0.7-1.17-1.06c-0.78-0.68-1.59-1.38-2.16-2.14c-1.03-1.37-1.41-2.53-1.2-3.69
			c0.11-0.76,0.46-1.46,1.03-2.08c0.09-0.1,0.19-0.19,0.31-0.3c1.01-0.89,2.16-1.08,2.78-1.12h16.55c0.59,0,1.09-0.43,1.18-1
			l3.29-20.79C426.66,125.06,426.56,124.7,426.33,124.44 M349.72,153.63c-0.69,4.87-4.29,9.8-9.85,9.82l-0.13-0.01l3.03-18.76
			c1.85,0.02,4.32,0.41,5.79,2.16C349.84,148.35,350.23,150.62,349.72,153.63"/>
		<path class="st3" d="M245.21,166.5l24.58-40.67c0.22-0.37,0.23-0.83,0.02-1.2c-0.21-0.38-0.61-0.61-1.04-0.61h-24.29
			c-0.45,0-0.86,0.25-1.06,0.65l-15.07,29.84l4.54-29.12c0.05-0.34-0.05-0.69-0.27-0.96c-0.23-0.26-0.56-0.42-0.9-0.42h-23.06
			c-0.59,0-1.08,0.43-1.18,1.01l-13.44,85.2c-0.06,0.34,0.04,0.7,0.27,0.96c0.23,0.26,0.56,0.42,0.91,0.42h23.05
			c0.59,0,1.09-0.43,1.18-1l5.25-32.98l6.87,33.03c0.11,0.55,0.6,0.95,1.17,0.95h24.75c0.38,0,0.73-0.18,0.96-0.48
			c0.23-0.3,0.29-0.7,0.18-1.06L245.21,166.5z"/>
		<path class="st3" d="M307.19,189.53c-0.23-0.26-0.56-0.42-0.91-0.42H287.9l1.66-10.61h16.72c0.58,0,1.08-0.42,1.18-1l3.29-20.11
			c0.06-0.35-0.04-0.7-0.27-0.96c-0.23-0.27-0.56-0.42-0.91-0.42H293.2l1.45-9.49h18.75c0.59,0,1.09-0.43,1.18-1.01l3.17-20.11
			c0.05-0.34-0.05-0.7-0.27-0.96c-0.23-0.26-0.56-0.42-0.91-0.42h-42.83c-0.59,0-1.09,0.43-1.18,1.01l-13.44,85.2
			c-0.05,0.34,0.04,0.69,0.27,0.96c0.23,0.26,0.56,0.42,0.91,0.42h42.82c0.59,0,1.09-0.43,1.18-1.01l3.17-20.11
			C307.51,190.14,307.41,189.79,307.19,189.53"/>
		<path class="st4" d="M179.24,60.07c0,5.54,0.63,11.11,1.27,16.52l-13.08-36.42h-20.94v63.33l-13.44-63.33h-26.18l-18.22,75.88
			h22.98l1.66-9.45h11.34l1.46,9.45h20.39h2.66h18.82V93.31c0-4.17-0.32-8.34-0.67-12.42l12.28,35.15h21.15V40.17h-21.49V60.07z
			 M121.97,88.61h-5.63l2.51-15.67c0.24-1.43,0.46-2.87,0.65-4.31c0.15,1.42,0.31,2.85,0.5,4.26L121.97,88.61z"/>
		<polygon class="st4" points="98.49,40.17 53.9,40.17 53.9,60.49 64.82,60.49 64.82,116.05 87.09,116.05 87.09,60.49 98.49,60.49 
					"/>
		<path class="st4" d="M37.42,40.19l-2.49-0.02c-16.9,0-23.2,15.06-23.2,24.56c0,4.99,1.36,9.29,4.15,13.14
			c2.68,3.64,6.36,6.58,9.96,9.32c1.09,0.75,2.22,1.56,3.01,2.51l0.04,0.05c0.83,0.9,1.21,1.86,1.22,3.1l-0.01,0.11
			c0,0.17-0.02,0.33-0.04,0.48l-0.01,0.07c-0.28,1.28-1.43,2.21-2.74,2.21H11.73v20.32h19.3C43.25,114.55,52,104.12,52,91.11
			c0-5.3-1.19-9.44-3.75-13.02c-2.51-3.65-6.21-6.46-9.84-8.95c-0.29-0.23-0.61-0.47-0.94-0.71c-0.86-0.65-1.75-1.31-2.45-2.06
			c-0.65-0.7-1.07-1.31-1.33-1.92c-0.08-0.18-0.14-0.36-0.18-0.53c-0.04-0.17-0.06-0.36-0.06-0.61c0-0.03,0-0.05,0-0.07
			c0-0.02,0-0.03,0-0.05l0.01-0.13c0.1-1.44,1.29-2.57,2.73-2.57H52V40.16l-14.01,0.01C37.8,40.17,37.61,40.17,37.42,40.19"/>
		<path class="st4" d="M434.82,11.14h-66.37c-0.85,0-1.64,0.33-2.24,0.93l-4.72,4.72v-2.48c0-1.75-1.42-3.17-3.17-3.17h-19.89
			c-0.84,0-1.65,0.34-2.24,0.93l-8.15,8.15c-5.48-6.78-13.01-10.35-21.87-10.35h-1.51c-7.82,0-14.47,2.69-19.72,7.96L260.57,42.2
			c-0.07,0.07-0.13,0.14-0.19,0.21c-3.83,3.65-6.95,8.81-9.04,14.93c-5.74-11.1-16.82-17.17-31.53-17.17h-17.18v75.88h18.54
			c16.59,0,27.33-6.79,31.98-20.19c4.98,13.69,15,21.46,27.95,21.46c7.82,0,14.46-2.68,19.74-7.97l10.68-10.68
			c3.27,12.22,12.49,18.65,26.79,18.65c9.24,0,16.37-2.7,21.2-8.03L375.3,93.5v19.39c0,1.75,1.42,3.17,3.17,3.17h19.88
			c0.85,0,1.64-0.33,2.24-0.93l25.07-25.06c0.61-0.61,0.95-1.45,0.93-2.29v-42.8l10.48-10.48c0.63-0.63,0.97-1.5,0.92-2.4V14.32
			C437.99,12.57,436.57,11.14,434.82,11.14 M224.89,95.81V60.96c4,0.58,8.24,4.37,8.24,17.83
			C233.14,92.27,228.06,95.26,224.89,95.81"/>
		<path class="st5" d="M305.41,13.8c-20.18,0-28.07,20.09-28.07,38.02c0,17.94,7.9,38.02,28.07,38.02
			c20.18,0,28.07-20.08,28.07-38.02C333.49,33.88,325.59,13.8,305.41,13.8 M305.41,32.32L305.41,32.32c7.51,0,7.8,14.92,7.8,19.5
			c0,4.58-0.29,19.5-7.8,19.5c-2.35,0-3.99-1.46-5.13-3.6c-0.11-0.21-0.22-0.44-0.33-0.66c-0.45-0.97-0.81-2.04-1.1-3.17
			c-0.11-0.4-0.2-0.82-0.29-1.23c-0.88-4.14-0.94-8.65-0.94-10.83C297.62,47.24,297.91,32.32,305.41,32.32"/>
		<polygon class="st5" points="391.86,15.07 391.86,33.01 402.78,33.01 402.78,88.58 422.66,88.58 422.66,33.01 434.07,33.01 
			434.07,15.07 		"/>
		<path class="st5" d="M367.7,15.07v46.3c0,1.85,0.09,4.39-0.49,6.44c-0.49,1.95-1.75,3.51-4.58,3.51c-2.73,0-3.99-1.56-4.58-3.61
			c-0.59-1.95-0.48-4.48-0.48-6.43V15.07h-19.89v48.06c0,8.87,1.96,26.71,24.95,26.71c23.01,0,24.96-17.84,24.96-26.71V15.07H367.7z
			"/>
		<path class="st6" d="M439.86,213.14c-0.04-0.23-0.06-0.47-0.06-0.71c-0.01-0.24-0.02-0.48-0.04-0.71
			c-0.03-0.24-0.07-0.46-0.11-0.67c-0.05-0.22-0.12-0.41-0.23-0.59c-0.1-0.18-0.24-0.33-0.42-0.45c-0.17-0.13-0.4-0.22-0.68-0.27
			v-0.03c0.59-0.16,1.01-0.46,1.27-0.9c0.27-0.44,0.4-0.95,0.4-1.54c0-0.78-0.26-1.39-0.77-1.84c-0.52-0.45-1.23-0.67-2.15-0.67
			h-4.52v9.61h1.28v-4.11h3.12c0.32,0,0.57,0.05,0.76,0.14c0.19,0.1,0.34,0.22,0.46,0.38c0.11,0.16,0.2,0.34,0.26,0.55
			c0.05,0.21,0.1,0.43,0.13,0.67c0.04,0.23,0.07,0.47,0.08,0.71c0.01,0.24,0.02,0.47,0.03,0.68c0.01,0.21,0.03,0.4,0.06,0.57
			c0.03,0.17,0.09,0.3,0.18,0.4h1.43c-0.14-0.16-0.23-0.35-0.3-0.56C439.95,213.59,439.9,213.37,439.86,213.14 M438.04,208.85
			c-0.2,0.13-0.44,0.22-0.71,0.26c-0.27,0.05-0.55,0.07-0.85,0.07h-2.67v-3.36H437c0.6,0,1.04,0.15,1.31,0.46
			c0.27,0.3,0.4,0.7,0.4,1.18c0,0.35-0.06,0.63-0.18,0.85C438.4,208.54,438.24,208.71,438.04,208.85"/>
		<path class="st6" d="M436.09,199.91c-5.35,0-9.69,4.34-9.69,9.69c0,5.35,4.34,9.68,9.69,9.68c5.35,0,9.68-4.34,9.68-9.68
			C445.77,204.25,441.44,199.91,436.09,199.91 M436.09,218c-4.63,0-8.4-3.77-8.4-8.4c0-4.63,3.77-8.4,8.4-8.4
			c4.63,0,8.4,3.77,8.4,8.4C444.49,214.23,440.72,218,436.09,218"/>
		<path class="st6" d="M341.76,143.52l-3.4,21.02l1.47,0.11c6.1,0,10.29-5.31,11.07-10.85
			C352.15,146.35,348.08,143.18,341.76,143.52 M434.82,3.36h-96.39c-2.93,0-5.68,1.14-7.75,3.21l-2.75,2.75
			c-6.13-4.71-13.61-7.23-21.77-7.23h-1.51c-9.77,0-18.47,3.52-25.16,10.18c-0.05,0.05-0.11,0.11-0.17,0.16l-24.3,24.3
			c-0.09,0.09-0.18,0.19-0.27,0.28c-0.13,0.12-0.25,0.26-0.38,0.39l0,0c0,0-0.08,0.08-0.21,0.22c-0.81,0.83-1.59,1.7-2.34,2.62
			c-0.68,0.8-1.39,1.68-2.02,2.54c-7.52-6.74-17.79-10.39-30.01-10.39L34.92,32.4c-22.57,0-30.98,19.83-30.98,32.34
			c0,6.6,1.89,12.55,5.66,17.75c1.49,2.02,3.16,3.82,4.91,5.46h-1.6c-4.96,0-8.97,4.02-8.97,8.97v17.94c0,4.95,4.02,8.97,8.97,8.97
			h16.15c-2.03,1.59-3.94,3.42-5.71,5.48c-5.19,6.05-8.99,14.11-10.17,21.51c-1.22,7.4-0.19,13.98,3.14,20.13
			c0.05,0.08,0.09,0.17,0.14,0.25c2.14,3.67,4.81,6.67,7.57,9.35h-7.88c-4.41,0-8.17,3.21-8.86,7.57l-3.28,20.79
			c-0.41,2.59,0.34,5.23,2.04,7.23c1.7,2,4.2,3.14,6.82,3.14h372.9c19.33,0,36.27-15.08,39.41-35.07c1.22-7.79,0.37-14.1-2.68-19.88
			c-1.96-3.7-4.64-6.72-7.54-9.35h7.18c4.41,0,8.17-3.21,8.86-7.57l3.29-20.79c0.41-2.59-0.34-5.23-2.04-7.23
			c-1.7-1.99-4.2-3.14-6.82-3.14h-14.95l20.67-20.67c2.07-2.07,3.24-4.92,3.21-7.85V48.2l8.2-8.2c2.12-2.12,3.28-5.03,3.2-8.03
			V14.32C445.77,8.28,440.86,3.36,434.82,3.36 M132.09,41.36l15.6,73.5v-73.5h18.91l15.89,44.26l0.2-0.2
			c-0.78-8.48-2.25-16.87-2.25-25.34V41.36h19.11v73.5h-19.11l-14.81-42.4l-0.2,0.19c0.49,6.92,1.37,13.75,1.37,20.67v21.54h-19.11
			h-20.56l-1.46-9.45H112.3l-1.66,9.45H90.17l17.64-73.5H132.09z M55.09,41.36H97.3V59.3h-11.4v55.56H66.01V59.3H55.09V41.36z
			 M12.92,114.85V96.92h14.38c1.92,0,3.52-1.35,3.9-3.15c0-0.02,0.01-0.04,0.01-0.05c0.05-0.23,0.07-0.48,0.07-0.73
			c0-0.03,0.01-0.05,0.01-0.08c0-1.7-0.58-2.92-1.54-3.96c-0.86-1.04-2.01-1.88-3.25-2.73c-3.83-2.92-7.18-5.65-9.67-9.04
			c-2.39-3.3-3.92-7.25-3.92-12.43c0-8.29,5.35-23.36,22-23.36h2.49c0-0.01,13.39-0.01,13.39-0.01V58.9v0.4H36.21
			c-2.09,0-3.78,1.63-3.92,3.68c-0.01,0.06-0.02,0.12-0.02,0.18c0,0.03-0.01,0.05-0.01,0.08c0,0.04,0.01,0.07,0.01,0.11
			c0,0.28,0.03,0.56,0.09,0.84c0.06,0.25,0.14,0.49,0.24,0.73c0.36,0.85,0.93,1.59,1.56,2.26c1.05,1.14,2.49,2.08,3.55,2.92
			c4.11,2.82,7.36,5.46,9.57,8.67c2.29,3.21,3.54,6.97,3.54,12.34c0,11.36-6.96,20.83-17.57,23.23c-1.69,0.38-3.43,0.51-5.16,0.51
			H12.92z M66.26,146.01H49.67c-0.76,0.04-2.24,0.28-3.53,1.41c-0.01,0.01-0.01,0.01-0.02,0.02c-0.12,0.11-0.25,0.23-0.37,0.36
			c-0.69,0.75-1.2,1.66-1.35,2.73c-0.32,1.74,0.44,3.27,1.42,4.58c0.99,1.31,2.51,2.41,3.49,3.38c4.15,3.27,7.42,6.33,9.38,10.04
			c1.96,3.71,2.73,8.07,1.75,14.29c-2.4,15.27-15.05,27.49-30.55,27.49H12.88l3.29-20.79h15.74c0.91-0.02,2.97-0.23,4.28-1.43
			c0.86-0.84,1.49-1.9,1.68-3.19c0.32-1.96-0.12-3.38-1.09-4.58c-0.76-1.2-1.86-2.18-3.16-3.16c-3.82-3.38-7.1-6.55-9.39-10.47
			c-2.07-3.82-3.16-8.39-2.18-14.4c1.53-9.6,10.36-27.05,29.33-27.05l0-0.01h18.16L66.26,146.01z M96.78,210.31H73.73l10.15-64.3
			H71.23l3.28-20.79h48.93l-3.28,20.79h-13.22L96.78,210.31z M114.97,210.31l13.43-85.1h23.06l-13.43,85.1H114.97z M190.27,210.31
			h-13.63c-18.22,0-31.52-13.86-27.06-42c5.78-36.87,32.07-43.09,42.87-43.09l11.24-0.01l-3.28,20.79h-10.25
			c0,0-4.75-0.32-9.13,3.33c-5.16,4.41-7.69,12.28-8.65,18.43c-1.47,9.23-0.71,20.87,9.24,21.75l11.93,0L190.27,210.31z
			 M232.7,210.31l-8.11-38.99h-0.11l-6.2,38.99h-23.05l13.43-85.1h23.06l-5.65,36.27h0.11l18.31-36.27h24.29l-24.86,41.13
			l13.53,43.97H232.7z M306.28,190.3l-3.15,20.01H260.3l13.43-85.1h42.83l-3.17,20.11h-19.77l-1.81,11.87h17.75l-3.29,20.11h-17.74
			l-2.03,12.99H306.28z M343.77,210.31l-7.1-35.37l-0.34,0.22c-0.45,4.19-0.9,8.36-1.58,12.54l-3.6,22.61H308.1l13.43-85.1h22.27
			c20,0,33.56,5.88,30.06,28.37c-1.47,9.38-6.9,17.74-16.62,21.36l11.49,35.37H343.77z M425.43,125.21l-3.29,20.79h-16.59
			c-0.77,0.04-2.24,0.28-3.53,1.41c-0.01,0.01-0.02,0.01-0.02,0.02c-0.12,0.11-0.25,0.23-0.37,0.36c-0.69,0.75-1.2,1.66-1.35,2.73
			c-0.32,1.74,0.44,3.27,1.42,4.58c0.99,1.31,2.51,2.41,3.49,3.38c4.15,3.27,7.42,6.33,9.38,10.04c1.96,3.71,2.73,8.07,1.75,14.29
			c-2.4,15.27-15.05,27.49-30.54,27.49h-17.02l3.29-20.79h15.74c0.91-0.02,2.97-0.23,4.28-1.43c0.86-0.84,1.48-1.9,1.68-3.19
			c0.32-1.96-0.11-3.38-1.09-4.58c-0.76-1.2-1.86-2.18-3.16-3.16c-3.82-3.38-7.1-6.55-9.39-10.47c-2.07-3.82-3.16-8.39-2.18-14.4
			c1.53-9.6,10.36-27.05,29.34-27.05l0-0.01H425.43z M436.8,32.13c0.04,0.57-0.17,1.12-0.57,1.52L425.4,44.48v43.3
			c0.01,0.53-0.19,1.06-0.58,1.44l-25.07,25.07c-0.37,0.37-0.88,0.58-1.4,0.58h-19.88c-1.09,0-1.98-0.89-1.98-1.98V90.62l-17.8,17.8
			c-0.01,0.01-0.02,0.02-0.03,0.03c-4.59,5.09-11.43,7.67-20.34,7.67c-14.54,0-23.5-6.83-26.12-19.82l-12.11,12.11
			c-0.03,0.03-0.05,0.05-0.08,0.08c-5.05,5.06-11.41,7.63-18.9,7.63c-15.19,0-24.24-10.76-28-24.34
			c-5.06,20.86-21.76,23.07-31.93,23.07h-17.35v-73.5h15.99c15.92,0,26.66,7.07,31.62,19c0.04,0.1,0.09,0.2,0.13,0.3
			c0,0,0,0.01,0,0.01c0.27-0.99,0.57-1.96,0.89-2.91v-0.01c2.01-5.9,5-10.93,8.8-14.53c0.05-0.06,0.1-0.12,0.16-0.18l24.26-24.26
			c0.02-0.02,0.05-0.05,0.07-0.07c5.05-5.07,11.41-7.64,18.91-7.64h1.51c8.97,0,16.45,3.78,21.75,10.96l9.11-9.11
			c0.37-0.37,0.88-0.58,1.4-0.58h19.89c1.09,0,1.98,0.89,1.98,1.98v5.36l6.76-6.76c0.37-0.37,0.88-0.58,1.4-0.58h66.37
			c1.09,0,1.98,0.89,1.98,1.98V32.13z M223.7,59.68v37.43c9.06-0.1,10.63-11.4,10.63-18.33C234.33,70.8,232.77,59.68,223.7,59.68
			 M121.17,72.74c-0.59-4.58-0.98-9.25-1.47-13.83h-0.19c-0.59,4.58-1.07,9.25-1.85,13.83l-2.73,17.06h8.38L121.17,72.74z"/>
	</g>
</g>
</svg>
