<svg width="657" height="91" viewBox="0 0 657 91" fill="none" xmlns="http://www.w3.org/2000/svg">
<g clip-path="url(#clip0_312_1226)">
<path d="M384.158 26.7503L384.345 26.4521L384.145 26.7503C380.751 24.4269 375.843 23.3487 371.037 23.3487C360.144 23.3586 352.359 28.7329 347.238 36.2832C342.146 43.8564 339.748 53.6122 339.748 62.2963C339.748 68.5718 340.694 74.4246 344.527 79.7072C346.416 82.2862 350.996 88.4831 365.798 88.5028C376.077 88.4962 380.945 85.8385 383.583 84.3016L384.023 83.7085C384.539 81.4604 386.273 71.2524 386.98 68.6931L386.447 68.2867C381.251 72.3961 375.584 75.3979 369.149 75.3979C364.832 75.3979 361.55 74.3755 359.336 72.4027C357.129 70.4463 356.048 67.5527 356.048 63.9676C356.048 62.6469 356.156 61.441 356.258 60.1204L356.291 59.809L356.593 59.7992C366.655 59.5436 371.783 59.406 380.209 59.406C382.962 59.406 386.066 59.4191 389.815 59.4486L390.465 58.9963C391.303 55.0999 392.209 50.6432 392.209 45.1607C392.209 40.2943 391.69 31.6429 384.158 26.7503ZM377.492 48.0707L377.437 48.3558L367.575 48.4803L357.825 48.6081L357.914 48.2804L357.96 48.1362C358.157 47.4546 358.37 46.7042 358.617 45.9406C359.287 43.7974 360.246 41.4642 361.945 39.3243C362.243 38.9605 362.556 38.587 362.887 38.2396C365.91 34.9429 368.771 34.4317 370.624 34.4317C373.235 34.4317 375.147 35.4738 376.376 37.0238C376.583 37.2958 376.757 37.5612 376.927 37.866C377.535 38.8983 377.906 40.0714 378.041 41.3003C378.107 41.7395 378.13 42.2015 378.13 42.6439C378.133 44.4856 377.805 46.2945 377.492 48.0707ZM339.203 36.9943L338.532 37.6563L328.822 37.4072L324.325 58.531C323.704 61.1788 322.331 67.7886 322.331 69.9187C322.318 71.9078 323.07 73.2645 324.121 74.0707C325.159 74.8867 326.46 75.1554 327.623 75.1587C330.323 75.1587 331.266 74.4082 333.066 73.7233L333.385 74.0183L330.997 86.1859L330.175 86.9822C326.851 87.6835 324.377 88.2603 320.879 88.2603C311.845 88.2078 305.324 85.1831 305.288 74.6802C305.288 69.7647 307.279 60.8151 308.76 54.1627L312.344 37.3941L304.72 37.653L304.26 36.991L306.491 25.174L307.184 24.7939H314.93L318.027 9.23127L318.632 8.54964C326.388 6.57031 328.625 5.6167 335.691 3.29656L336.065 3.71602L333.723 13.7405L331.296 25.0299L341.242 24.7251L341.502 25.2429L339.203 36.9943ZM458.954 17.0601L458.418 17.6532L432.792 17.591L428.624 38.9212L451.05 38.2461L451.382 38.777C449.536 44.9084 449.109 46.6419 447.867 51.99L447.299 52.5307L425.973 52.4849L423.17 67.284L419.623 86.5038L419.15 86.9462L400.783 87.4181L400.56 86.9462L403.743 70.5839L408.615 47.4841C412.287 29.5358 413.338 23.8042 416.811 4.25017L417.363 3.71274H444.198L461.24 3.26706L461.569 3.71274L458.954 17.0601ZM495.155 27.4418C491.59 24.9348 485.901 23.6469 478.096 23.6469C474.242 23.6469 470.356 24.0173 466.454 24.7546C462.965 25.4165 460.8 25.9769 458.957 26.5045L458.451 27.0157L455.919 39.9568L456.737 40.4483C458.363 39.7011 460.748 38.7836 463.895 37.6727C467.114 36.5421 470.077 35.9752 472.751 35.9752C476.663 35.9752 479.646 36.5093 481.673 37.6137C483.762 38.7344 485.26 41.1955 485.25 43.9023C485.25 44.5708 485.194 45.1574 485.102 45.6883C485.001 46.1864 484.938 46.5534 484.912 46.7632L484.869 47.0384C484.869 47.0384 483.605 47.1269 482.261 47.2416C481.374 47.3268 480.244 47.4546 478.937 47.6054C476.798 47.8347 474.338 48.1362 472.189 48.4967C467.038 49.352 452.545 51.6033 448.196 61.287C443.636 69.2207 444.414 79.7465 448.892 84.8685C450.472 86.6807 452.88 88.3848 456.135 89.0402L456.129 89.05C456.27 89.0992 456.769 89.1614 456.881 89.1877C469.413 91.1211 478.404 80.2282 478.404 80.2282L477.061 86.9429L477.613 87.4148L491.692 86.9429L492.277 86.4349L500.565 44.9084C500.736 44.0334 500.877 42.9978 500.982 41.8214C501.074 40.6285 501.133 39.6618 501.133 38.9507C501.123 33.6354 498.712 29.9454 495.155 27.4418ZM480.658 68.9618C480.658 68.9618 477.291 74.2378 472.442 76.1287C467.577 78.0064 464.065 76.5252 462.692 74.6474C461.582 73.1793 459.276 68.5456 463.655 63.3318C468.096 58.0657 482.773 57.7281 482.773 57.7281L480.658 68.9618ZM549.016 22.8015L545.566 40.6613L544.844 41.3921C543.858 41.2151 542.603 41.0709 541.118 41.0709C536.47 41.0709 529.861 42.5587 524.69 49.3946L524.634 49.4503L517.512 86.5103L517.01 86.9527L501.544 87.4213L501.143 87.015L513.307 24.8005L513.968 24.1483L529.276 22.6704L529.88 23.3225L528.116 32.3344L528.869 31.6527C532.068 28.7591 534.906 26.7601 538.076 24.9578C541.217 23.1554 544.367 22.2608 547.534 22.2608C547.839 22.2608 548.151 22.2608 548.48 22.2739L549.016 22.8015ZM631.814 38.4559C631.814 42.2146 630.963 46.1176 630.129 49.9157L622.944 86.507L622.392 86.9494L606.204 87.5196L605.803 86.9494C605.803 86.9494 614.098 46.5305 614.098 44.5217C614.098 42.6898 613.129 37.7808 607.978 37.7808C603.921 37.7808 599.726 41.8673 599.726 41.8673L590.985 86.5103L590.446 86.9527L583.478 87.1952L577.24 87.405L574.159 87.5065L573.972 87.2542L573.771 86.9494C573.771 86.9494 575.023 80.7984 576.573 73.1793H576.531C578.948 61.264 582.04 45.7473 582.04 44.5217C582.04 42.6898 581.074 37.7808 575.916 37.7808C571.872 37.7808 567.678 41.8673 567.678 41.8673L558.933 86.5103L558.381 86.9527L555.881 87.0379L542.104 87.5L541.752 86.9527L553.887 24.8005L554.498 24.1877L570.644 22.6704L571.298 23.3225L569.586 32.0722C569.586 32.0722 577.378 23.5519 587.312 23.3553C596.582 23.1816 598.52 32.0722 598.52 32.0722C598.52 32.0722 607.745 23.1521 617.583 23.3553C622.56 23.3946 631.788 25.5837 631.814 38.4559ZM293.784 27.4418C290.226 24.9348 284.543 23.6469 276.742 23.6469C272.875 23.6469 268.996 24.0173 265.106 24.7546C261.611 25.4165 259.446 25.9769 257.597 26.5045L257.094 27.0157L254.561 39.9568L255.379 40.4483C257.005 39.7011 259.393 38.7836 262.534 37.6727C265.756 36.5421 268.716 35.9752 271.39 35.9752C275.306 35.9752 278.269 36.5093 280.319 37.6137C282.398 38.7344 283.886 41.1955 283.886 43.9023C283.886 44.5708 283.84 45.1574 283.748 45.6883C283.64 46.1864 283.581 46.5534 283.555 46.7632L283.515 47.0384C283.515 47.0384 282.254 47.1269 280.91 47.2416C280.027 47.3268 278.883 47.4546 277.586 47.6054C275.444 47.8347 272.98 48.1362 270.842 48.4967C265.681 49.352 251.194 51.6033 246.841 61.287C242.282 69.2207 243.064 79.7465 247.541 84.8685C249.108 86.6807 251.523 88.3848 254.781 89.0402L254.775 89.05C254.913 89.0992 255.415 89.1614 255.52 89.1877C268.059 91.1211 277.05 80.2282 277.05 80.2282L275.703 86.9429L276.252 87.4148L290.341 86.9429L290.923 86.4349L299.201 44.9084C299.382 44.0334 299.523 42.9978 299.638 41.8214C299.72 40.6285 299.783 39.6618 299.783 38.9507C299.769 33.6354 297.368 29.9454 293.784 27.4418ZM279.297 68.9618C279.297 68.9618 275.94 74.2378 271.085 76.1287C266.223 78.0064 262.718 76.5252 261.328 74.6474C260.228 73.1793 257.925 68.5456 262.314 63.3318C266.739 58.0657 281.429 57.7281 281.429 57.7281L279.297 68.9618ZM245.36 36.9943L244.683 37.6563L234.983 37.4072L230.489 58.531C229.858 61.1788 228.478 67.7886 228.478 69.9187C228.475 71.9078 229.221 73.2645 230.269 74.0707C231.32 74.8867 232.614 75.1554 233.774 75.1587C236.477 75.1587 237.423 74.4082 239.217 73.7233L239.539 74.0183L237.154 86.1859L236.333 86.9822C233.021 87.6835 230.535 88.2603 227.03 88.2603C218.016 88.2078 211.482 85.1831 211.446 74.6802C211.446 69.7647 213.443 60.8151 214.918 54.1627L218.498 37.3941L210.871 37.653L210.411 36.991L212.648 25.174L213.338 24.7939H221.081L224.182 9.23127L224.789 8.54964C232.532 6.57031 234.776 5.6167 241.855 3.29656L242.216 3.71602L239.874 13.7405L237.466 25.0364L247.393 24.7316L247.666 25.2494L245.36 36.9943ZM208.89 8.29403L205.94 23.447L205.289 23.6535C204.117 22.0084 203.407 21.3629 201.775 20.1045C198.148 17.319 193.845 15.7427 189.453 15.7427C186.01 15.7427 183.149 16.8143 181.164 18.6003C179.164 20.3797 178.027 22.9129 178.027 25.741C178.037 31.0891 181.706 33.6976 188.227 37.594L190.763 39.0294C196.226 42.6013 204.711 48.0805 204.711 60.5169C204.692 74.6507 195.615 88.8305 173.839 88.8632C168.501 88.8632 163.274 87.9096 158.245 86.0384C154.852 84.7407 153.216 83.6167 151.163 82.0994L150.992 81.1262L153.883 66.3434L154.53 66.1272C155.84 67.8181 157.483 69.201 159.94 70.8231C165.186 74.3132 170.219 74.6868 172.364 74.6868C180.051 74.6802 186.095 70.3021 186.095 63.5023C186.089 57.4135 181.263 54.3626 176.224 51.4002L172.738 49.257C167.252 45.6785 159.648 40.8121 159.625 28.6117C159.625 23.9189 160.978 17.1846 165.144 11.6694C170.636 4.4173 179.272 1.81206 187.971 1.81206C199.17 1.81206 205.575 5.76744 208.578 7.68451L208.89 8.29403ZM51.4201 34.9855C55.8319 37.7022 62.0307 39.4291 69.008 39.4291C75.9755 39.4291 82.2334 37.7022 86.7109 34.9855C91.2047 32.2721 93.8524 28.6084 93.8623 24.7415C93.8524 20.8647 91.2212 17.2371 86.747 14.5466C82.286 11.8595 76.0445 10.1685 69.0573 10.1554C62.0832 10.1685 55.8746 11.8595 51.4431 14.5466C47.0083 17.2403 44.4033 20.8549 44.3935 24.7316C44.4033 28.6182 47.0018 32.2721 51.4201 34.9855ZM52.5337 55.9454C48.0727 53.255 41.8279 51.5607 34.8538 51.5607C27.8732 51.5607 21.6646 53.255 17.2364 55.9323C12.7984 58.626 10.1934 62.2275 10.1835 66.1042C10.1934 69.9941 12.7852 73.6479 17.2134 76.3744C21.6219 79.0714 27.8207 80.8017 34.8013 80.8148C41.7819 80.7984 48.0398 79.0714 52.514 76.3613C56.998 73.6479 59.6457 69.9941 59.6589 66.1173C59.6425 62.2537 57.0079 58.6391 52.5337 55.9454ZM120.799 55.9454C116.332 53.255 110.084 51.5607 103.106 51.5607C96.1322 51.5607 89.9137 53.255 85.4954 55.9323C81.0574 58.6227 78.4589 62.2275 78.4524 66.114C78.4589 69.9908 81.0442 73.6447 85.4757 76.3712C89.8875 79.0682 96.083 80.7984 103.057 80.8116C110.031 80.7952 116.296 79.0682 120.776 76.3581C125.26 73.6447 127.908 69.9908 127.915 66.114C127.908 62.2537 125.273 58.6391 120.799 55.9454ZM103.031 41.4052C99.8771 41.4052 96.8319 41.7034 93.9379 42.2441C100.261 37.7415 104.154 31.5446 104.154 24.7054C104.154 10.9452 88.4913 -0.00341797 69.0441 -0.00341797C49.6002 -0.000140933 34.0983 10.9484 34.0983 24.7087C34.0983 31.5577 37.9188 37.7546 44.18 42.2572C41.23 41.7034 38.1356 41.4052 34.9425 41.4052C15.4986 41.4052 0 52.3571 0 66.1042C0 79.8416 15.4165 90.9999 34.867 90.9999C51.4201 90.9999 65.2959 82.9252 69.0737 72.0455C72.7562 82.9252 86.3922 90.9999 102.949 90.9999C122.396 90.9999 138.147 79.8448 138.147 66.1042C138.147 52.3571 122.468 41.4052 103.031 41.4052ZM40.4384 24.6956C40.4613 18.4987 45.1786 14.3139 47.9446 12.3641C53.4765 8.4415 60.9729 6.32781 69.0474 6.32781C77.1482 6.32781 84.6709 8.45133 90.2455 12.3641C93.0345 14.3271 97.8076 18.5184 97.8306 24.6956C97.7386 35.0248 84.4442 43.2469 68.962 43.2698C60.9203 43.2698 53.4568 41.1234 47.9479 37.1713C43.1485 33.7402 40.4384 29.3195 40.4384 24.6956ZM34.867 84.6653C26.8155 84.6653 19.3585 82.5156 13.8331 78.557C9.05674 75.139 6.34005 70.7183 6.34005 66.1042C6.36633 59.9073 11.0803 55.7127 13.8364 53.7596C19.3749 49.8632 26.868 47.7364 34.9458 47.7233C43.0499 47.7364 50.5726 49.86 56.1472 53.776C58.9395 55.7357 63.7191 59.9205 63.7454 66.1042C63.6502 76.4203 50.3459 84.6424 34.867 84.6653ZM69.0835 60.1793C67.5593 55.7979 64.3926 51.8852 60.0728 48.7884C62.9077 49.316 65.8807 49.5978 68.9456 49.5978C72.0992 49.5978 75.1444 49.3029 78.0483 48.7589C73.7417 51.8589 70.5782 55.775 69.0835 60.1793ZM102.945 84.6653C94.9036 84.6653 87.4401 82.5156 81.9213 78.557C77.1351 75.139 74.4118 70.7183 74.4118 66.1042C74.4315 59.9073 79.1619 55.7226 81.9279 53.7596C87.4533 49.8632 94.9529 47.7364 103.027 47.7233C111.132 47.7364 118.651 49.86 124.242 53.776C127.031 55.7357 131.791 59.9303 131.804 66.1042C131.729 76.4203 118.428 84.6424 102.945 84.6653Z" fill="#ED1D24"/>
<path d="M657 35.8115C656.954 41.2972 652.959 45.4394 647.733 45.3935C642.536 45.3509 638.588 41.1465 638.63 35.6607C638.676 30.0635 642.615 26.0066 647.946 26.0492C653.117 26.0918 657.046 30.3257 657 35.8115ZM639.836 35.6378C639.796 40.3338 643.338 44.181 647.74 44.217C652.138 44.2564 655.755 40.4648 655.794 35.7459C655.814 33.4979 654.976 31.2072 653.564 29.6899C652.184 28.1956 649.993 27.2453 647.999 27.2289C643.344 27.1896 639.878 30.7845 639.836 35.6378ZM647.418 30.2438C648.58 30.2569 649.123 30.3126 649.786 30.5387C650.936 30.9319 651.668 32.0298 651.658 33.2685C651.649 34.5858 650.821 35.6247 649.49 36.0245L651.668 41.2546L650.128 41.2448L648.111 36.2866L648.006 36.2604L647.033 36.2506L645.995 36.244L645.831 36.2702L645.785 41.2087L644.386 41.1956L644.478 30.2208L647.418 30.2438ZM647.293 35.1265C648.649 35.1397 649.168 35.0577 649.586 34.7366C650.016 34.4351 650.282 33.8878 650.285 33.2881C650.295 32.4951 649.937 31.9151 649.247 31.666C648.866 31.489 648.262 31.4366 647.053 31.4235L645.874 31.4169L645.838 35.1167L647.293 35.1265Z" fill="#ED1D24"/>
</g>
<defs>
<clipPath id="clip0_312_1226">
<rect width="657" height="91" fill="white"/>
</clipPath>
</defs>
</svg>
